M48
; DRILL file {KiCad (6.0.1)} date Tue Mar 22 00:04:32 2022
; FORMAT={-:-/ absolute / inch / decimal}
; #@! TF.CreationDate,2022-03-22T00:04:32+08:00
; #@! TF.GenerationSoftware,Kicad,Pcbnew,(6.0.1)
; #@! TF.FileFunction,Plated,1,4,PTH
FMAT,2
INCH
; #@! TA.AperFunction,Plated,PTH,ViaDrill
T1C0.0157
; #@! TA.AperFunction,Plated,PTH,ComponentDrill
T2C0.0300
; #@! TA.AperFunction,Plated,PTH,ComponentDrill
T3C0.0394
; #@! TA.AperFunction,Plated,PTH,ComponentDrill
T4C0.0472
%
G90
G05
T1
X5.569Y-3.3455
X5.5797Y-3.1655
X5.5871Y-3.2248
X5.7242Y-3.0748
X5.75Y-3.499
X5.7905Y-3.0767
X5.95Y-3.299
X6.1022Y-2.921
X6.1495Y-2.8759
X6.2033Y-2.8325
X6.25Y-2.799
X6.2973Y-3.0985
X6.2973Y-3.1589
X6.6761Y-3.1174
X7.9896Y-2.9131
X8.0777Y-2.8537
X8.1212Y-2.8966
X8.1818Y-3.1866
T2
X6.45Y-3.299
X6.45Y-4.299
X6.55Y-3.299
X6.55Y-4.299
X6.65Y-3.299
X6.65Y-4.299
X6.75Y-3.299
X6.75Y-4.299
X6.85Y-3.299
X6.85Y-4.299
X6.95Y-3.299
X6.95Y-4.299
X7.05Y-3.299
X7.05Y-4.299
X7.15Y-3.299
X7.15Y-4.299
X7.25Y-3.299
X7.25Y-4.299
X7.35Y-3.299
X7.35Y-4.299
X7.45Y-3.299
X7.45Y-4.299
X7.55Y-3.299
X7.55Y-4.299
X7.65Y-3.299
X7.65Y-4.299
X7.75Y-3.299
X7.75Y-4.299
X7.85Y-3.299
X7.85Y-4.299
X7.95Y-3.299
X7.95Y-4.299
X8.05Y-3.299
X8.05Y-4.299
X8.15Y-3.299
X8.15Y-4.299
T3
X5.25Y-2.649
X5.25Y-2.749
X5.25Y-2.849
X5.25Y-2.949
X5.25Y-3.049
X5.25Y-3.149
X5.25Y-3.249
X5.25Y-3.349
X5.25Y-3.449
X5.25Y-3.549
X5.3037Y-4.4745
X5.35Y-2.649
X5.35Y-2.749
X5.35Y-2.849
X5.35Y-2.949
X5.35Y-3.049
X5.35Y-3.149
X5.35Y-3.249
X5.35Y-3.349
X5.35Y-3.449
X5.35Y-3.549
X5.4037Y-4.4745
X5.5037Y-4.4745
X6.5165Y-4.4745
X6.6165Y-4.4745
X6.7165Y-4.4745
X6.7593Y-2.4703
X6.8593Y-2.4703
X6.9593Y-2.4703
X7.0593Y-2.4703
X7.9037Y-4.4745
X8.0037Y-4.4745
X8.1037Y-4.4745
T4
X7.8799Y-2.599
X8.1941Y-2.599
T0
M30
