%TF.GenerationSoftware,KiCad,Pcbnew,(6.0.1)*%
%TF.CreationDate,2022-05-14T12:38:18+08:00*%
%TF.ProjectId,SDISK2_ESP,53444953-4b32-45f4-9553-502e6b696361,rev?*%
%TF.SameCoordinates,Original*%
%TF.FileFunction,Copper,L2,Bot*%
%TF.FilePolarity,Positive*%
%FSLAX46Y46*%
G04 Gerber Fmt 4.6, Leading zero omitted, Abs format (unit mm)*
G04 Created by KiCad (PCBNEW (6.0.1)) date 2022-05-14 12:38:18*
%MOMM*%
%LPD*%
G01*
G04 APERTURE LIST*
G04 Aperture macros list*
%AMRoundRect*
0 Rectangle with rounded corners*
0 $1 Rounding radius*
0 $2 $3 $4 $5 $6 $7 $8 $9 X,Y pos of 4 corners*
0 Add a 4 corners polygon primitive as box body*
4,1,4,$2,$3,$4,$5,$6,$7,$8,$9,$2,$3,0*
0 Add four circle primitives for the rounded corners*
1,1,$1+$1,$2,$3*
1,1,$1+$1,$4,$5*
1,1,$1+$1,$6,$7*
1,1,$1+$1,$8,$9*
0 Add four rect primitives between the rounded corners*
20,1,$1+$1,$2,$3,$4,$5,0*
20,1,$1+$1,$4,$5,$6,$7,0*
20,1,$1+$1,$6,$7,$8,$9,0*
20,1,$1+$1,$8,$9,$2,$3,0*%
G04 Aperture macros list end*
%TA.AperFunction,ComponentPad*%
%ADD10C,1.930400*%
%TD*%
%TA.AperFunction,SMDPad,CuDef*%
%ADD11RoundRect,0.250000X0.262500X0.450000X-0.262500X0.450000X-0.262500X-0.450000X0.262500X-0.450000X0*%
%TD*%
%TA.AperFunction,ComponentPad*%
%ADD12R,1.700000X1.700000*%
%TD*%
%TA.AperFunction,ComponentPad*%
%ADD13O,1.700000X1.700000*%
%TD*%
%TA.AperFunction,SMDPad,CuDef*%
%ADD14RoundRect,0.243750X-0.456250X0.243750X-0.456250X-0.243750X0.456250X-0.243750X0.456250X0.243750X0*%
%TD*%
%TA.AperFunction,ComponentPad*%
%ADD15RoundRect,0.250000X0.600000X-0.600000X0.600000X0.600000X-0.600000X0.600000X-0.600000X-0.600000X0*%
%TD*%
%TA.AperFunction,ComponentPad*%
%ADD16C,1.700000*%
%TD*%
%TA.AperFunction,SMDPad,CuDef*%
%ADD17RoundRect,0.250000X-0.262500X-0.450000X0.262500X-0.450000X0.262500X0.450000X-0.262500X0.450000X0*%
%TD*%
%TA.AperFunction,SMDPad,CuDef*%
%ADD18RoundRect,0.250000X-0.475000X0.250000X-0.475000X-0.250000X0.475000X-0.250000X0.475000X0.250000X0*%
%TD*%
%TA.AperFunction,SMDPad,CuDef*%
%ADD19RoundRect,0.250000X0.450000X-0.262500X0.450000X0.262500X-0.450000X0.262500X-0.450000X-0.262500X0*%
%TD*%
%TA.AperFunction,SMDPad,CuDef*%
%ADD20R,2.200000X1.500000*%
%TD*%
%TA.AperFunction,ComponentPad*%
%ADD21C,1.500000*%
%TD*%
%TA.AperFunction,SMDPad,CuDef*%
%ADD22R,1.400000X1.200000*%
%TD*%
%TA.AperFunction,SMDPad,CuDef*%
%ADD23R,1.400000X1.600000*%
%TD*%
%TA.AperFunction,SMDPad,CuDef*%
%ADD24R,1.200000X0.700000*%
%TD*%
%TA.AperFunction,ViaPad*%
%ADD25C,0.800000*%
%TD*%
%TA.AperFunction,Conductor*%
%ADD26C,0.250000*%
%TD*%
G04 APERTURE END LIST*
D10*
%TO.P,BOARD1,3V3,3V3*%
%TO.N,VCC*%
X104255000Y-122875000D03*
%TO.P,BOARD1,D1,D1*%
%TO.N,unconnected-(BOARD1-PadD1)*%
X134735000Y-122875000D03*
%TO.P,BOARD1,D2,D2*%
%TO.N,/Card_Detect*%
X111875000Y-122875000D03*
%TO.P,BOARD1,D3,D3*%
%TO.N,unconnected-(BOARD1-PadD3)*%
X132195000Y-122875000D03*
%TO.P,BOARD1,D4,D4*%
%TO.N,unconnected-(BOARD1-PadD4)*%
X114415000Y-122875000D03*
%TO.P,BOARD1,D5,D5*%
%TO.N,/SD_CS{slash}CS*%
X122035000Y-122875000D03*
%TO.P,BOARD1,D12,D12*%
%TO.N,Net-(BOARD1-PadD12)*%
X111875000Y-97475000D03*
%TO.P,BOARD1,D13,D13*%
%TO.N,Net-(BOARD1-PadD13)*%
X109335000Y-97475000D03*
%TO.P,BOARD1,D14,D14*%
%TO.N,Net-(BOARD1-PadD14)*%
X114415000Y-97475000D03*
%TO.P,BOARD1,D15,D15*%
%TO.N,/BT_UP*%
X109335000Y-122875000D03*
%TO.P,BOARD1,D16,D16*%
%TO.N,/BT_DOWN*%
X116955000Y-122875000D03*
%TO.P,BOARD1,D17,D17*%
%TO.N,/BT_ENTER*%
X119495000Y-122875000D03*
%TO.P,BOARD1,D18,D18*%
%TO.N,/SD_CLK{slash}CLK*%
X124575000Y-122875000D03*
%TO.P,BOARD1,D19,D19*%
%TO.N,/SD_DO{slash}MISO*%
X127115000Y-122875000D03*
%TO.P,BOARD1,D21,D21*%
%TO.N,/SDA*%
X129655000Y-122875000D03*
%TO.P,BOARD1,D22,D22*%
%TO.N,/SCL*%
X137275000Y-122875000D03*
%TO.P,BOARD1,D23,D23*%
%TO.N,/SD_DI{slash}MOSI*%
X139815000Y-122875000D03*
%TO.P,BOARD1,D25,D25*%
%TO.N,/xWRITE*%
X122035000Y-97475000D03*
%TO.P,BOARD1,D26,D26*%
%TO.N,/xDRIVE_EN*%
X119495000Y-97475000D03*
%TO.P,BOARD1,D27,D27*%
%TO.N,/xW_REQUEST*%
X116955000Y-97475000D03*
%TO.P,BOARD1,D32,D32*%
%TO.N,/xSTEP 2*%
X127115000Y-97475000D03*
%TO.P,BOARD1,D33,D33*%
%TO.N,/xSTEP 3*%
X124575000Y-97475000D03*
%TO.P,BOARD1,D34,D34*%
%TO.N,/xSTEP 0*%
X132195000Y-97475000D03*
%TO.P,BOARD1,D35,D35*%
%TO.N,/xSTEP 1*%
X129655000Y-97475000D03*
%TO.P,BOARD1,EN,EN*%
%TO.N,unconnected-(BOARD1-PadEN)*%
X139815000Y-97475000D03*
%TO.P,BOARD1,GND,GND*%
%TO.N,GND*%
X106795000Y-97475000D03*
%TO.P,BOARD1,GND@1,GND@1*%
X106795000Y-122875000D03*
%TO.P,BOARD1,VIN,VIN*%
%TO.N,+5V*%
X104255000Y-97475000D03*
%TO.P,BOARD1,VN,VN*%
%TO.N,unconnected-(BOARD1-PadVN)*%
X134735000Y-97475000D03*
%TO.P,BOARD1,VP,VP*%
%TO.N,unconnected-(BOARD1-PadVP)*%
X137275000Y-97475000D03*
%TD*%
D11*
%TO.P,R2,1*%
%TO.N,VCC*%
X113942500Y-119380000D03*
%TO.P,R2,2*%
%TO.N,/Card_Detect*%
X112117500Y-119380000D03*
%TD*%
D12*
%TO.P,U3,1,GND*%
%TO.N,GND*%
X151775984Y-101695000D03*
D13*
%TO.P,U3,2,I/O*%
%TO.N,/BT_DOWN*%
X151775984Y-104235000D03*
%TO.P,U3,3,VCC*%
%TO.N,VCC*%
X151775984Y-106775000D03*
%TD*%
D14*
%TO.P,D1,1,K*%
%TO.N,GND*%
X144780000Y-87962500D03*
%TO.P,D1,2,A*%
%TO.N,Net-(D1-Pad2)*%
X144780000Y-89837500D03*
%TD*%
D15*
%TO.P,J1,1,Pin_1*%
%TO.N,GND*%
X134620000Y-78625000D03*
D16*
%TO.P,J1,2,Pin_2*%
%TO.N,/STEP 0*%
X134620000Y-76085000D03*
%TO.P,J1,3,Pin_3*%
%TO.N,unconnected-(J1-Pad3)*%
X132080000Y-78625000D03*
%TO.P,J1,4,Pin_4*%
%TO.N,/STEP 1*%
X132080000Y-76085000D03*
%TO.P,J1,5,Pin_5*%
%TO.N,unconnected-(J1-Pad5)*%
X129540000Y-78625000D03*
%TO.P,J1,6,Pin_6*%
%TO.N,/STEP 2*%
X129540000Y-76085000D03*
%TO.P,J1,7,Pin_7*%
%TO.N,unconnected-(J1-Pad7)*%
X127000000Y-78625000D03*
%TO.P,J1,8,Pin_8*%
%TO.N,/STEP 3*%
X127000000Y-76085000D03*
%TO.P,J1,9,Pin_9*%
%TO.N,unconnected-(J1-Pad9)*%
X124460000Y-78625000D03*
%TO.P,J1,10,Pin_10*%
%TO.N,/W_REQUEST*%
X124460000Y-76085000D03*
%TO.P,J1,11,Pin_11*%
%TO.N,unconnected-(J1-Pad11)*%
X121920000Y-78625000D03*
%TO.P,J1,12,Pin_12*%
%TO.N,+5V*%
X121920000Y-76085000D03*
%TO.P,J1,13,Pin_13*%
%TO.N,unconnected-(J1-Pad13)*%
X119380000Y-78625000D03*
%TO.P,J1,14,Pin_14*%
%TO.N,/DRIVE_EN*%
X119380000Y-76085000D03*
%TO.P,J1,15,Pin_15*%
%TO.N,unconnected-(J1-Pad15)*%
X116840000Y-78625000D03*
%TO.P,J1,16,Pin_16*%
%TO.N,/RD_PLUSE*%
X116840000Y-76085000D03*
%TO.P,J1,17,Pin_17*%
%TO.N,unconnected-(J1-Pad17)*%
X114300000Y-78625000D03*
%TO.P,J1,18,Pin_18*%
%TO.N,/WRITE*%
X114300000Y-76085000D03*
%TO.P,J1,19,Pin_19*%
%TO.N,unconnected-(J1-Pad19)*%
X111760000Y-78625000D03*
%TO.P,J1,20,Pin_20*%
%TO.N,/W_PROTECT*%
X111760000Y-76085000D03*
%TD*%
D17*
%TO.P,R3,1*%
%TO.N,VCC*%
X114657500Y-93980000D03*
%TO.P,R3,2*%
%TO.N,/xW_REQUEST*%
X116482500Y-93980000D03*
%TD*%
D18*
%TO.P,C1,1*%
%TO.N,VCC*%
X107950000Y-85410000D03*
%TO.P,C1,2*%
%TO.N,GND*%
X107950000Y-87310000D03*
%TD*%
D12*
%TO.P,OLED,1,VCC*%
%TO.N,VCC*%
X145365591Y-104045000D03*
D13*
%TO.P,OLED,2,GND*%
%TO.N,GND*%
X145365591Y-101505000D03*
%TO.P,OLED,3,SCL*%
%TO.N,/SCL*%
X145365591Y-98965000D03*
%TO.P,OLED,4,SDA*%
%TO.N,/SDA*%
X145365591Y-96425000D03*
%TD*%
D12*
%TO.P,U1,1,GND*%
%TO.N,GND*%
X151775984Y-82645000D03*
D13*
%TO.P,U1,2,I/O*%
%TO.N,/BT_UP*%
X151775984Y-85185000D03*
%TO.P,U1,3,VCC*%
%TO.N,VCC*%
X151775984Y-87725000D03*
%TD*%
D19*
%TO.P,R1,1*%
%TO.N,Net-(BOARD1-PadD13)*%
X144780000Y-93622500D03*
%TO.P,R1,2*%
%TO.N,Net-(D1-Pad2)*%
X144780000Y-91797500D03*
%TD*%
D20*
%TO.P,J2,*%
%TO.N,*%
X99930000Y-100200000D03*
X99930000Y-115700000D03*
D21*
X99330000Y-104900000D03*
X99330000Y-112880000D03*
D22*
X109730000Y-115850000D03*
D23*
X109730000Y-101100000D03*
D24*
%TO.P,J2,1,DAT2*%
%TO.N,unconnected-(J2-Pad1)*%
X110490000Y-105700000D03*
%TO.P,J2,2,DAT3/CD*%
%TO.N,/SD_CS{slash}CS*%
X110490000Y-106850000D03*
%TO.P,J2,3,CMD*%
%TO.N,/SD_DI{slash}MOSI*%
X110490000Y-107950000D03*
%TO.P,J2,4,VDD*%
%TO.N,VCC*%
X110490000Y-109050000D03*
%TO.P,J2,5,CLK*%
%TO.N,/SD_CLK{slash}CLK*%
X110490000Y-110200000D03*
%TO.P,J2,6,VSS*%
%TO.N,GND*%
X110490000Y-111300000D03*
%TO.P,J2,7,DAT0*%
%TO.N,/SD_DO{slash}MISO*%
X110490000Y-112400000D03*
%TO.P,J2,8,DAT1*%
%TO.N,unconnected-(J2-Pad8)*%
X110490000Y-113500000D03*
%TO.P,J2,9,Card_Detect*%
%TO.N,/Card_Detect*%
X110490000Y-114600000D03*
%TD*%
D12*
%TO.P,U4,1,GND*%
%TO.N,GND*%
X151775984Y-118205000D03*
D13*
%TO.P,U4,2,I/O*%
%TO.N,/BT_ENTER*%
X151775984Y-120745000D03*
%TO.P,U4,3,VCC*%
%TO.N,VCC*%
X151775984Y-123285000D03*
%TD*%
D25*
%TO.N,VCC*%
X138430000Y-118187734D03*
X112487708Y-85779827D03*
X108847174Y-90179968D03*
X112232215Y-109061612D03*
X112736697Y-111278983D03*
X142240000Y-118110000D03*
X136029560Y-92189638D03*
%TO.N,GND*%
X116840000Y-82550000D03*
X119380000Y-82550000D03*
X122474254Y-85285384D03*
X140318053Y-80765620D03*
X135527142Y-80747676D03*
%TO.N,/DRIVE_EN*%
X113384894Y-88817868D03*
X119406518Y-90196518D03*
%TO.N,/WRITE*%
X126379952Y-80845368D03*
%TO.N,/SD_CS{slash}CS*%
X107998666Y-106994049D03*
%TO.N,/SD_DO{slash}MISO*%
X114300000Y-113030000D03*
%TD*%
D26*
%TO.N,/xW_REQUEST*%
X116482500Y-93980000D02*
X116955000Y-94452500D01*
X116955000Y-94452500D02*
X116955000Y-97475000D01*
%TO.N,VCC*%
X112232215Y-109061612D02*
X110501612Y-109061612D01*
X110501612Y-109061612D02*
X110490000Y-109050000D01*
%TO.N,GND*%
X130989434Y-85285384D02*
X122474254Y-85285384D01*
X147225000Y-82645000D02*
X144780000Y-85090000D01*
X119738870Y-82550000D02*
X122474254Y-85285384D01*
X140300109Y-80747676D02*
X140318053Y-80765620D01*
X116840000Y-82550000D02*
X118110000Y-82550000D01*
X135527142Y-80747676D02*
X130989434Y-85285384D01*
X144780000Y-85090000D02*
X144780000Y-87962500D01*
X135527142Y-80747676D02*
X140300109Y-80747676D01*
X106795000Y-114145000D02*
X106795000Y-122875000D01*
X151775984Y-82645000D02*
X147225000Y-82645000D01*
X118110000Y-82550000D02*
X119380000Y-82550000D01*
X118110000Y-82550000D02*
X113350000Y-87310000D01*
X119380000Y-82550000D02*
X119738870Y-82550000D01*
X110490000Y-111300000D02*
X109640000Y-111300000D01*
X113350000Y-87310000D02*
X107950000Y-87310000D01*
X109640000Y-111300000D02*
X106795000Y-114145000D01*
%TO.N,Net-(D1-Pad2)*%
X144780000Y-89837500D02*
X144780000Y-91797500D01*
%TO.N,/DRIVE_EN*%
X119406518Y-90196518D02*
X114763544Y-90196518D01*
X114763544Y-90196518D02*
X113384894Y-88817868D01*
%TO.N,/WRITE*%
X114300000Y-76085000D02*
X115570000Y-77355000D01*
X115570000Y-77355000D02*
X115570000Y-79617237D01*
X116798131Y-80845368D02*
X126379952Y-80845368D01*
X115570000Y-79617237D02*
X116798131Y-80845368D01*
%TO.N,VCC*%
X113942500Y-93980000D02*
X115570000Y-93980000D01*
%TO.N,/BT_UP*%
X109335000Y-124575000D02*
X113030000Y-128270000D01*
X154845000Y-85185000D02*
X151775984Y-85185000D01*
X157480000Y-87630000D02*
X154940000Y-85090000D01*
X109335000Y-122875000D02*
X109335000Y-124575000D01*
X153670000Y-128270000D02*
X157480000Y-124460000D01*
X154940000Y-85090000D02*
X154845000Y-85185000D01*
X157480000Y-124460000D02*
X157480000Y-87630000D01*
X113030000Y-128270000D02*
X153670000Y-128270000D01*
%TO.N,/BT_DOWN*%
X152400000Y-127000000D02*
X154940000Y-124460000D01*
X154940000Y-105410000D02*
X153765000Y-104235000D01*
X116955000Y-122875000D02*
X116955000Y-124360000D01*
X153765000Y-104235000D02*
X151775984Y-104235000D01*
X116955000Y-124360000D02*
X119595000Y-127000000D01*
X119595000Y-127000000D02*
X152400000Y-127000000D01*
X154940000Y-124460000D02*
X154940000Y-105410000D01*
%TO.N,/BT_ENTER*%
X119495000Y-124575000D02*
X120650000Y-125730000D01*
X148495000Y-120745000D02*
X151775984Y-120745000D01*
X119495000Y-122875000D02*
X119495000Y-124575000D01*
X143510000Y-125730000D02*
X148495000Y-120745000D01*
X120650000Y-125730000D02*
X143510000Y-125730000D01*
%TO.N,/SD_CS{slash}CS*%
X107998666Y-106994049D02*
X108142715Y-106850000D01*
X108142715Y-106850000D02*
X110490000Y-106850000D01*
%TO.N,/SD_DI{slash}MOSI*%
X110490000Y-107950000D02*
X132080000Y-107950000D01*
X132080000Y-107950000D02*
X139815000Y-115685000D01*
X139815000Y-115685000D02*
X139815000Y-122875000D01*
%TO.N,/SD_CLK{slash}CLK*%
X110490000Y-110200000D02*
X114010000Y-110200000D01*
X114010000Y-110200000D02*
X124575000Y-120765000D01*
X124575000Y-120765000D02*
X124575000Y-122875000D01*
%TO.N,/SD_DO{slash}MISO*%
X110490000Y-112400000D02*
X113670000Y-112400000D01*
X113670000Y-112400000D02*
X114300000Y-113030000D01*
%TO.N,/Card_Detect*%
X111875000Y-119622500D02*
X111875000Y-122875000D01*
X112117500Y-116227500D02*
X112117500Y-119380000D01*
X110490000Y-114600000D02*
X112117500Y-116227500D01*
%TO.N,Net-(BOARD1-PadD13)*%
X142240000Y-95250000D02*
X142240000Y-99060000D01*
X143867500Y-93622500D02*
X142240000Y-95250000D01*
X144780000Y-93622500D02*
X143867500Y-93622500D01*
X137963643Y-103336357D02*
X107656707Y-103336357D01*
X106810032Y-100557793D02*
X109335000Y-98032825D01*
X142240000Y-99060000D02*
X137963643Y-103336357D01*
X107656707Y-103336357D02*
X106810032Y-102489682D01*
X106810032Y-102489682D02*
X106810032Y-100557793D01*
%TD*%
%TA.AperFunction,Conductor*%
%TO.N,VCC*%
G36*
X165811500Y-72933160D02*
G01*
X165857993Y-72986816D01*
X165869379Y-73039158D01*
X165869379Y-132731158D01*
X165849377Y-132799279D01*
X165795721Y-132845772D01*
X165743379Y-132857158D01*
X94621379Y-132857158D01*
X94553258Y-132837156D01*
X94506765Y-132783500D01*
X94495379Y-132731158D01*
X94495379Y-129929733D01*
X96487822Y-129929733D01*
X96487975Y-129934121D01*
X96487975Y-129934127D01*
X96496082Y-130166259D01*
X96497625Y-130210458D01*
X96498387Y-130214781D01*
X96498388Y-130214788D01*
X96522164Y-130349624D01*
X96546402Y-130487087D01*
X96633203Y-130754235D01*
X96635131Y-130758188D01*
X96635133Y-130758193D01*
X96690313Y-130871328D01*
X96756340Y-131006702D01*
X96758795Y-131010341D01*
X96758798Y-131010347D01*
X96805308Y-131079300D01*
X96913415Y-131239576D01*
X97101371Y-131448322D01*
X97104733Y-131451143D01*
X97104734Y-131451144D01*
X97133652Y-131475409D01*
X97316550Y-131628879D01*
X97554764Y-131777731D01*
X97811375Y-131891982D01*
X98081390Y-131969407D01*
X98085740Y-131970018D01*
X98085743Y-131970019D01*
X98188690Y-131984487D01*
X98359552Y-132008500D01*
X98570146Y-132008500D01*
X98572332Y-132008347D01*
X98572336Y-132008347D01*
X98775827Y-131994118D01*
X98775832Y-131994117D01*
X98780212Y-131993811D01*
X99054970Y-131935409D01*
X99059099Y-131933906D01*
X99059103Y-131933905D01*
X99314781Y-131840846D01*
X99314785Y-131840844D01*
X99318926Y-131839337D01*
X99566942Y-131707464D01*
X99671896Y-131631211D01*
X99790629Y-131544947D01*
X99790632Y-131544944D01*
X99794192Y-131542358D01*
X99996252Y-131347231D01*
X100169188Y-131125882D01*
X100171384Y-131122078D01*
X100171389Y-131122071D01*
X100307435Y-130886431D01*
X100309636Y-130882619D01*
X100414862Y-130622176D01*
X100448544Y-130487087D01*
X100481753Y-130353893D01*
X100481754Y-130353888D01*
X100482817Y-130349624D01*
X100488639Y-130294235D01*
X100511719Y-130074636D01*
X100511719Y-130074633D01*
X100512178Y-130070267D01*
X100510816Y-130031265D01*
X100502529Y-129793939D01*
X100502528Y-129793933D01*
X100502375Y-129789542D01*
X100495484Y-129750458D01*
X100454360Y-129517236D01*
X100453598Y-129512913D01*
X100439568Y-129469733D01*
X160547822Y-129469733D01*
X160547975Y-129474121D01*
X160547975Y-129474127D01*
X160554283Y-129654749D01*
X160557625Y-129750458D01*
X160558387Y-129754781D01*
X160558388Y-129754788D01*
X160582164Y-129889624D01*
X160606402Y-130027087D01*
X160693203Y-130294235D01*
X160816340Y-130546702D01*
X160818795Y-130550341D01*
X160818798Y-130550347D01*
X160864364Y-130617901D01*
X160973415Y-130779576D01*
X161161371Y-130988322D01*
X161164733Y-130991143D01*
X161164734Y-130991144D01*
X161183275Y-131006702D01*
X161376550Y-131168879D01*
X161614764Y-131317731D01*
X161871375Y-131431982D01*
X162141390Y-131509407D01*
X162145740Y-131510018D01*
X162145743Y-131510019D01*
X162248690Y-131524487D01*
X162419552Y-131548500D01*
X162630146Y-131548500D01*
X162632332Y-131548347D01*
X162632336Y-131548347D01*
X162835827Y-131534118D01*
X162835832Y-131534117D01*
X162840212Y-131533811D01*
X163114970Y-131475409D01*
X163119099Y-131473906D01*
X163119103Y-131473905D01*
X163374781Y-131380846D01*
X163374785Y-131380844D01*
X163378926Y-131379337D01*
X163626942Y-131247464D01*
X163630503Y-131244877D01*
X163850629Y-131084947D01*
X163850632Y-131084944D01*
X163854192Y-131082358D01*
X164056252Y-130887231D01*
X164229188Y-130665882D01*
X164231384Y-130662078D01*
X164231389Y-130662071D01*
X164367435Y-130426431D01*
X164369636Y-130422619D01*
X164474862Y-130162176D01*
X164508544Y-130027087D01*
X164541753Y-129893893D01*
X164541754Y-129893888D01*
X164542817Y-129889624D01*
X164567963Y-129650376D01*
X164571719Y-129614636D01*
X164571719Y-129614633D01*
X164572178Y-129610267D01*
X164572025Y-129605873D01*
X164562529Y-129333939D01*
X164562528Y-129333933D01*
X164562375Y-129329542D01*
X164538608Y-129194749D01*
X164514360Y-129057236D01*
X164513598Y-129052913D01*
X164426797Y-128785765D01*
X164424551Y-128781159D01*
X164360440Y-128649713D01*
X164303660Y-128533298D01*
X164301205Y-128529659D01*
X164301202Y-128529653D01*
X164196178Y-128373949D01*
X164146585Y-128300424D01*
X163958629Y-128091678D01*
X163928141Y-128066095D01*
X163856747Y-128006189D01*
X163743450Y-127911121D01*
X163505236Y-127762269D01*
X163248625Y-127648018D01*
X162978610Y-127570593D01*
X162974260Y-127569982D01*
X162974257Y-127569981D01*
X162829336Y-127549614D01*
X162700448Y-127531500D01*
X162489854Y-127531500D01*
X162487668Y-127531653D01*
X162487664Y-127531653D01*
X162284173Y-127545882D01*
X162284168Y-127545883D01*
X162279788Y-127546189D01*
X162005030Y-127604591D01*
X162000901Y-127606094D01*
X162000897Y-127606095D01*
X161745219Y-127699154D01*
X161745215Y-127699156D01*
X161741074Y-127700663D01*
X161493058Y-127832536D01*
X161489499Y-127835122D01*
X161489497Y-127835123D01*
X161274262Y-127991500D01*
X161265808Y-127997642D01*
X161063748Y-128192769D01*
X160890812Y-128414118D01*
X160888616Y-128417922D01*
X160888611Y-128417929D01*
X160809508Y-128554940D01*
X160750364Y-128657381D01*
X160645138Y-128917824D01*
X160644073Y-128922097D01*
X160644072Y-128922099D01*
X160595383Y-129117381D01*
X160577183Y-129190376D01*
X160576724Y-129194744D01*
X160576723Y-129194749D01*
X160548281Y-129465364D01*
X160547822Y-129469733D01*
X100439568Y-129469733D01*
X100366797Y-129245765D01*
X100243660Y-128993298D01*
X100241205Y-128989659D01*
X100241202Y-128989653D01*
X100144109Y-128845707D01*
X100086585Y-128760424D01*
X100016371Y-128682443D01*
X99901566Y-128554940D01*
X99898629Y-128551678D01*
X99881435Y-128537250D01*
X99686820Y-128373949D01*
X99683450Y-128371121D01*
X99445236Y-128222269D01*
X99188625Y-128108018D01*
X98918610Y-128030593D01*
X98914260Y-128029982D01*
X98914257Y-128029981D01*
X98811310Y-128015513D01*
X98640448Y-127991500D01*
X98429854Y-127991500D01*
X98427668Y-127991653D01*
X98427664Y-127991653D01*
X98224173Y-128005882D01*
X98224168Y-128005883D01*
X98219788Y-128006189D01*
X97945030Y-128064591D01*
X97940901Y-128066094D01*
X97940897Y-128066095D01*
X97685219Y-128159154D01*
X97685215Y-128159156D01*
X97681074Y-128160663D01*
X97433058Y-128292536D01*
X97429499Y-128295122D01*
X97429497Y-128295123D01*
X97260469Y-128417929D01*
X97205808Y-128457642D01*
X97003748Y-128652769D01*
X96888662Y-128800073D01*
X96834022Y-128870010D01*
X96830812Y-128874118D01*
X96828616Y-128877922D01*
X96828611Y-128877929D01*
X96729997Y-129048735D01*
X96690364Y-129117381D01*
X96585138Y-129377824D01*
X96584073Y-129382097D01*
X96584072Y-129382099D01*
X96550379Y-129517236D01*
X96517183Y-129650376D01*
X96516724Y-129654744D01*
X96516723Y-129654749D01*
X96491589Y-129893893D01*
X96487822Y-129929733D01*
X94495379Y-129929733D01*
X94495379Y-124084661D01*
X103410582Y-124084661D01*
X103414561Y-124090265D01*
X103611809Y-124205526D01*
X103621096Y-124209976D01*
X103837751Y-124292708D01*
X103847649Y-124295584D01*
X104074908Y-124341820D01*
X104085136Y-124343039D01*
X104316894Y-124351538D01*
X104327180Y-124351071D01*
X104557217Y-124321603D01*
X104567295Y-124319461D01*
X104789426Y-124252818D01*
X104799024Y-124249056D01*
X105007289Y-124147029D01*
X105016134Y-124141756D01*
X105086843Y-124091319D01*
X105095243Y-124080620D01*
X105088256Y-124067466D01*
X104267812Y-123247022D01*
X104253868Y-123239408D01*
X104252035Y-123239539D01*
X104245420Y-123243790D01*
X103417840Y-124071370D01*
X103410582Y-124084661D01*
X94495379Y-124084661D01*
X94495379Y-122844039D01*
X102777489Y-122844039D01*
X102790839Y-123075563D01*
X102792275Y-123085784D01*
X102843259Y-123312015D01*
X102846338Y-123321843D01*
X102933589Y-123536714D01*
X102938242Y-123545925D01*
X103037682Y-123708195D01*
X103048140Y-123717657D01*
X103056916Y-123713874D01*
X103882978Y-122887812D01*
X103890592Y-122873868D01*
X103890461Y-122872035D01*
X103886210Y-122865420D01*
X103061945Y-122041155D01*
X103050409Y-122034855D01*
X103038126Y-122044479D01*
X102972589Y-122140552D01*
X102967491Y-122149526D01*
X102869853Y-122359868D01*
X102866290Y-122369555D01*
X102804317Y-122593020D01*
X102802386Y-122603141D01*
X102777740Y-122833751D01*
X102777489Y-122844039D01*
X94495379Y-122844039D01*
X94495379Y-121669142D01*
X103413938Y-121669142D01*
X103420683Y-121681473D01*
X104242188Y-122502978D01*
X104256132Y-122510592D01*
X104257965Y-122510461D01*
X104264580Y-122506210D01*
X105090413Y-121680377D01*
X105097434Y-121667521D01*
X105089661Y-121656853D01*
X105077105Y-121646936D01*
X105068532Y-121641240D01*
X104865492Y-121529156D01*
X104856095Y-121524933D01*
X104637487Y-121447520D01*
X104627516Y-121444886D01*
X104399206Y-121404219D01*
X104388952Y-121403249D01*
X104157053Y-121400415D01*
X104146768Y-121401135D01*
X103917531Y-121436213D01*
X103907504Y-121438602D01*
X103687073Y-121510650D01*
X103677564Y-121514647D01*
X103471865Y-121621727D01*
X103463140Y-121627221D01*
X103422391Y-121657817D01*
X103413938Y-121669142D01*
X94495379Y-121669142D01*
X94495379Y-116498134D01*
X98321500Y-116498134D01*
X98328255Y-116560316D01*
X98379385Y-116696705D01*
X98466739Y-116813261D01*
X98583295Y-116900615D01*
X98719684Y-116951745D01*
X98781866Y-116958500D01*
X101078134Y-116958500D01*
X101140316Y-116951745D01*
X101276705Y-116900615D01*
X101393261Y-116813261D01*
X101480615Y-116696705D01*
X101531745Y-116560316D01*
X101538500Y-116498134D01*
X101538500Y-114901866D01*
X101531745Y-114839684D01*
X101480615Y-114703295D01*
X101393261Y-114586739D01*
X101276705Y-114499385D01*
X101140316Y-114448255D01*
X101078134Y-114441500D01*
X98781866Y-114441500D01*
X98719684Y-114448255D01*
X98583295Y-114499385D01*
X98466739Y-114586739D01*
X98379385Y-114703295D01*
X98328255Y-114839684D01*
X98321500Y-114901866D01*
X98321500Y-116498134D01*
X94495379Y-116498134D01*
X94495379Y-112880000D01*
X98066693Y-112880000D01*
X98085885Y-113099371D01*
X98142880Y-113312076D01*
X98145205Y-113317061D01*
X98233618Y-113506666D01*
X98233621Y-113506671D01*
X98235944Y-113511653D01*
X98362251Y-113692038D01*
X98517962Y-113847749D01*
X98698346Y-113974056D01*
X98897924Y-114067120D01*
X99110629Y-114124115D01*
X99330000Y-114143307D01*
X99549371Y-114124115D01*
X99762076Y-114067120D01*
X99961654Y-113974056D01*
X100142038Y-113847749D01*
X100297749Y-113692038D01*
X100424056Y-113511653D01*
X100426379Y-113506671D01*
X100426382Y-113506666D01*
X100514795Y-113317061D01*
X100517120Y-113312076D01*
X100574115Y-113099371D01*
X100593307Y-112880000D01*
X100574115Y-112660629D01*
X100517120Y-112447924D01*
X100471726Y-112350576D01*
X100426382Y-112253334D01*
X100426379Y-112253329D01*
X100424056Y-112248347D01*
X100417429Y-112238882D01*
X100300908Y-112072473D01*
X100300906Y-112072470D01*
X100297749Y-112067962D01*
X100142038Y-111912251D01*
X100108606Y-111888841D01*
X99983537Y-111801267D01*
X99961654Y-111785944D01*
X99762076Y-111692880D01*
X99549371Y-111635885D01*
X99330000Y-111616693D01*
X99110629Y-111635885D01*
X98897924Y-111692880D01*
X98804562Y-111736415D01*
X98703334Y-111783618D01*
X98703329Y-111783621D01*
X98698347Y-111785944D01*
X98693840Y-111789100D01*
X98693838Y-111789101D01*
X98522473Y-111909092D01*
X98522470Y-111909094D01*
X98517962Y-111912251D01*
X98362251Y-112067962D01*
X98359094Y-112072470D01*
X98359092Y-112072473D01*
X98242571Y-112238882D01*
X98235944Y-112248347D01*
X98233621Y-112253329D01*
X98233618Y-112253334D01*
X98188274Y-112350576D01*
X98142880Y-112447924D01*
X98085885Y-112660629D01*
X98066693Y-112880000D01*
X94495379Y-112880000D01*
X94495379Y-104900000D01*
X98066693Y-104900000D01*
X98085885Y-105119371D01*
X98142880Y-105332076D01*
X98175779Y-105402629D01*
X98233618Y-105526666D01*
X98233621Y-105526671D01*
X98235944Y-105531653D01*
X98239100Y-105536160D01*
X98239101Y-105536162D01*
X98352291Y-105697813D01*
X98362251Y-105712038D01*
X98517962Y-105867749D01*
X98698346Y-105994056D01*
X98897924Y-106087120D01*
X99110629Y-106144115D01*
X99330000Y-106163307D01*
X99549371Y-106144115D01*
X99762076Y-106087120D01*
X99961654Y-105994056D01*
X100142038Y-105867749D01*
X100297749Y-105712038D01*
X100307710Y-105697813D01*
X100420899Y-105536162D01*
X100420900Y-105536160D01*
X100424056Y-105531653D01*
X100426379Y-105526671D01*
X100426382Y-105526666D01*
X100484221Y-105402629D01*
X100517120Y-105332076D01*
X100574115Y-105119371D01*
X100593307Y-104900000D01*
X100574115Y-104680629D01*
X100517120Y-104467924D01*
X100446797Y-104317115D01*
X100426382Y-104273334D01*
X100426379Y-104273329D01*
X100424056Y-104268347D01*
X100297749Y-104087962D01*
X100142038Y-103932251D01*
X100133444Y-103926233D01*
X100042714Y-103862703D01*
X99961654Y-103805944D01*
X99762076Y-103712880D01*
X99549371Y-103655885D01*
X99330000Y-103636693D01*
X99110629Y-103655885D01*
X98897924Y-103712880D01*
X98820893Y-103748800D01*
X98703334Y-103803618D01*
X98703329Y-103803621D01*
X98698347Y-103805944D01*
X98693840Y-103809100D01*
X98693838Y-103809101D01*
X98522473Y-103929092D01*
X98522470Y-103929094D01*
X98517962Y-103932251D01*
X98362251Y-104087962D01*
X98235944Y-104268347D01*
X98233621Y-104273329D01*
X98233618Y-104273334D01*
X98213203Y-104317115D01*
X98142880Y-104467924D01*
X98085885Y-104680629D01*
X98066693Y-104900000D01*
X94495379Y-104900000D01*
X94495379Y-100998134D01*
X98321500Y-100998134D01*
X98328255Y-101060316D01*
X98379385Y-101196705D01*
X98466739Y-101313261D01*
X98583295Y-101400615D01*
X98719684Y-101451745D01*
X98781866Y-101458500D01*
X101078134Y-101458500D01*
X101140316Y-101451745D01*
X101276705Y-101400615D01*
X101393261Y-101313261D01*
X101480615Y-101196705D01*
X101531745Y-101060316D01*
X101538500Y-100998134D01*
X101538500Y-99401866D01*
X101531745Y-99339684D01*
X101480615Y-99203295D01*
X101393261Y-99086739D01*
X101276705Y-98999385D01*
X101140316Y-98948255D01*
X101078134Y-98941500D01*
X98781866Y-98941500D01*
X98719684Y-98948255D01*
X98583295Y-98999385D01*
X98466739Y-99086739D01*
X98379385Y-99203295D01*
X98328255Y-99339684D01*
X98321500Y-99401866D01*
X98321500Y-100998134D01*
X94495379Y-100998134D01*
X94495379Y-97438871D01*
X102776690Y-97438871D01*
X102790640Y-97680802D01*
X102791777Y-97685848D01*
X102791778Y-97685854D01*
X102824894Y-97832800D01*
X102843916Y-97917207D01*
X102845858Y-97921989D01*
X102845859Y-97921993D01*
X102919522Y-98103401D01*
X102935088Y-98141736D01*
X103061707Y-98348359D01*
X103220372Y-98531527D01*
X103406823Y-98686322D01*
X103616053Y-98808586D01*
X103620873Y-98810426D01*
X103620878Y-98810429D01*
X103729220Y-98851800D01*
X103842442Y-98895035D01*
X103847510Y-98896066D01*
X103847513Y-98896067D01*
X103964780Y-98919925D01*
X104079910Y-98943349D01*
X104085085Y-98943539D01*
X104085087Y-98943539D01*
X104316917Y-98952040D01*
X104316921Y-98952040D01*
X104322081Y-98952229D01*
X104327201Y-98951573D01*
X104327203Y-98951573D01*
X104405834Y-98941500D01*
X104562450Y-98921437D01*
X104567401Y-98919952D01*
X104567404Y-98919951D01*
X104789612Y-98853285D01*
X104789611Y-98853285D01*
X104794562Y-98851800D01*
X104905206Y-98797596D01*
X105007533Y-98747467D01*
X105007538Y-98747464D01*
X105012184Y-98745188D01*
X105016394Y-98742185D01*
X105016399Y-98742182D01*
X105205259Y-98607469D01*
X105205264Y-98607465D01*
X105209471Y-98604464D01*
X105381126Y-98433408D01*
X105421445Y-98377299D01*
X105477439Y-98333651D01*
X105548142Y-98327205D01*
X105611106Y-98360007D01*
X105619001Y-98368324D01*
X105760372Y-98531527D01*
X105946823Y-98686322D01*
X106156053Y-98808586D01*
X106160873Y-98810426D01*
X106160878Y-98810429D01*
X106269220Y-98851800D01*
X106382442Y-98895035D01*
X106387510Y-98896066D01*
X106387513Y-98896067D01*
X106504780Y-98919925D01*
X106619910Y-98943349D01*
X106625085Y-98943539D01*
X106625087Y-98943539D01*
X106856917Y-98952040D01*
X106856921Y-98952040D01*
X106862081Y-98952229D01*
X106867201Y-98951573D01*
X106867203Y-98951573D01*
X106945834Y-98941500D01*
X107102450Y-98921437D01*
X107263812Y-98873026D01*
X107334806Y-98872609D01*
X107394756Y-98910642D01*
X107424628Y-98975048D01*
X107414937Y-99045380D01*
X107389113Y-99082807D01*
X106417779Y-100054141D01*
X106409493Y-100061681D01*
X106403014Y-100065793D01*
X106397589Y-100071570D01*
X106356389Y-100115444D01*
X106353634Y-100118286D01*
X106333897Y-100138023D01*
X106331417Y-100141220D01*
X106323714Y-100150240D01*
X106293446Y-100182472D01*
X106289627Y-100189418D01*
X106289625Y-100189421D01*
X106283684Y-100200227D01*
X106272833Y-100216746D01*
X106260418Y-100232752D01*
X106257273Y-100240021D01*
X106257270Y-100240025D01*
X106242858Y-100273330D01*
X106237641Y-100283980D01*
X106216337Y-100322733D01*
X106214366Y-100330408D01*
X106214366Y-100330409D01*
X106211299Y-100342355D01*
X106204895Y-100361059D01*
X106196851Y-100379648D01*
X106195612Y-100387471D01*
X106195609Y-100387481D01*
X106189933Y-100423317D01*
X106187527Y-100434937D01*
X106176532Y-100477763D01*
X106176532Y-100498017D01*
X106174981Y-100517727D01*
X106171812Y-100537736D01*
X106172558Y-100545628D01*
X106175973Y-100581754D01*
X106176532Y-100593612D01*
X106176532Y-102410915D01*
X106176005Y-102422098D01*
X106174330Y-102429591D01*
X106174579Y-102437517D01*
X106174579Y-102437518D01*
X106176470Y-102497668D01*
X106176532Y-102501627D01*
X106176532Y-102529538D01*
X106177029Y-102533472D01*
X106177029Y-102533473D01*
X106177037Y-102533538D01*
X106177970Y-102545375D01*
X106179359Y-102589571D01*
X106185010Y-102609021D01*
X106189019Y-102628382D01*
X106191558Y-102648479D01*
X106194477Y-102655850D01*
X106194477Y-102655852D01*
X106207836Y-102689594D01*
X106211681Y-102700824D01*
X106221803Y-102735665D01*
X106224014Y-102743275D01*
X106228047Y-102750094D01*
X106228049Y-102750099D01*
X106234325Y-102760710D01*
X106243020Y-102778458D01*
X106250480Y-102797299D01*
X106255142Y-102803715D01*
X106255142Y-102803716D01*
X106276468Y-102833069D01*
X106282984Y-102842989D01*
X106305490Y-102881044D01*
X106319811Y-102895365D01*
X106332651Y-102910398D01*
X106344560Y-102926789D01*
X106378637Y-102954980D01*
X106387416Y-102962970D01*
X107153050Y-103728604D01*
X107160594Y-103736894D01*
X107164707Y-103743375D01*
X107170484Y-103748800D01*
X107214374Y-103790015D01*
X107217216Y-103792770D01*
X107236937Y-103812491D01*
X107240132Y-103814969D01*
X107249154Y-103822675D01*
X107281386Y-103852943D01*
X107288335Y-103856763D01*
X107299139Y-103862703D01*
X107315663Y-103873556D01*
X107331666Y-103885970D01*
X107372250Y-103903533D01*
X107382880Y-103908740D01*
X107421647Y-103930052D01*
X107429324Y-103932023D01*
X107429329Y-103932025D01*
X107441265Y-103935089D01*
X107459973Y-103941494D01*
X107478562Y-103949538D01*
X107486390Y-103950778D01*
X107486397Y-103950780D01*
X107522231Y-103956456D01*
X107533851Y-103958862D01*
X107565666Y-103967030D01*
X107576677Y-103969857D01*
X107596931Y-103969857D01*
X107616641Y-103971408D01*
X107636650Y-103974577D01*
X107644542Y-103973831D01*
X107663287Y-103972059D01*
X107680669Y-103970416D01*
X107692526Y-103969857D01*
X137884876Y-103969857D01*
X137896059Y-103970384D01*
X137903552Y-103972059D01*
X137911478Y-103971810D01*
X137911479Y-103971810D01*
X137971629Y-103969919D01*
X137975588Y-103969857D01*
X138003499Y-103969857D01*
X138007434Y-103969360D01*
X138007499Y-103969352D01*
X138019336Y-103968419D01*
X138051594Y-103967405D01*
X138055613Y-103967279D01*
X138063532Y-103967030D01*
X138082986Y-103961378D01*
X138102343Y-103957370D01*
X138114573Y-103955825D01*
X138114574Y-103955825D01*
X138122440Y-103954831D01*
X138129811Y-103951912D01*
X138129813Y-103951912D01*
X138163555Y-103938553D01*
X138174785Y-103934708D01*
X138209626Y-103924586D01*
X138209627Y-103924586D01*
X138217236Y-103922375D01*
X138224055Y-103918342D01*
X138224060Y-103918340D01*
X138234671Y-103912064D01*
X138252419Y-103903369D01*
X138271260Y-103895909D01*
X138291630Y-103881110D01*
X138307030Y-103869921D01*
X138316950Y-103863405D01*
X138348178Y-103844937D01*
X138348181Y-103844935D01*
X138355005Y-103840899D01*
X138369326Y-103826578D01*
X138384360Y-103813737D01*
X138386075Y-103812491D01*
X138400750Y-103801829D01*
X138428941Y-103767752D01*
X138436931Y-103758973D01*
X140724210Y-101471695D01*
X144002842Y-101471695D01*
X144003139Y-101476848D01*
X144003139Y-101476851D01*
X144008602Y-101571590D01*
X144015701Y-101694715D01*
X144016838Y-101699761D01*
X144016839Y-101699767D01*
X144036710Y-101787939D01*
X144064813Y-101912639D01*
X144148857Y-102119616D01*
X144151556Y-102124020D01*
X144232483Y-102256081D01*
X144265578Y-102310088D01*
X144411841Y-102478938D01*
X144415816Y-102482238D01*
X144415822Y-102482244D01*
X144421016Y-102486556D01*
X144460650Y-102545460D01*
X144462146Y-102616441D01*
X144425030Y-102676962D01*
X144384759Y-102701480D01*
X144277537Y-102741676D01*
X144261942Y-102750214D01*
X144159867Y-102826715D01*
X144147306Y-102839276D01*
X144070805Y-102941351D01*
X144062267Y-102956946D01*
X144017113Y-103077394D01*
X144013486Y-103092649D01*
X144007960Y-103143514D01*
X144007591Y-103150328D01*
X144007591Y-103772885D01*
X144012066Y-103788124D01*
X144013456Y-103789329D01*
X144021139Y-103791000D01*
X146705475Y-103791000D01*
X146720714Y-103786525D01*
X146721919Y-103785135D01*
X146723590Y-103777452D01*
X146723590Y-103150331D01*
X146723220Y-103143510D01*
X146717696Y-103092648D01*
X146714070Y-103077396D01*
X146668915Y-102956946D01*
X146660377Y-102941351D01*
X146583876Y-102839276D01*
X146571315Y-102826715D01*
X146469240Y-102750214D01*
X146453645Y-102741676D01*
X146343404Y-102700348D01*
X146286640Y-102657706D01*
X146261940Y-102591145D01*
X146277148Y-102521796D01*
X146298695Y-102493115D01*
X146400021Y-102392144D01*
X146400031Y-102392132D01*
X146403687Y-102388489D01*
X146463185Y-102305689D01*
X146531026Y-102211277D01*
X146534044Y-102207077D01*
X146536618Y-102201870D01*
X146630727Y-102011453D01*
X146630728Y-102011451D01*
X146633021Y-102006811D01*
X146697961Y-101793069D01*
X146727120Y-101571590D01*
X146728747Y-101505000D01*
X146710443Y-101282361D01*
X146656022Y-101065702D01*
X146566945Y-100860840D01*
X146485331Y-100734684D01*
X146448413Y-100677617D01*
X146448411Y-100677614D01*
X146445605Y-100673277D01*
X146295261Y-100508051D01*
X146291210Y-100504852D01*
X146291206Y-100504848D01*
X146124005Y-100372800D01*
X146124001Y-100372798D01*
X146119950Y-100369598D01*
X146078644Y-100346796D01*
X146028675Y-100296364D01*
X146013903Y-100226921D01*
X146039019Y-100160516D01*
X146066371Y-100133909D01*
X146110194Y-100102650D01*
X146245451Y-100006173D01*
X146403687Y-99848489D01*
X146463185Y-99765689D01*
X146531026Y-99671277D01*
X146534044Y-99667077D01*
X146585160Y-99563652D01*
X146630727Y-99471453D01*
X146630728Y-99471451D01*
X146633021Y-99466811D01*
X146697961Y-99253069D01*
X146727120Y-99031590D01*
X146728189Y-98987856D01*
X146728665Y-98968365D01*
X146728665Y-98968361D01*
X146728747Y-98965000D01*
X146710443Y-98742361D01*
X146656022Y-98525702D01*
X146566945Y-98320840D01*
X146506208Y-98226955D01*
X146448413Y-98137617D01*
X146448411Y-98137614D01*
X146445605Y-98133277D01*
X146295261Y-97968051D01*
X146291210Y-97964852D01*
X146291206Y-97964848D01*
X146124005Y-97832800D01*
X146124001Y-97832798D01*
X146119950Y-97829598D01*
X146078644Y-97806796D01*
X146028675Y-97756364D01*
X146013903Y-97686921D01*
X146039019Y-97620516D01*
X146066371Y-97593909D01*
X146131803Y-97547237D01*
X146245451Y-97466173D01*
X146403687Y-97308489D01*
X146461186Y-97228471D01*
X146531026Y-97131277D01*
X146534044Y-97127077D01*
X146614449Y-96964390D01*
X146630727Y-96931453D01*
X146630728Y-96931451D01*
X146633021Y-96926811D01*
X146688386Y-96744583D01*
X146696456Y-96718023D01*
X146696456Y-96718021D01*
X146697961Y-96713069D01*
X146727120Y-96491590D01*
X146728747Y-96425000D01*
X146710443Y-96202361D01*
X146656022Y-95985702D01*
X146566945Y-95780840D01*
X146445605Y-95593277D01*
X146295261Y-95428051D01*
X146291210Y-95424852D01*
X146291206Y-95424848D01*
X146124005Y-95292800D01*
X146124001Y-95292798D01*
X146119950Y-95289598D01*
X146113105Y-95285819D01*
X146026181Y-95237835D01*
X145924380Y-95181638D01*
X145919511Y-95179914D01*
X145919507Y-95179912D01*
X145718678Y-95108795D01*
X145718674Y-95108794D01*
X145713803Y-95107069D01*
X145708710Y-95106162D01*
X145708707Y-95106161D01*
X145498964Y-95068800D01*
X145498958Y-95068799D01*
X145493875Y-95067894D01*
X145420043Y-95066992D01*
X145275672Y-95065228D01*
X145275670Y-95065228D01*
X145270502Y-95065165D01*
X145049682Y-95098955D01*
X144837347Y-95168357D01*
X144639198Y-95271507D01*
X144635065Y-95274610D01*
X144635062Y-95274612D01*
X144464691Y-95402530D01*
X144460556Y-95405635D01*
X144306220Y-95567138D01*
X144180334Y-95751680D01*
X144086279Y-95954305D01*
X144026580Y-96169570D01*
X144002842Y-96391695D01*
X144003139Y-96396848D01*
X144003139Y-96396851D01*
X144013061Y-96568927D01*
X144015701Y-96614715D01*
X144016838Y-96619761D01*
X144016839Y-96619767D01*
X144036710Y-96707939D01*
X144064813Y-96832639D01*
X144148857Y-97039616D01*
X144265578Y-97230088D01*
X144411841Y-97398938D01*
X144583717Y-97541632D01*
X144654186Y-97582811D01*
X144657036Y-97584476D01*
X144705760Y-97636114D01*
X144718831Y-97705897D01*
X144692100Y-97771669D01*
X144651646Y-97805027D01*
X144639198Y-97811507D01*
X144635065Y-97814610D01*
X144635062Y-97814612D01*
X144492044Y-97921993D01*
X144460556Y-97945635D01*
X144306220Y-98107138D01*
X144180334Y-98291680D01*
X144154025Y-98348359D01*
X144116495Y-98429211D01*
X144086279Y-98494305D01*
X144026580Y-98709570D01*
X144002842Y-98931695D01*
X144003139Y-98936848D01*
X144003139Y-98936851D01*
X144008517Y-99030125D01*
X144015701Y-99154715D01*
X144016838Y-99159761D01*
X144016839Y-99159767D01*
X144036710Y-99247939D01*
X144064813Y-99372639D01*
X144148857Y-99579616D01*
X144265578Y-99770088D01*
X144411841Y-99938938D01*
X144583717Y-100081632D01*
X144641580Y-100115444D01*
X144657036Y-100124476D01*
X144705760Y-100176114D01*
X144718831Y-100245897D01*
X144692100Y-100311669D01*
X144651646Y-100345027D01*
X144639198Y-100351507D01*
X144635065Y-100354610D01*
X144635062Y-100354612D01*
X144465745Y-100481739D01*
X144460556Y-100485635D01*
X144306220Y-100647138D01*
X144180334Y-100831680D01*
X144086279Y-101034305D01*
X144026580Y-101249570D01*
X144002842Y-101471695D01*
X140724210Y-101471695D01*
X142632253Y-99563652D01*
X142640539Y-99556112D01*
X142647018Y-99552000D01*
X142693644Y-99502348D01*
X142696398Y-99499507D01*
X142716135Y-99479770D01*
X142718615Y-99476573D01*
X142726320Y-99467551D01*
X142751159Y-99441100D01*
X142756586Y-99435321D01*
X142760405Y-99428375D01*
X142760407Y-99428372D01*
X142766348Y-99417566D01*
X142777199Y-99401047D01*
X142777559Y-99400583D01*
X142789614Y-99385041D01*
X142792759Y-99377772D01*
X142792762Y-99377768D01*
X142807174Y-99344463D01*
X142812391Y-99333813D01*
X142833695Y-99295060D01*
X142838733Y-99275437D01*
X142845137Y-99256734D01*
X142850033Y-99245420D01*
X142850033Y-99245419D01*
X142853181Y-99238145D01*
X142854420Y-99230322D01*
X142854423Y-99230312D01*
X142860099Y-99194476D01*
X142862505Y-99182856D01*
X142871528Y-99147711D01*
X142871528Y-99147710D01*
X142873500Y-99140030D01*
X142873500Y-99119776D01*
X142875051Y-99100065D01*
X142876980Y-99087886D01*
X142878220Y-99080057D01*
X142874059Y-99036038D01*
X142873500Y-99024181D01*
X142873500Y-95564594D01*
X142893502Y-95496473D01*
X142910405Y-95475499D01*
X143814049Y-94571855D01*
X143876361Y-94537829D01*
X143947176Y-94542894D01*
X143969260Y-94553690D01*
X144000090Y-94572694D01*
X144007262Y-94577115D01*
X144053948Y-94592600D01*
X144168611Y-94630632D01*
X144168613Y-94630632D01*
X144175139Y-94632797D01*
X144181975Y-94633497D01*
X144181978Y-94633498D01*
X144225031Y-94637909D01*
X144279600Y-94643500D01*
X145280400Y-94643500D01*
X145283646Y-94643163D01*
X145283650Y-94643163D01*
X145379308Y-94633238D01*
X145379312Y-94633237D01*
X145386166Y-94632526D01*
X145392702Y-94630345D01*
X145392704Y-94630345D01*
X145525123Y-94586166D01*
X145553946Y-94576550D01*
X145704348Y-94483478D01*
X145829305Y-94358303D01*
X145844804Y-94333159D01*
X145918275Y-94213968D01*
X145918276Y-94213966D01*
X145922115Y-94207738D01*
X145977797Y-94039861D01*
X145988500Y-93935400D01*
X145988500Y-93309600D01*
X145978625Y-93214424D01*
X145978238Y-93210692D01*
X145978237Y-93210688D01*
X145977526Y-93203834D01*
X145974804Y-93195673D01*
X145923868Y-93043002D01*
X145921550Y-93036054D01*
X145828478Y-92885652D01*
X145741891Y-92799216D01*
X145707812Y-92736934D01*
X145712815Y-92666114D01*
X145741736Y-92621025D01*
X145824134Y-92538483D01*
X145829305Y-92533303D01*
X145922115Y-92382738D01*
X145977797Y-92214861D01*
X145988500Y-92110400D01*
X145988500Y-91484600D01*
X145977526Y-91378834D01*
X145921550Y-91211054D01*
X145828478Y-91060652D01*
X145703303Y-90935695D01*
X145667454Y-90913597D01*
X145619960Y-90860825D01*
X145608536Y-90790754D01*
X145636810Y-90725630D01*
X145667264Y-90699194D01*
X145706689Y-90674797D01*
X145729929Y-90651517D01*
X145825446Y-90555833D01*
X145830617Y-90550653D01*
X145922661Y-90401329D01*
X145977885Y-90234835D01*
X145988500Y-90131231D01*
X145988499Y-89543770D01*
X145977616Y-89438871D01*
X145975437Y-89432340D01*
X145975436Y-89432335D01*
X145924420Y-89279422D01*
X145922102Y-89272474D01*
X145829797Y-89123311D01*
X145705653Y-88999383D01*
X145702730Y-88997581D01*
X145662592Y-88940971D01*
X145659358Y-88870048D01*
X145694982Y-88808636D01*
X145701378Y-88803084D01*
X145706689Y-88799797D01*
X145830617Y-88675653D01*
X145922661Y-88526329D01*
X145977885Y-88359835D01*
X145988500Y-88256231D01*
X145988500Y-87992966D01*
X150444241Y-87992966D01*
X150474549Y-88127446D01*
X150477629Y-88137275D01*
X150557754Y-88334603D01*
X150562397Y-88343794D01*
X150673678Y-88525388D01*
X150679761Y-88533699D01*
X150819197Y-88694667D01*
X150826564Y-88701883D01*
X150990418Y-88837916D01*
X150998865Y-88843831D01*
X151182740Y-88951279D01*
X151192026Y-88955729D01*
X151390985Y-89031703D01*
X151400883Y-89034579D01*
X151504234Y-89055606D01*
X151518283Y-89054410D01*
X151521984Y-89044065D01*
X151521984Y-89043517D01*
X152029984Y-89043517D01*
X152034048Y-89057359D01*
X152047462Y-89059393D01*
X152054168Y-89058534D01*
X152064246Y-89056392D01*
X152268239Y-88995191D01*
X152277826Y-88991433D01*
X152469079Y-88897739D01*
X152477929Y-88892464D01*
X152651312Y-88768792D01*
X152659184Y-88762139D01*
X152810036Y-88611812D01*
X152816714Y-88603965D01*
X152940987Y-88431020D01*
X152946297Y-88422183D01*
X153040654Y-88231267D01*
X153044453Y-88221672D01*
X153106361Y-88017910D01*
X153108539Y-88007837D01*
X153109970Y-87996962D01*
X153107759Y-87982778D01*
X153094601Y-87979000D01*
X152048099Y-87979000D01*
X152032860Y-87983475D01*
X152031655Y-87984865D01*
X152029984Y-87992548D01*
X152029984Y-89043517D01*
X151521984Y-89043517D01*
X151521984Y-87997115D01*
X151517509Y-87981876D01*
X151516119Y-87980671D01*
X151508436Y-87979000D01*
X150459209Y-87979000D01*
X150445678Y-87982973D01*
X150444241Y-87992966D01*
X145988500Y-87992966D01*
X145988499Y-87668770D01*
X145977616Y-87563871D01*
X145975437Y-87557340D01*
X145975436Y-87557335D01*
X145924420Y-87404422D01*
X145922102Y-87397474D01*
X145829797Y-87248311D01*
X145705653Y-87124383D01*
X145556329Y-87032339D01*
X145499831Y-87013599D01*
X145441472Y-86973167D01*
X145414236Y-86907603D01*
X145413500Y-86894006D01*
X145413500Y-85404594D01*
X145433502Y-85336473D01*
X145450405Y-85315499D01*
X147450499Y-83315405D01*
X147512811Y-83281379D01*
X147539594Y-83278500D01*
X150291484Y-83278500D01*
X150359605Y-83298502D01*
X150406098Y-83352158D01*
X150417484Y-83404500D01*
X150417484Y-83543134D01*
X150424239Y-83605316D01*
X150475369Y-83741705D01*
X150562723Y-83858261D01*
X150679279Y-83945615D01*
X150687688Y-83948767D01*
X150687689Y-83948768D01*
X150796435Y-83989535D01*
X150853200Y-84032176D01*
X150877900Y-84098738D01*
X150862693Y-84168087D01*
X150843300Y-84194568D01*
X150716613Y-84327138D01*
X150713699Y-84331410D01*
X150713698Y-84331411D01*
X150681743Y-84378256D01*
X150590727Y-84511680D01*
X150553169Y-84592593D01*
X150515248Y-84674287D01*
X150496672Y-84714305D01*
X150436973Y-84929570D01*
X150413235Y-85151695D01*
X150426094Y-85374715D01*
X150427231Y-85379761D01*
X150427232Y-85379767D01*
X150447286Y-85468749D01*
X150475206Y-85592639D01*
X150559250Y-85799616D01*
X150593828Y-85856043D01*
X150662515Y-85968129D01*
X150675971Y-85990088D01*
X150822234Y-86158938D01*
X150994110Y-86301632D01*
X151012664Y-86312474D01*
X151067939Y-86344774D01*
X151116663Y-86396412D01*
X151129734Y-86466195D01*
X151103003Y-86531967D01*
X151062546Y-86565327D01*
X151054441Y-86569546D01*
X151045722Y-86575036D01*
X150875417Y-86702905D01*
X150867710Y-86709748D01*
X150720574Y-86863717D01*
X150714088Y-86871727D01*
X150594082Y-87047649D01*
X150588984Y-87056623D01*
X150499322Y-87249783D01*
X150495759Y-87259470D01*
X150440373Y-87459183D01*
X150441896Y-87467607D01*
X150454276Y-87471000D01*
X153094328Y-87471000D01*
X153107859Y-87467027D01*
X153109164Y-87457947D01*
X153067198Y-87290875D01*
X153063878Y-87281124D01*
X152978956Y-87085814D01*
X152974089Y-87076739D01*
X152858410Y-86897926D01*
X152852120Y-86889757D01*
X152708790Y-86732240D01*
X152701257Y-86725215D01*
X152534123Y-86593222D01*
X152525540Y-86587520D01*
X152488586Y-86567120D01*
X152438615Y-86516687D01*
X152423843Y-86447245D01*
X152448959Y-86380839D01*
X152476311Y-86354232D01*
X152534854Y-86312474D01*
X152655844Y-86226173D01*
X152814080Y-86068489D01*
X152873578Y-85985689D01*
X152941419Y-85891277D01*
X152944437Y-85887077D01*
X152946730Y-85882437D01*
X152948430Y-85879608D01*
X153000658Y-85831518D01*
X153056435Y-85818500D01*
X154720406Y-85818500D01*
X154788527Y-85838502D01*
X154809501Y-85855405D01*
X156809595Y-87855499D01*
X156843621Y-87917811D01*
X156846500Y-87944594D01*
X156846500Y-124145406D01*
X156826498Y-124213527D01*
X156809595Y-124234501D01*
X153444500Y-127599595D01*
X153382188Y-127633621D01*
X153355405Y-127636500D01*
X152963594Y-127636500D01*
X152895473Y-127616498D01*
X152848980Y-127562842D01*
X152838876Y-127492568D01*
X152868370Y-127427988D01*
X152874499Y-127421405D01*
X155332247Y-124963657D01*
X155340537Y-124956113D01*
X155347018Y-124952000D01*
X155393659Y-124902332D01*
X155396413Y-124899491D01*
X155416134Y-124879770D01*
X155418612Y-124876575D01*
X155426318Y-124867553D01*
X155428775Y-124864937D01*
X155456586Y-124835321D01*
X155466346Y-124817568D01*
X155477199Y-124801045D01*
X155478356Y-124799553D01*
X155489613Y-124785041D01*
X155507176Y-124744457D01*
X155512383Y-124733827D01*
X155533695Y-124695060D01*
X155535667Y-124687381D01*
X155535668Y-124687378D01*
X155538732Y-124675442D01*
X155545138Y-124656730D01*
X155550034Y-124645417D01*
X155553181Y-124638145D01*
X155556247Y-124618791D01*
X155560097Y-124594481D01*
X155562504Y-124582860D01*
X155571528Y-124547711D01*
X155571528Y-124547710D01*
X155573500Y-124540030D01*
X155573500Y-124519769D01*
X155575051Y-124500058D01*
X155576825Y-124488861D01*
X155578219Y-124480057D01*
X155574059Y-124436046D01*
X155573500Y-124424189D01*
X155573500Y-105488767D01*
X155574027Y-105477584D01*
X155575702Y-105470091D01*
X155573562Y-105402000D01*
X155573500Y-105398043D01*
X155573500Y-105370144D01*
X155572996Y-105366153D01*
X155572063Y-105354311D01*
X155571198Y-105326765D01*
X155570674Y-105310111D01*
X155568462Y-105302497D01*
X155568461Y-105302492D01*
X155565023Y-105290659D01*
X155561012Y-105271295D01*
X155559467Y-105259064D01*
X155558474Y-105251203D01*
X155555557Y-105243836D01*
X155555556Y-105243831D01*
X155542198Y-105210092D01*
X155538354Y-105198865D01*
X155528230Y-105164022D01*
X155526018Y-105156407D01*
X155515707Y-105138972D01*
X155507012Y-105121224D01*
X155499552Y-105102383D01*
X155473564Y-105066613D01*
X155467048Y-105056693D01*
X155448580Y-105025465D01*
X155448578Y-105025462D01*
X155444542Y-105018638D01*
X155430221Y-105004317D01*
X155417380Y-104989283D01*
X155410131Y-104979306D01*
X155405472Y-104972893D01*
X155371395Y-104944702D01*
X155362616Y-104936712D01*
X154268652Y-103842747D01*
X154261112Y-103834461D01*
X154257000Y-103827982D01*
X154247016Y-103818606D01*
X154207349Y-103781357D01*
X154204507Y-103778602D01*
X154184770Y-103758865D01*
X154181573Y-103756385D01*
X154172551Y-103748680D01*
X154146100Y-103723841D01*
X154140321Y-103718414D01*
X154133375Y-103714595D01*
X154133372Y-103714593D01*
X154122566Y-103708652D01*
X154106047Y-103697801D01*
X154105583Y-103697441D01*
X154090041Y-103685386D01*
X154082772Y-103682241D01*
X154082768Y-103682238D01*
X154049463Y-103667826D01*
X154038813Y-103662609D01*
X154000060Y-103641305D01*
X153980437Y-103636267D01*
X153961734Y-103629863D01*
X153950420Y-103624967D01*
X153950419Y-103624967D01*
X153943145Y-103621819D01*
X153935322Y-103620580D01*
X153935312Y-103620577D01*
X153899476Y-103614901D01*
X153887856Y-103612495D01*
X153852711Y-103603472D01*
X153852710Y-103603472D01*
X153845030Y-103601500D01*
X153824776Y-103601500D01*
X153805065Y-103599949D01*
X153792886Y-103598020D01*
X153785057Y-103596780D01*
X153777165Y-103597526D01*
X153741039Y-103600941D01*
X153729181Y-103601500D01*
X153052789Y-103601500D01*
X152984668Y-103581498D01*
X152946997Y-103543940D01*
X152858806Y-103407617D01*
X152858804Y-103407614D01*
X152855998Y-103403277D01*
X152852516Y-103399450D01*
X152708782Y-103241488D01*
X152677730Y-103177642D01*
X152686125Y-103107143D01*
X152731301Y-103052375D01*
X152757745Y-103038706D01*
X152864281Y-102998767D01*
X152872689Y-102995615D01*
X152989245Y-102908261D01*
X153076599Y-102791705D01*
X153127729Y-102655316D01*
X153134484Y-102593134D01*
X153134484Y-100796866D01*
X153127729Y-100734684D01*
X153076599Y-100598295D01*
X152989245Y-100481739D01*
X152872689Y-100394385D01*
X152736300Y-100343255D01*
X152674118Y-100336500D01*
X150877850Y-100336500D01*
X150815668Y-100343255D01*
X150679279Y-100394385D01*
X150562723Y-100481739D01*
X150475369Y-100598295D01*
X150424239Y-100734684D01*
X150417484Y-100796866D01*
X150417484Y-102593134D01*
X150424239Y-102655316D01*
X150475369Y-102791705D01*
X150562723Y-102908261D01*
X150679279Y-102995615D01*
X150687688Y-102998767D01*
X150687689Y-102998768D01*
X150796435Y-103039535D01*
X150853200Y-103082176D01*
X150877900Y-103148738D01*
X150862693Y-103218087D01*
X150843300Y-103244568D01*
X150716613Y-103377138D01*
X150590727Y-103561680D01*
X150551995Y-103645121D01*
X150509169Y-103737383D01*
X150496672Y-103764305D01*
X150436973Y-103979570D01*
X150413235Y-104201695D01*
X150413532Y-104206848D01*
X150413532Y-104206851D01*
X150419890Y-104317115D01*
X150426094Y-104424715D01*
X150427231Y-104429761D01*
X150427232Y-104429767D01*
X150451288Y-104536508D01*
X150475206Y-104642639D01*
X150559250Y-104849616D01*
X150593480Y-104905475D01*
X150654051Y-105004317D01*
X150675971Y-105040088D01*
X150822234Y-105208938D01*
X150994110Y-105351632D01*
X151065721Y-105393478D01*
X151067939Y-105394774D01*
X151116663Y-105446412D01*
X151129734Y-105516195D01*
X151103003Y-105581967D01*
X151062546Y-105615327D01*
X151054441Y-105619546D01*
X151045722Y-105625036D01*
X150875417Y-105752905D01*
X150867710Y-105759748D01*
X150720574Y-105913717D01*
X150714088Y-105921727D01*
X150594082Y-106097649D01*
X150588984Y-106106623D01*
X150499322Y-106299783D01*
X150495759Y-106309470D01*
X150440373Y-106509183D01*
X150441896Y-106517607D01*
X150454276Y-106521000D01*
X153094328Y-106521000D01*
X153107859Y-106517027D01*
X153109164Y-106507947D01*
X153067198Y-106340875D01*
X153063878Y-106331124D01*
X152978956Y-106135814D01*
X152974089Y-106126739D01*
X152858410Y-105947926D01*
X152852120Y-105939757D01*
X152708790Y-105782240D01*
X152701257Y-105775215D01*
X152534123Y-105643222D01*
X152525540Y-105637520D01*
X152488586Y-105617120D01*
X152438615Y-105566687D01*
X152423843Y-105497245D01*
X152448959Y-105430839D01*
X152476311Y-105404232D01*
X152503436Y-105384884D01*
X152655844Y-105276173D01*
X152680902Y-105251203D01*
X152810419Y-105122137D01*
X152814080Y-105118489D01*
X152851357Y-105066613D01*
X152941419Y-104941277D01*
X152944437Y-104937077D01*
X152946730Y-104932437D01*
X152948430Y-104929608D01*
X153000658Y-104881518D01*
X153056435Y-104868500D01*
X153450405Y-104868500D01*
X153518526Y-104888502D01*
X153539501Y-104905405D01*
X154269596Y-105635501D01*
X154303621Y-105697813D01*
X154306500Y-105724596D01*
X154306500Y-124145405D01*
X154286498Y-124213526D01*
X154269595Y-124234500D01*
X152174500Y-126329595D01*
X152112188Y-126363621D01*
X152085405Y-126366500D01*
X144073594Y-126366500D01*
X144005473Y-126346498D01*
X143958980Y-126292842D01*
X143948876Y-126222568D01*
X143978370Y-126157988D01*
X143984499Y-126151405D01*
X146582938Y-123552966D01*
X150444241Y-123552966D01*
X150474549Y-123687446D01*
X150477629Y-123697275D01*
X150557754Y-123894603D01*
X150562397Y-123903794D01*
X150673678Y-124085388D01*
X150679761Y-124093699D01*
X150819197Y-124254667D01*
X150826564Y-124261883D01*
X150990418Y-124397916D01*
X150998865Y-124403831D01*
X151182740Y-124511279D01*
X151192026Y-124515729D01*
X151390985Y-124591703D01*
X151400883Y-124594579D01*
X151504234Y-124615606D01*
X151518283Y-124614410D01*
X151521984Y-124604065D01*
X151521984Y-124603517D01*
X152029984Y-124603517D01*
X152034048Y-124617359D01*
X152047462Y-124619393D01*
X152054168Y-124618534D01*
X152064246Y-124616392D01*
X152268239Y-124555191D01*
X152277826Y-124551433D01*
X152469079Y-124457739D01*
X152477929Y-124452464D01*
X152651312Y-124328792D01*
X152659184Y-124322139D01*
X152810036Y-124171812D01*
X152816714Y-124163965D01*
X152940987Y-123991020D01*
X152946297Y-123982183D01*
X153040654Y-123791267D01*
X153044453Y-123781672D01*
X153106361Y-123577910D01*
X153108539Y-123567837D01*
X153109970Y-123556962D01*
X153107759Y-123542778D01*
X153094601Y-123539000D01*
X152048099Y-123539000D01*
X152032860Y-123543475D01*
X152031655Y-123544865D01*
X152029984Y-123552548D01*
X152029984Y-124603517D01*
X151521984Y-124603517D01*
X151521984Y-123557115D01*
X151517509Y-123541876D01*
X151516119Y-123540671D01*
X151508436Y-123539000D01*
X150459209Y-123539000D01*
X150445678Y-123542973D01*
X150444241Y-123552966D01*
X146582938Y-123552966D01*
X148720499Y-121415405D01*
X148782811Y-121381379D01*
X148809594Y-121378500D01*
X150500258Y-121378500D01*
X150568379Y-121398502D01*
X150607691Y-121438665D01*
X150612820Y-121447034D01*
X150675971Y-121550088D01*
X150822234Y-121718938D01*
X150994110Y-121861632D01*
X151067939Y-121904774D01*
X151116663Y-121956412D01*
X151129734Y-122026195D01*
X151103003Y-122091967D01*
X151062546Y-122125327D01*
X151054441Y-122129546D01*
X151045722Y-122135036D01*
X150875417Y-122262905D01*
X150867710Y-122269748D01*
X150720574Y-122423717D01*
X150714088Y-122431727D01*
X150594082Y-122607649D01*
X150588984Y-122616623D01*
X150499322Y-122809783D01*
X150495759Y-122819470D01*
X150440373Y-123019183D01*
X150441896Y-123027607D01*
X150454276Y-123031000D01*
X153094328Y-123031000D01*
X153107859Y-123027027D01*
X153109164Y-123017947D01*
X153067198Y-122850875D01*
X153063878Y-122841124D01*
X152978956Y-122645814D01*
X152974089Y-122636739D01*
X152858410Y-122457926D01*
X152852120Y-122449757D01*
X152708790Y-122292240D01*
X152701257Y-122285215D01*
X152534123Y-122153222D01*
X152525540Y-122147520D01*
X152488586Y-122127120D01*
X152438615Y-122076687D01*
X152423843Y-122007245D01*
X152448959Y-121940839D01*
X152476311Y-121914232D01*
X152499781Y-121897491D01*
X152655844Y-121786173D01*
X152669133Y-121772931D01*
X152737193Y-121705107D01*
X152814080Y-121628489D01*
X152819245Y-121621302D01*
X152941419Y-121451277D01*
X152944437Y-121447077D01*
X152948595Y-121438665D01*
X153041120Y-121251453D01*
X153041121Y-121251451D01*
X153043414Y-121246811D01*
X153108354Y-121033069D01*
X153137513Y-120811590D01*
X153137595Y-120808240D01*
X153139058Y-120748365D01*
X153139058Y-120748361D01*
X153139140Y-120745000D01*
X153120836Y-120522361D01*
X153066415Y-120305702D01*
X152977338Y-120100840D01*
X152902308Y-119984861D01*
X152858806Y-119917617D01*
X152858804Y-119917614D01*
X152855998Y-119913277D01*
X152852516Y-119909450D01*
X152708782Y-119751488D01*
X152677730Y-119687642D01*
X152686125Y-119617143D01*
X152731301Y-119562375D01*
X152757745Y-119548706D01*
X152864281Y-119508767D01*
X152872689Y-119505615D01*
X152989245Y-119418261D01*
X153076599Y-119301705D01*
X153127729Y-119165316D01*
X153134484Y-119103134D01*
X153134484Y-117306866D01*
X153127729Y-117244684D01*
X153076599Y-117108295D01*
X152989245Y-116991739D01*
X152872689Y-116904385D01*
X152736300Y-116853255D01*
X152674118Y-116846500D01*
X150877850Y-116846500D01*
X150815668Y-116853255D01*
X150679279Y-116904385D01*
X150562723Y-116991739D01*
X150475369Y-117108295D01*
X150424239Y-117244684D01*
X150417484Y-117306866D01*
X150417484Y-119103134D01*
X150424239Y-119165316D01*
X150475369Y-119301705D01*
X150562723Y-119418261D01*
X150679279Y-119505615D01*
X150687688Y-119508767D01*
X150687689Y-119508768D01*
X150796435Y-119549535D01*
X150853200Y-119592176D01*
X150877900Y-119658738D01*
X150862693Y-119728087D01*
X150843300Y-119754568D01*
X150726162Y-119877146D01*
X150716613Y-119887138D01*
X150713699Y-119891410D01*
X150713698Y-119891411D01*
X150601079Y-120056504D01*
X150546168Y-120101507D01*
X150496991Y-120111500D01*
X148573768Y-120111500D01*
X148562585Y-120110973D01*
X148555092Y-120109298D01*
X148547166Y-120109547D01*
X148547165Y-120109547D01*
X148487002Y-120111438D01*
X148483044Y-120111500D01*
X148455144Y-120111500D01*
X148451154Y-120112004D01*
X148439320Y-120112936D01*
X148395111Y-120114326D01*
X148387495Y-120116539D01*
X148387493Y-120116539D01*
X148375652Y-120119979D01*
X148356293Y-120123988D01*
X148354983Y-120124154D01*
X148336203Y-120126526D01*
X148328837Y-120129442D01*
X148328831Y-120129444D01*
X148295098Y-120142800D01*
X148283868Y-120146645D01*
X148249017Y-120156770D01*
X148241407Y-120158981D01*
X148234584Y-120163016D01*
X148223966Y-120169295D01*
X148206213Y-120177992D01*
X148198568Y-120181019D01*
X148187383Y-120185448D01*
X148180968Y-120190109D01*
X148151612Y-120211437D01*
X148141695Y-120217951D01*
X148103638Y-120240458D01*
X148089317Y-120254779D01*
X148074284Y-120267619D01*
X148057893Y-120279528D01*
X148041195Y-120299712D01*
X148029702Y-120313605D01*
X148021712Y-120322384D01*
X143284500Y-125059595D01*
X143222188Y-125093621D01*
X143195405Y-125096500D01*
X120964595Y-125096500D01*
X120896474Y-125076498D01*
X120875499Y-125059595D01*
X120181484Y-124365579D01*
X120147459Y-124303267D01*
X120152524Y-124232451D01*
X120195071Y-124175616D01*
X120215147Y-124163333D01*
X120247541Y-124147463D01*
X120247546Y-124147460D01*
X120252184Y-124145188D01*
X120336020Y-124085388D01*
X120445259Y-124007469D01*
X120445264Y-124007465D01*
X120449471Y-124004464D01*
X120621126Y-123833408D01*
X120661445Y-123777299D01*
X120717439Y-123733651D01*
X120788142Y-123727205D01*
X120851106Y-123760007D01*
X120859001Y-123768324D01*
X121000372Y-123931527D01*
X121186823Y-124086322D01*
X121396053Y-124208586D01*
X121400873Y-124210426D01*
X121400878Y-124210429D01*
X121509220Y-124251800D01*
X121622442Y-124295035D01*
X121627510Y-124296066D01*
X121627513Y-124296067D01*
X121685345Y-124307833D01*
X121859910Y-124343349D01*
X121865085Y-124343539D01*
X121865087Y-124343539D01*
X122096917Y-124352040D01*
X122096921Y-124352040D01*
X122102081Y-124352229D01*
X122107201Y-124351573D01*
X122107203Y-124351573D01*
X122183336Y-124341820D01*
X122342450Y-124321437D01*
X122347401Y-124319952D01*
X122347404Y-124319951D01*
X122569612Y-124253285D01*
X122569611Y-124253285D01*
X122574562Y-124251800D01*
X122730073Y-124175616D01*
X122787533Y-124147467D01*
X122787540Y-124147463D01*
X122792184Y-124145188D01*
X122796394Y-124142185D01*
X122796399Y-124142182D01*
X122985259Y-124007469D01*
X122985264Y-124007465D01*
X122989471Y-124004464D01*
X123161126Y-123833408D01*
X123201445Y-123777299D01*
X123257439Y-123733651D01*
X123328142Y-123727205D01*
X123391106Y-123760007D01*
X123399001Y-123768324D01*
X123540372Y-123931527D01*
X123726823Y-124086322D01*
X123936053Y-124208586D01*
X123940873Y-124210426D01*
X123940878Y-124210429D01*
X124049220Y-124251800D01*
X124162442Y-124295035D01*
X124167510Y-124296066D01*
X124167513Y-124296067D01*
X124225345Y-124307833D01*
X124399910Y-124343349D01*
X124405085Y-124343539D01*
X124405087Y-124343539D01*
X124636917Y-124352040D01*
X124636921Y-124352040D01*
X124642081Y-124352229D01*
X124647201Y-124351573D01*
X124647203Y-124351573D01*
X124723336Y-124341820D01*
X124882450Y-124321437D01*
X124887401Y-124319952D01*
X124887404Y-124319951D01*
X125109612Y-124253285D01*
X125109611Y-124253285D01*
X125114562Y-124251800D01*
X125270073Y-124175616D01*
X125327533Y-124147467D01*
X125327540Y-124147463D01*
X125332184Y-124145188D01*
X125336394Y-124142185D01*
X125336399Y-124142182D01*
X125525259Y-124007469D01*
X125525264Y-124007465D01*
X125529471Y-124004464D01*
X125701126Y-123833408D01*
X125741445Y-123777299D01*
X125797439Y-123733651D01*
X125868142Y-123727205D01*
X125931106Y-123760007D01*
X125939001Y-123768324D01*
X126080372Y-123931527D01*
X126266823Y-124086322D01*
X126476053Y-124208586D01*
X126480873Y-124210426D01*
X126480878Y-124210429D01*
X126589220Y-124251800D01*
X126702442Y-124295035D01*
X126707510Y-124296066D01*
X126707513Y-124296067D01*
X126765345Y-124307833D01*
X126939910Y-124343349D01*
X126945085Y-124343539D01*
X126945087Y-124343539D01*
X127176917Y-124352040D01*
X127176921Y-124352040D01*
X127182081Y-124352229D01*
X127187201Y-124351573D01*
X127187203Y-124351573D01*
X127263336Y-124341820D01*
X127422450Y-124321437D01*
X127427401Y-124319952D01*
X127427404Y-124319951D01*
X127649612Y-124253285D01*
X127649611Y-124253285D01*
X127654562Y-124251800D01*
X127810073Y-124175616D01*
X127867533Y-124147467D01*
X127867540Y-124147463D01*
X127872184Y-124145188D01*
X127876394Y-124142185D01*
X127876399Y-124142182D01*
X128065259Y-124007469D01*
X128065264Y-124007465D01*
X128069471Y-124004464D01*
X128241126Y-123833408D01*
X128281445Y-123777299D01*
X128337439Y-123733651D01*
X128408142Y-123727205D01*
X128471106Y-123760007D01*
X128479001Y-123768324D01*
X128620372Y-123931527D01*
X128806823Y-124086322D01*
X129016053Y-124208586D01*
X129020873Y-124210426D01*
X129020878Y-124210429D01*
X129129220Y-124251800D01*
X129242442Y-124295035D01*
X129247510Y-124296066D01*
X129247513Y-124296067D01*
X129305345Y-124307833D01*
X129479910Y-124343349D01*
X129485085Y-124343539D01*
X129485087Y-124343539D01*
X129716917Y-124352040D01*
X129716921Y-124352040D01*
X129722081Y-124352229D01*
X129727201Y-124351573D01*
X129727203Y-124351573D01*
X129803336Y-124341820D01*
X129962450Y-124321437D01*
X129967401Y-124319952D01*
X129967404Y-124319951D01*
X130189612Y-124253285D01*
X130189611Y-124253285D01*
X130194562Y-124251800D01*
X130350073Y-124175616D01*
X130407533Y-124147467D01*
X130407540Y-124147463D01*
X130412184Y-124145188D01*
X130416394Y-124142185D01*
X130416399Y-124142182D01*
X130605259Y-124007469D01*
X130605264Y-124007465D01*
X130609471Y-124004464D01*
X130781126Y-123833408D01*
X130821445Y-123777299D01*
X130877439Y-123733651D01*
X130948142Y-123727205D01*
X131011106Y-123760007D01*
X131019001Y-123768324D01*
X131160372Y-123931527D01*
X131346823Y-124086322D01*
X131556053Y-124208586D01*
X131560873Y-124210426D01*
X131560878Y-124210429D01*
X131669220Y-124251800D01*
X131782442Y-124295035D01*
X131787510Y-124296066D01*
X131787513Y-124296067D01*
X131845345Y-124307833D01*
X132019910Y-124343349D01*
X132025085Y-124343539D01*
X132025087Y-124343539D01*
X132256917Y-124352040D01*
X132256921Y-124352040D01*
X132262081Y-124352229D01*
X132267201Y-124351573D01*
X132267203Y-124351573D01*
X132343336Y-124341820D01*
X132502450Y-124321437D01*
X132507401Y-124319952D01*
X132507404Y-124319951D01*
X132729612Y-124253285D01*
X132729611Y-124253285D01*
X132734562Y-124251800D01*
X132890073Y-124175616D01*
X132947533Y-124147467D01*
X132947540Y-124147463D01*
X132952184Y-124145188D01*
X132956394Y-124142185D01*
X132956399Y-124142182D01*
X133145259Y-124007469D01*
X133145264Y-124007465D01*
X133149471Y-124004464D01*
X133321126Y-123833408D01*
X133361445Y-123777299D01*
X133417439Y-123733651D01*
X133488142Y-123727205D01*
X133551106Y-123760007D01*
X133559001Y-123768324D01*
X133700372Y-123931527D01*
X133886823Y-124086322D01*
X134096053Y-124208586D01*
X134100873Y-124210426D01*
X134100878Y-124210429D01*
X134209220Y-124251800D01*
X134322442Y-124295035D01*
X134327510Y-124296066D01*
X134327513Y-124296067D01*
X134385345Y-124307833D01*
X134559910Y-124343349D01*
X134565085Y-124343539D01*
X134565087Y-124343539D01*
X134796917Y-124352040D01*
X134796921Y-124352040D01*
X134802081Y-124352229D01*
X134807201Y-124351573D01*
X134807203Y-124351573D01*
X134883336Y-124341820D01*
X135042450Y-124321437D01*
X135047401Y-124319952D01*
X135047404Y-124319951D01*
X135269612Y-124253285D01*
X135269611Y-124253285D01*
X135274562Y-124251800D01*
X135430073Y-124175616D01*
X135487533Y-124147467D01*
X135487540Y-124147463D01*
X135492184Y-124145188D01*
X135496394Y-124142185D01*
X135496399Y-124142182D01*
X135685259Y-124007469D01*
X135685264Y-124007465D01*
X135689471Y-124004464D01*
X135861126Y-123833408D01*
X135901445Y-123777299D01*
X135957439Y-123733651D01*
X136028142Y-123727205D01*
X136091106Y-123760007D01*
X136099001Y-123768324D01*
X136240372Y-123931527D01*
X136426823Y-124086322D01*
X136636053Y-124208586D01*
X136640873Y-124210426D01*
X136640878Y-124210429D01*
X136749220Y-124251800D01*
X136862442Y-124295035D01*
X136867510Y-124296066D01*
X136867513Y-124296067D01*
X136925345Y-124307833D01*
X137099910Y-124343349D01*
X137105085Y-124343539D01*
X137105087Y-124343539D01*
X137336917Y-124352040D01*
X137336921Y-124352040D01*
X137342081Y-124352229D01*
X137347201Y-124351573D01*
X137347203Y-124351573D01*
X137423336Y-124341820D01*
X137582450Y-124321437D01*
X137587401Y-124319952D01*
X137587404Y-124319951D01*
X137809612Y-124253285D01*
X137809611Y-124253285D01*
X137814562Y-124251800D01*
X137970073Y-124175616D01*
X138027533Y-124147467D01*
X138027540Y-124147463D01*
X138032184Y-124145188D01*
X138036394Y-124142185D01*
X138036399Y-124142182D01*
X138225259Y-124007469D01*
X138225264Y-124007465D01*
X138229471Y-124004464D01*
X138401126Y-123833408D01*
X138441445Y-123777299D01*
X138497439Y-123733651D01*
X138568142Y-123727205D01*
X138631106Y-123760007D01*
X138639001Y-123768324D01*
X138780372Y-123931527D01*
X138966823Y-124086322D01*
X139176053Y-124208586D01*
X139180873Y-124210426D01*
X139180878Y-124210429D01*
X139289220Y-124251800D01*
X139402442Y-124295035D01*
X139407510Y-124296066D01*
X139407513Y-124296067D01*
X139465345Y-124307833D01*
X139639910Y-124343349D01*
X139645085Y-124343539D01*
X139645087Y-124343539D01*
X139876917Y-124352040D01*
X139876921Y-124352040D01*
X139882081Y-124352229D01*
X139887201Y-124351573D01*
X139887203Y-124351573D01*
X139963336Y-124341820D01*
X140122450Y-124321437D01*
X140127401Y-124319952D01*
X140127404Y-124319951D01*
X140349612Y-124253285D01*
X140349611Y-124253285D01*
X140354562Y-124251800D01*
X140510073Y-124175616D01*
X140567533Y-124147467D01*
X140567540Y-124147463D01*
X140572184Y-124145188D01*
X140576394Y-124142185D01*
X140576399Y-124142182D01*
X140765259Y-124007469D01*
X140765264Y-124007465D01*
X140769471Y-124004464D01*
X140941126Y-123833408D01*
X141082537Y-123636613D01*
X141087311Y-123626955D01*
X141187614Y-123424006D01*
X141189908Y-123419365D01*
X141205615Y-123367669D01*
X141258851Y-123192449D01*
X141258852Y-123192443D01*
X141260355Y-123187497D01*
X141291986Y-122947237D01*
X141293751Y-122875000D01*
X141273895Y-122633482D01*
X141214859Y-122398449D01*
X141118228Y-122176215D01*
X141039183Y-122054030D01*
X140989407Y-121977087D01*
X140989405Y-121977084D01*
X140986599Y-121972747D01*
X140823506Y-121793510D01*
X140633328Y-121643317D01*
X140513603Y-121577225D01*
X140463636Y-121526795D01*
X140448500Y-121466919D01*
X140448500Y-115763767D01*
X140449027Y-115752584D01*
X140450702Y-115745091D01*
X140448562Y-115677000D01*
X140448500Y-115673043D01*
X140448500Y-115645144D01*
X140447996Y-115641153D01*
X140447063Y-115629311D01*
X140445923Y-115593036D01*
X140445674Y-115585111D01*
X140443462Y-115577497D01*
X140443461Y-115577492D01*
X140440023Y-115565659D01*
X140436012Y-115546295D01*
X140434467Y-115534064D01*
X140433474Y-115526203D01*
X140430557Y-115518836D01*
X140430556Y-115518831D01*
X140417198Y-115485092D01*
X140413354Y-115473865D01*
X140403230Y-115439022D01*
X140401018Y-115431407D01*
X140390707Y-115413972D01*
X140382012Y-115396224D01*
X140374552Y-115377383D01*
X140348564Y-115341613D01*
X140342048Y-115331693D01*
X140323580Y-115300465D01*
X140323578Y-115300462D01*
X140319542Y-115293638D01*
X140305221Y-115279317D01*
X140292380Y-115264283D01*
X140285131Y-115254306D01*
X140280472Y-115247893D01*
X140246395Y-115219702D01*
X140237616Y-115211712D01*
X132583652Y-107557747D01*
X132576112Y-107549461D01*
X132572000Y-107542982D01*
X132564460Y-107535901D01*
X132522349Y-107496357D01*
X132519507Y-107493602D01*
X132499770Y-107473865D01*
X132496573Y-107471385D01*
X132487551Y-107463680D01*
X132461100Y-107438841D01*
X132455321Y-107433414D01*
X132448375Y-107429595D01*
X132448372Y-107429593D01*
X132437566Y-107423652D01*
X132421047Y-107412801D01*
X132420583Y-107412441D01*
X132405041Y-107400386D01*
X132397772Y-107397241D01*
X132397768Y-107397238D01*
X132364463Y-107382826D01*
X132353813Y-107377609D01*
X132315060Y-107356305D01*
X132295437Y-107351267D01*
X132276734Y-107344863D01*
X132265420Y-107339967D01*
X132265419Y-107339967D01*
X132258145Y-107336819D01*
X132250322Y-107335580D01*
X132250312Y-107335577D01*
X132214476Y-107329901D01*
X132202856Y-107327495D01*
X132167711Y-107318472D01*
X132167710Y-107318472D01*
X132160030Y-107316500D01*
X132139776Y-107316500D01*
X132120065Y-107314949D01*
X132107886Y-107313020D01*
X132100057Y-107311780D01*
X132092165Y-107312526D01*
X132056039Y-107315941D01*
X132044181Y-107316500D01*
X111724500Y-107316500D01*
X111656379Y-107296498D01*
X111609886Y-107242842D01*
X111598500Y-107190500D01*
X111598500Y-107042966D01*
X150444241Y-107042966D01*
X150474549Y-107177446D01*
X150477629Y-107187275D01*
X150557754Y-107384603D01*
X150562397Y-107393794D01*
X150673678Y-107575388D01*
X150679761Y-107583699D01*
X150819197Y-107744667D01*
X150826564Y-107751883D01*
X150990418Y-107887916D01*
X150998865Y-107893831D01*
X151182740Y-108001279D01*
X151192026Y-108005729D01*
X151390985Y-108081703D01*
X151400883Y-108084579D01*
X151504234Y-108105606D01*
X151518283Y-108104410D01*
X151521984Y-108094065D01*
X151521984Y-108093517D01*
X152029984Y-108093517D01*
X152034048Y-108107359D01*
X152047462Y-108109393D01*
X152054168Y-108108534D01*
X152064246Y-108106392D01*
X152268239Y-108045191D01*
X152277826Y-108041433D01*
X152469079Y-107947739D01*
X152477929Y-107942464D01*
X152651312Y-107818792D01*
X152659184Y-107812139D01*
X152810036Y-107661812D01*
X152816714Y-107653965D01*
X152940987Y-107481020D01*
X152946297Y-107472183D01*
X153040654Y-107281267D01*
X153044453Y-107271672D01*
X153106361Y-107067910D01*
X153108539Y-107057837D01*
X153109970Y-107046962D01*
X153107759Y-107032778D01*
X153094601Y-107029000D01*
X152048099Y-107029000D01*
X152032860Y-107033475D01*
X152031655Y-107034865D01*
X152029984Y-107042548D01*
X152029984Y-108093517D01*
X151521984Y-108093517D01*
X151521984Y-107047115D01*
X151517509Y-107031876D01*
X151516119Y-107030671D01*
X151508436Y-107029000D01*
X150459209Y-107029000D01*
X150445678Y-107032973D01*
X150444241Y-107042966D01*
X111598500Y-107042966D01*
X111598500Y-106451866D01*
X111591745Y-106389684D01*
X111588973Y-106382289D01*
X111565333Y-106319229D01*
X111560150Y-106248422D01*
X111565333Y-106230771D01*
X111588973Y-106167711D01*
X111588973Y-106167709D01*
X111591745Y-106160316D01*
X111598500Y-106098134D01*
X111598500Y-105301866D01*
X111591745Y-105239684D01*
X111540615Y-105103295D01*
X111453261Y-104986739D01*
X111390456Y-104939669D01*
X144007592Y-104939669D01*
X144007962Y-104946490D01*
X144013486Y-104997352D01*
X144017112Y-105012604D01*
X144062267Y-105133054D01*
X144070805Y-105148649D01*
X144147306Y-105250724D01*
X144159867Y-105263285D01*
X144261942Y-105339786D01*
X144277537Y-105348324D01*
X144397985Y-105393478D01*
X144413240Y-105397105D01*
X144464105Y-105402631D01*
X144470919Y-105403000D01*
X145093476Y-105403000D01*
X145108715Y-105398525D01*
X145109920Y-105397135D01*
X145111591Y-105389452D01*
X145111591Y-105384884D01*
X145619591Y-105384884D01*
X145624066Y-105400123D01*
X145625456Y-105401328D01*
X145633139Y-105402999D01*
X146260260Y-105402999D01*
X146267081Y-105402629D01*
X146317943Y-105397105D01*
X146333195Y-105393479D01*
X146453645Y-105348324D01*
X146469240Y-105339786D01*
X146571315Y-105263285D01*
X146583876Y-105250724D01*
X146660377Y-105148649D01*
X146668915Y-105133054D01*
X146714069Y-105012606D01*
X146717696Y-104997351D01*
X146723222Y-104946486D01*
X146723591Y-104939672D01*
X146723591Y-104317115D01*
X146719116Y-104301876D01*
X146717726Y-104300671D01*
X146710043Y-104299000D01*
X145637706Y-104299000D01*
X145622467Y-104303475D01*
X145621262Y-104304865D01*
X145619591Y-104312548D01*
X145619591Y-105384884D01*
X145111591Y-105384884D01*
X145111591Y-104317115D01*
X145107116Y-104301876D01*
X145105726Y-104300671D01*
X145098043Y-104299000D01*
X144025707Y-104299000D01*
X144010468Y-104303475D01*
X144009263Y-104304865D01*
X144007592Y-104312548D01*
X144007592Y-104939669D01*
X111390456Y-104939669D01*
X111336705Y-104899385D01*
X111200316Y-104848255D01*
X111138134Y-104841500D01*
X109841866Y-104841500D01*
X109779684Y-104848255D01*
X109643295Y-104899385D01*
X109526739Y-104986739D01*
X109439385Y-105103295D01*
X109388255Y-105239684D01*
X109381500Y-105301866D01*
X109381500Y-106090500D01*
X109361498Y-106158621D01*
X109307842Y-106205114D01*
X109255500Y-106216500D01*
X108511302Y-106216500D01*
X108455977Y-106201676D01*
X108455418Y-106202931D01*
X108286985Y-106127940D01*
X108286984Y-106127940D01*
X108280954Y-106125255D01*
X108169342Y-106101531D01*
X108100610Y-106086921D01*
X108100605Y-106086921D01*
X108094153Y-106085549D01*
X107903179Y-106085549D01*
X107896727Y-106086921D01*
X107896722Y-106086921D01*
X107827990Y-106101531D01*
X107716378Y-106125255D01*
X107710348Y-106127940D01*
X107710347Y-106127940D01*
X107547944Y-106200246D01*
X107547942Y-106200247D01*
X107541914Y-106202931D01*
X107387413Y-106315183D01*
X107382992Y-106320093D01*
X107382991Y-106320094D01*
X107326991Y-106382289D01*
X107259626Y-106457105D01*
X107164139Y-106622493D01*
X107105124Y-106804121D01*
X107085162Y-106994049D01*
X107085852Y-107000614D01*
X107089233Y-107032778D01*
X107105124Y-107183977D01*
X107164139Y-107365605D01*
X107167442Y-107371327D01*
X107167443Y-107371328D01*
X107201083Y-107429593D01*
X107259626Y-107530993D01*
X107264044Y-107535900D01*
X107264045Y-107535901D01*
X107330314Y-107609500D01*
X107387413Y-107672915D01*
X107541914Y-107785167D01*
X107547942Y-107787851D01*
X107547944Y-107787852D01*
X107602494Y-107812139D01*
X107716378Y-107862843D01*
X107809778Y-107882696D01*
X107896722Y-107901177D01*
X107896727Y-107901177D01*
X107903179Y-107902549D01*
X108094153Y-107902549D01*
X108100605Y-107901177D01*
X108100610Y-107901177D01*
X108187554Y-107882696D01*
X108280954Y-107862843D01*
X108394838Y-107812139D01*
X108449388Y-107787852D01*
X108449390Y-107787851D01*
X108455418Y-107785167D01*
X108609919Y-107672915D01*
X108667018Y-107609500D01*
X108733287Y-107535901D01*
X108733288Y-107535900D01*
X108737706Y-107530993D01*
X108738482Y-107531692D01*
X108789843Y-107492086D01*
X108835558Y-107483500D01*
X109255500Y-107483500D01*
X109323621Y-107503502D01*
X109370114Y-107557158D01*
X109381500Y-107609500D01*
X109381500Y-108348134D01*
X109388255Y-108410316D01*
X109391029Y-108417715D01*
X109405562Y-108456482D01*
X109410745Y-108527289D01*
X109405562Y-108544942D01*
X109391522Y-108582394D01*
X109387895Y-108597649D01*
X109382369Y-108648514D01*
X109382000Y-108655328D01*
X109382000Y-108777885D01*
X109386475Y-108793124D01*
X109387865Y-108794329D01*
X109395548Y-108796000D01*
X109745014Y-108796000D01*
X109773165Y-108799301D01*
X109779684Y-108801745D01*
X109787532Y-108802598D01*
X109787534Y-108802598D01*
X109838469Y-108808131D01*
X109841866Y-108808500D01*
X111138134Y-108808500D01*
X111141531Y-108808131D01*
X111192466Y-108802598D01*
X111192468Y-108802598D01*
X111200316Y-108801745D01*
X111206835Y-108799301D01*
X111234986Y-108796000D01*
X111579884Y-108796000D01*
X111595123Y-108791525D01*
X111596328Y-108790135D01*
X111597999Y-108782452D01*
X111597999Y-108709500D01*
X111618001Y-108641379D01*
X111671657Y-108594886D01*
X111723999Y-108583500D01*
X131765406Y-108583500D01*
X131833527Y-108603502D01*
X131854501Y-108620405D01*
X139144595Y-115910500D01*
X139178621Y-115972812D01*
X139181500Y-115999595D01*
X139181500Y-121466810D01*
X139161498Y-121534931D01*
X139113680Y-121578573D01*
X139027009Y-121623691D01*
X139022876Y-121626794D01*
X139022873Y-121626796D01*
X138837353Y-121766088D01*
X138833218Y-121769193D01*
X138665795Y-121944392D01*
X138650234Y-121967204D01*
X138595324Y-122012205D01*
X138524799Y-122020376D01*
X138461052Y-121989122D01*
X138447987Y-121974893D01*
X138446599Y-121972747D01*
X138441555Y-121967203D01*
X138286981Y-121797329D01*
X138283506Y-121793510D01*
X138093328Y-121643317D01*
X137973609Y-121577228D01*
X137885705Y-121528702D01*
X137885702Y-121528701D01*
X137881174Y-121526201D01*
X137713458Y-121466810D01*
X137657613Y-121447034D01*
X137657610Y-121447033D01*
X137652741Y-121445309D01*
X137647652Y-121444402D01*
X137647650Y-121444402D01*
X137574394Y-121431353D01*
X137414163Y-121402812D01*
X137323635Y-121401706D01*
X137177018Y-121399914D01*
X137177016Y-121399914D01*
X137171848Y-121399851D01*
X136932303Y-121436507D01*
X136701961Y-121511794D01*
X136673144Y-121526795D01*
X136576264Y-121577228D01*
X136487009Y-121623691D01*
X136482876Y-121626794D01*
X136482873Y-121626796D01*
X136297353Y-121766088D01*
X136293218Y-121769193D01*
X136125795Y-121944392D01*
X136110234Y-121967204D01*
X136055324Y-122012205D01*
X135984799Y-122020376D01*
X135921052Y-121989122D01*
X135907987Y-121974893D01*
X135906599Y-121972747D01*
X135901555Y-121967203D01*
X135746981Y-121797329D01*
X135743506Y-121793510D01*
X135553328Y-121643317D01*
X135433609Y-121577228D01*
X135345705Y-121528702D01*
X135345702Y-121528701D01*
X135341174Y-121526201D01*
X135173458Y-121466810D01*
X135117613Y-121447034D01*
X135117610Y-121447033D01*
X135112741Y-121445309D01*
X135107652Y-121444402D01*
X135107650Y-121444402D01*
X135034394Y-121431353D01*
X134874163Y-121402812D01*
X134783635Y-121401706D01*
X134637018Y-121399914D01*
X134637016Y-121399914D01*
X134631848Y-121399851D01*
X134392303Y-121436507D01*
X134161961Y-121511794D01*
X134133144Y-121526795D01*
X134036264Y-121577228D01*
X133947009Y-121623691D01*
X133942876Y-121626794D01*
X133942873Y-121626796D01*
X133757353Y-121766088D01*
X133753218Y-121769193D01*
X133585795Y-121944392D01*
X133570234Y-121967204D01*
X133515324Y-122012205D01*
X133444799Y-122020376D01*
X133381052Y-121989122D01*
X133367987Y-121974893D01*
X133366599Y-121972747D01*
X133361555Y-121967203D01*
X133206981Y-121797329D01*
X133203506Y-121793510D01*
X133013328Y-121643317D01*
X132893609Y-121577228D01*
X132805705Y-121528702D01*
X132805702Y-121528701D01*
X132801174Y-121526201D01*
X132633458Y-121466810D01*
X132577613Y-121447034D01*
X132577610Y-121447033D01*
X132572741Y-121445309D01*
X132567652Y-121444402D01*
X132567650Y-121444402D01*
X132494394Y-121431353D01*
X132334163Y-121402812D01*
X132243635Y-121401706D01*
X132097018Y-121399914D01*
X132097016Y-121399914D01*
X132091848Y-121399851D01*
X131852303Y-121436507D01*
X131621961Y-121511794D01*
X131593144Y-121526795D01*
X131496264Y-121577228D01*
X131407009Y-121623691D01*
X131402876Y-121626794D01*
X131402873Y-121626796D01*
X131217353Y-121766088D01*
X131213218Y-121769193D01*
X131045795Y-121944392D01*
X131030234Y-121967204D01*
X130975324Y-122012205D01*
X130904799Y-122020376D01*
X130841052Y-121989122D01*
X130827987Y-121974893D01*
X130826599Y-121972747D01*
X130821555Y-121967203D01*
X130666981Y-121797329D01*
X130663506Y-121793510D01*
X130473328Y-121643317D01*
X130353609Y-121577228D01*
X130265705Y-121528702D01*
X130265702Y-121528701D01*
X130261174Y-121526201D01*
X130093458Y-121466810D01*
X130037613Y-121447034D01*
X130037610Y-121447033D01*
X130032741Y-121445309D01*
X130027652Y-121444402D01*
X130027650Y-121444402D01*
X129954394Y-121431353D01*
X129794163Y-121402812D01*
X129703635Y-121401706D01*
X129557018Y-121399914D01*
X129557016Y-121399914D01*
X129551848Y-121399851D01*
X129312303Y-121436507D01*
X129081961Y-121511794D01*
X129053144Y-121526795D01*
X128956264Y-121577228D01*
X128867009Y-121623691D01*
X128862876Y-121626794D01*
X128862873Y-121626796D01*
X128677353Y-121766088D01*
X128673218Y-121769193D01*
X128505795Y-121944392D01*
X128490234Y-121967204D01*
X128435324Y-122012205D01*
X128364799Y-122020376D01*
X128301052Y-121989122D01*
X128287987Y-121974893D01*
X128286599Y-121972747D01*
X128281555Y-121967203D01*
X128126981Y-121797329D01*
X128123506Y-121793510D01*
X127933328Y-121643317D01*
X127813609Y-121577228D01*
X127725705Y-121528702D01*
X127725702Y-121528701D01*
X127721174Y-121526201D01*
X127553458Y-121466810D01*
X127497613Y-121447034D01*
X127497610Y-121447033D01*
X127492741Y-121445309D01*
X127487652Y-121444402D01*
X127487650Y-121444402D01*
X127414394Y-121431353D01*
X127254163Y-121402812D01*
X127163635Y-121401706D01*
X127017018Y-121399914D01*
X127017016Y-121399914D01*
X127011848Y-121399851D01*
X126772303Y-121436507D01*
X126541961Y-121511794D01*
X126513144Y-121526795D01*
X126416264Y-121577228D01*
X126327009Y-121623691D01*
X126322876Y-121626794D01*
X126322873Y-121626796D01*
X126137353Y-121766088D01*
X126133218Y-121769193D01*
X125965795Y-121944392D01*
X125950234Y-121967204D01*
X125895324Y-122012205D01*
X125824799Y-122020376D01*
X125761052Y-121989122D01*
X125747987Y-121974893D01*
X125746599Y-121972747D01*
X125741555Y-121967203D01*
X125586981Y-121797329D01*
X125583506Y-121793510D01*
X125393328Y-121643317D01*
X125273603Y-121577225D01*
X125223636Y-121526795D01*
X125208500Y-121466919D01*
X125208500Y-120843767D01*
X125209027Y-120832584D01*
X125210702Y-120825091D01*
X125208562Y-120757014D01*
X125208500Y-120753055D01*
X125208500Y-120725144D01*
X125207995Y-120721144D01*
X125207062Y-120709301D01*
X125205922Y-120673029D01*
X125205673Y-120665110D01*
X125200022Y-120645658D01*
X125196014Y-120626306D01*
X125194467Y-120614063D01*
X125193474Y-120606203D01*
X125190556Y-120598832D01*
X125177200Y-120565097D01*
X125173355Y-120553870D01*
X125172721Y-120551687D01*
X125161018Y-120511407D01*
X125156984Y-120504585D01*
X125156981Y-120504579D01*
X125150706Y-120493968D01*
X125142010Y-120476218D01*
X125137472Y-120464756D01*
X125137469Y-120464751D01*
X125134552Y-120457383D01*
X125116065Y-120431937D01*
X125108573Y-120421625D01*
X125102057Y-120411707D01*
X125083575Y-120380457D01*
X125079542Y-120373637D01*
X125065218Y-120359313D01*
X125052376Y-120344278D01*
X125040472Y-120327893D01*
X125006406Y-120299711D01*
X124997627Y-120291722D01*
X114513652Y-109807747D01*
X114506112Y-109799461D01*
X114502000Y-109792982D01*
X114452348Y-109746356D01*
X114449507Y-109743602D01*
X114429770Y-109723865D01*
X114426573Y-109721385D01*
X114417551Y-109713680D01*
X114391100Y-109688841D01*
X114385321Y-109683414D01*
X114378375Y-109679595D01*
X114378372Y-109679593D01*
X114367566Y-109673652D01*
X114351047Y-109662801D01*
X114350583Y-109662441D01*
X114335041Y-109650386D01*
X114327772Y-109647241D01*
X114327768Y-109647238D01*
X114294463Y-109632826D01*
X114283813Y-109627609D01*
X114245060Y-109606305D01*
X114225437Y-109601267D01*
X114206734Y-109594863D01*
X114195420Y-109589967D01*
X114195419Y-109589967D01*
X114188145Y-109586819D01*
X114180322Y-109585580D01*
X114180312Y-109585577D01*
X114144476Y-109579901D01*
X114132856Y-109577495D01*
X114097711Y-109568472D01*
X114097710Y-109568472D01*
X114090030Y-109566500D01*
X114069776Y-109566500D01*
X114050065Y-109564949D01*
X114037886Y-109563020D01*
X114030057Y-109561780D01*
X114022165Y-109562526D01*
X113986039Y-109565941D01*
X113974181Y-109566500D01*
X111724000Y-109566500D01*
X111655879Y-109546498D01*
X111609386Y-109492842D01*
X111598000Y-109440500D01*
X111598000Y-109322115D01*
X111593525Y-109306876D01*
X111592135Y-109305671D01*
X111584452Y-109304000D01*
X109400116Y-109304000D01*
X109384877Y-109308475D01*
X109383672Y-109309865D01*
X109382001Y-109317548D01*
X109382001Y-109444669D01*
X109382371Y-109451490D01*
X109387895Y-109502350D01*
X109391522Y-109517607D01*
X109414934Y-109580059D01*
X109420117Y-109650866D01*
X109414934Y-109668517D01*
X109395112Y-109721392D01*
X109388255Y-109739684D01*
X109381500Y-109801866D01*
X109381500Y-110598134D01*
X109381869Y-110601528D01*
X109384362Y-110624476D01*
X109371834Y-110694359D01*
X109330294Y-110737575D01*
X109332382Y-110740449D01*
X109296612Y-110766437D01*
X109286695Y-110772951D01*
X109248638Y-110795458D01*
X109234317Y-110809779D01*
X109219284Y-110822619D01*
X109202893Y-110834528D01*
X109197842Y-110840634D01*
X109174702Y-110868605D01*
X109166712Y-110877384D01*
X106402747Y-113641348D01*
X106394461Y-113648888D01*
X106387982Y-113653000D01*
X106382557Y-113658777D01*
X106341357Y-113702651D01*
X106338602Y-113705493D01*
X106318865Y-113725230D01*
X106316385Y-113728427D01*
X106308682Y-113737447D01*
X106278414Y-113769679D01*
X106274595Y-113776625D01*
X106274593Y-113776628D01*
X106268652Y-113787434D01*
X106257801Y-113803953D01*
X106245386Y-113819959D01*
X106242241Y-113827228D01*
X106242238Y-113827232D01*
X106227826Y-113860537D01*
X106222609Y-113871187D01*
X106201305Y-113909940D01*
X106199334Y-113917615D01*
X106199334Y-113917616D01*
X106196267Y-113929562D01*
X106189863Y-113948266D01*
X106188046Y-113952466D01*
X106181819Y-113966855D01*
X106180580Y-113974678D01*
X106180577Y-113974688D01*
X106174901Y-114010524D01*
X106172495Y-114022144D01*
X106161500Y-114064970D01*
X106161500Y-114085224D01*
X106159949Y-114104934D01*
X106156780Y-114124943D01*
X106158916Y-114147534D01*
X106160941Y-114168961D01*
X106161500Y-114180819D01*
X106161500Y-121466810D01*
X106141498Y-121534931D01*
X106093680Y-121578573D01*
X106007009Y-121623691D01*
X106002876Y-121626794D01*
X106002873Y-121626796D01*
X105817353Y-121766088D01*
X105813218Y-121769193D01*
X105645795Y-121944392D01*
X105642884Y-121948660D01*
X105642877Y-121948669D01*
X105618387Y-121984569D01*
X105563476Y-122029572D01*
X105496015Y-122037388D01*
X105495975Y-122037674D01*
X105494878Y-122037520D01*
X105492951Y-122037743D01*
X105491457Y-122037038D01*
X105462308Y-122032937D01*
X105451124Y-122038086D01*
X104627022Y-122862188D01*
X104619408Y-122876132D01*
X104619539Y-122877965D01*
X104623790Y-122884580D01*
X105448022Y-123708812D01*
X105461966Y-123716426D01*
X105487904Y-123714571D01*
X105500208Y-123709844D01*
X105569727Y-123724254D01*
X105605667Y-123752932D01*
X105756981Y-123927613D01*
X105756985Y-123927617D01*
X105760372Y-123931527D01*
X105946823Y-124086322D01*
X106156053Y-124208586D01*
X106160873Y-124210426D01*
X106160878Y-124210429D01*
X106269220Y-124251800D01*
X106382442Y-124295035D01*
X106387510Y-124296066D01*
X106387513Y-124296067D01*
X106445345Y-124307833D01*
X106619910Y-124343349D01*
X106625085Y-124343539D01*
X106625087Y-124343539D01*
X106856917Y-124352040D01*
X106856921Y-124352040D01*
X106862081Y-124352229D01*
X106867201Y-124351573D01*
X106867203Y-124351573D01*
X106943336Y-124341820D01*
X107102450Y-124321437D01*
X107107401Y-124319952D01*
X107107404Y-124319951D01*
X107329612Y-124253285D01*
X107329611Y-124253285D01*
X107334562Y-124251800D01*
X107490073Y-124175616D01*
X107547533Y-124147467D01*
X107547540Y-124147463D01*
X107552184Y-124145188D01*
X107556394Y-124142185D01*
X107556399Y-124142182D01*
X107745259Y-124007469D01*
X107745264Y-124007465D01*
X107749471Y-124004464D01*
X107921126Y-123833408D01*
X107961445Y-123777299D01*
X108017439Y-123733651D01*
X108088142Y-123727205D01*
X108151106Y-123760007D01*
X108159001Y-123768324D01*
X108300372Y-123931527D01*
X108486823Y-124086322D01*
X108581687Y-124141756D01*
X108639070Y-124175288D01*
X108687794Y-124226927D01*
X108701500Y-124284076D01*
X108701500Y-124496233D01*
X108700973Y-124507416D01*
X108699298Y-124514909D01*
X108699547Y-124522835D01*
X108699547Y-124522836D01*
X108701438Y-124582986D01*
X108701500Y-124586945D01*
X108701500Y-124614856D01*
X108701997Y-124618790D01*
X108701997Y-124618791D01*
X108702005Y-124618856D01*
X108702938Y-124630693D01*
X108704327Y-124674889D01*
X108709978Y-124694339D01*
X108713987Y-124713700D01*
X108716526Y-124733797D01*
X108719445Y-124741168D01*
X108719445Y-124741170D01*
X108732804Y-124774912D01*
X108736649Y-124786142D01*
X108740979Y-124801045D01*
X108748982Y-124828593D01*
X108753015Y-124835412D01*
X108753017Y-124835417D01*
X108759293Y-124846028D01*
X108767988Y-124863776D01*
X108775448Y-124882617D01*
X108780110Y-124889033D01*
X108780110Y-124889034D01*
X108801436Y-124918387D01*
X108807952Y-124928307D01*
X108824134Y-124955668D01*
X108830458Y-124966362D01*
X108844779Y-124980683D01*
X108857619Y-124995716D01*
X108869528Y-125012107D01*
X108875634Y-125017158D01*
X108903605Y-125040298D01*
X108912384Y-125048288D01*
X112526348Y-128662253D01*
X112533888Y-128670539D01*
X112538000Y-128677018D01*
X112543777Y-128682443D01*
X112587651Y-128723643D01*
X112590493Y-128726398D01*
X112610230Y-128746135D01*
X112613427Y-128748615D01*
X112622447Y-128756318D01*
X112654679Y-128786586D01*
X112661625Y-128790405D01*
X112661628Y-128790407D01*
X112672434Y-128796348D01*
X112688953Y-128807199D01*
X112704959Y-128819614D01*
X112712228Y-128822759D01*
X112712232Y-128822762D01*
X112745537Y-128837174D01*
X112756187Y-128842391D01*
X112794940Y-128863695D01*
X112802615Y-128865666D01*
X112802616Y-128865666D01*
X112814562Y-128868733D01*
X112833267Y-128875137D01*
X112851855Y-128883181D01*
X112859678Y-128884420D01*
X112859688Y-128884423D01*
X112895524Y-128890099D01*
X112907144Y-128892505D01*
X112938959Y-128900673D01*
X112949970Y-128903500D01*
X112970224Y-128903500D01*
X112989934Y-128905051D01*
X113009943Y-128908220D01*
X113017835Y-128907474D01*
X113036580Y-128905702D01*
X113053962Y-128904059D01*
X113065819Y-128903500D01*
X153591233Y-128903500D01*
X153602416Y-128904027D01*
X153609909Y-128905702D01*
X153617835Y-128905453D01*
X153617836Y-128905453D01*
X153677986Y-128903562D01*
X153681945Y-128903500D01*
X153709856Y-128903500D01*
X153713791Y-128903003D01*
X153713856Y-128902995D01*
X153725693Y-128902062D01*
X153757951Y-128901048D01*
X153761970Y-128900922D01*
X153769889Y-128900673D01*
X153789343Y-128895021D01*
X153808700Y-128891013D01*
X153820930Y-128889468D01*
X153820931Y-128889468D01*
X153828797Y-128888474D01*
X153836168Y-128885555D01*
X153836170Y-128885555D01*
X153869912Y-128872196D01*
X153881142Y-128868351D01*
X153915983Y-128858229D01*
X153915984Y-128858229D01*
X153923593Y-128856018D01*
X153930412Y-128851985D01*
X153930417Y-128851983D01*
X153941028Y-128845707D01*
X153958776Y-128837012D01*
X153977617Y-128829552D01*
X154013387Y-128803564D01*
X154023307Y-128797048D01*
X154054535Y-128778580D01*
X154054538Y-128778578D01*
X154061362Y-128774542D01*
X154075683Y-128760221D01*
X154090717Y-128747380D01*
X154100694Y-128740131D01*
X154107107Y-128735472D01*
X154135298Y-128701395D01*
X154143288Y-128692616D01*
X157872247Y-124963657D01*
X157880537Y-124956113D01*
X157887018Y-124952000D01*
X157933659Y-124902332D01*
X157936413Y-124899491D01*
X157956135Y-124879769D01*
X157958612Y-124876576D01*
X157966317Y-124867555D01*
X157978517Y-124854563D01*
X157996586Y-124835321D01*
X158002096Y-124825298D01*
X158006346Y-124817568D01*
X158017202Y-124801041D01*
X158024757Y-124791302D01*
X158024758Y-124791300D01*
X158029614Y-124785040D01*
X158047174Y-124744460D01*
X158052391Y-124733812D01*
X158069875Y-124702009D01*
X158069877Y-124702005D01*
X158073695Y-124695060D01*
X158075668Y-124687378D01*
X158078733Y-124675438D01*
X158085137Y-124656734D01*
X158090033Y-124645420D01*
X158090034Y-124645417D01*
X158093181Y-124638145D01*
X158094421Y-124630318D01*
X158094423Y-124630312D01*
X158100099Y-124594476D01*
X158102505Y-124582856D01*
X158111528Y-124547711D01*
X158111528Y-124547710D01*
X158113500Y-124540030D01*
X158113500Y-124519776D01*
X158115051Y-124500065D01*
X158116980Y-124487886D01*
X158116980Y-124487885D01*
X158118220Y-124480057D01*
X158114059Y-124436038D01*
X158113500Y-124424181D01*
X158113500Y-87708763D01*
X158114027Y-87697579D01*
X158115701Y-87690091D01*
X158113562Y-87622032D01*
X158113500Y-87618075D01*
X158113500Y-87590144D01*
X158112994Y-87586138D01*
X158112061Y-87574292D01*
X158111990Y-87572010D01*
X158110673Y-87530110D01*
X158105022Y-87510658D01*
X158101014Y-87491306D01*
X158099468Y-87479068D01*
X158099467Y-87479066D01*
X158098474Y-87471203D01*
X158082194Y-87430086D01*
X158078359Y-87418885D01*
X158066018Y-87376406D01*
X158061985Y-87369587D01*
X158061983Y-87369582D01*
X158055707Y-87358971D01*
X158047010Y-87341221D01*
X158039552Y-87322383D01*
X158013571Y-87286623D01*
X158007053Y-87276701D01*
X157988578Y-87245460D01*
X157988574Y-87245455D01*
X157984542Y-87238637D01*
X157970218Y-87224313D01*
X157957376Y-87209278D01*
X157945472Y-87192893D01*
X157911406Y-87164711D01*
X157902627Y-87156722D01*
X155438720Y-84692815D01*
X155423604Y-84674545D01*
X155418972Y-84667729D01*
X155401000Y-84651884D01*
X155376845Y-84630589D01*
X155371075Y-84625170D01*
X155359770Y-84613865D01*
X155350298Y-84606518D01*
X155347126Y-84604057D01*
X155341028Y-84599012D01*
X155304856Y-84567122D01*
X155304855Y-84567122D01*
X155298910Y-84561880D01*
X155291845Y-84558280D01*
X155291571Y-84558140D01*
X155271550Y-84545434D01*
X155271310Y-84545248D01*
X155271306Y-84545246D01*
X155265041Y-84540386D01*
X155213489Y-84518077D01*
X155206358Y-84514722D01*
X155156296Y-84489215D01*
X155148251Y-84487417D01*
X155125706Y-84480091D01*
X155118145Y-84476819D01*
X155062675Y-84468033D01*
X155054899Y-84466549D01*
X155021475Y-84459078D01*
X155000091Y-84454298D01*
X154992168Y-84454547D01*
X154992167Y-84454547D01*
X154992106Y-84454549D01*
X154991856Y-84454557D01*
X154968185Y-84453067D01*
X154967889Y-84453020D01*
X154967886Y-84453020D01*
X154960057Y-84451780D01*
X154952165Y-84452526D01*
X154952164Y-84452526D01*
X154904143Y-84457065D01*
X154896246Y-84457562D01*
X154862611Y-84458620D01*
X154840110Y-84459327D01*
X154832201Y-84461625D01*
X154808907Y-84466068D01*
X154808598Y-84466097D01*
X154808597Y-84466097D01*
X154800708Y-84466843D01*
X154747852Y-84485872D01*
X154740342Y-84488312D01*
X154694016Y-84501771D01*
X154694014Y-84501772D01*
X154686407Y-84503982D01*
X154679588Y-84508015D01*
X154679585Y-84508016D01*
X154679318Y-84508174D01*
X154657864Y-84518269D01*
X154657576Y-84518373D01*
X154657573Y-84518374D01*
X154650111Y-84521061D01*
X154637382Y-84529712D01*
X154566559Y-84551500D01*
X153052789Y-84551500D01*
X152984668Y-84531498D01*
X152946997Y-84493940D01*
X152858806Y-84357617D01*
X152858804Y-84357614D01*
X152855998Y-84353277D01*
X152843898Y-84339979D01*
X152708782Y-84191488D01*
X152677730Y-84127642D01*
X152686125Y-84057143D01*
X152731301Y-84002375D01*
X152757745Y-83988706D01*
X152864281Y-83948767D01*
X152872689Y-83945615D01*
X152989245Y-83858261D01*
X153076599Y-83741705D01*
X153127729Y-83605316D01*
X153134484Y-83543134D01*
X153134484Y-81746866D01*
X153127729Y-81684684D01*
X153076599Y-81548295D01*
X152989245Y-81431739D01*
X152872689Y-81344385D01*
X152736300Y-81293255D01*
X152674118Y-81286500D01*
X150877850Y-81286500D01*
X150815668Y-81293255D01*
X150679279Y-81344385D01*
X150562723Y-81431739D01*
X150475369Y-81548295D01*
X150424239Y-81684684D01*
X150417484Y-81746866D01*
X150417484Y-81885500D01*
X150397482Y-81953621D01*
X150343826Y-82000114D01*
X150291484Y-82011500D01*
X147303767Y-82011500D01*
X147292584Y-82010973D01*
X147285091Y-82009298D01*
X147277165Y-82009547D01*
X147277164Y-82009547D01*
X147217014Y-82011438D01*
X147213055Y-82011500D01*
X147185144Y-82011500D01*
X147181210Y-82011997D01*
X147181209Y-82011997D01*
X147181144Y-82012005D01*
X147169307Y-82012938D01*
X147137490Y-82013938D01*
X147133029Y-82014078D01*
X147125110Y-82014327D01*
X147109803Y-82018774D01*
X147105658Y-82019978D01*
X147086306Y-82023986D01*
X147079235Y-82024880D01*
X147066203Y-82026526D01*
X147058834Y-82029443D01*
X147058832Y-82029444D01*
X147025097Y-82042800D01*
X147013869Y-82046645D01*
X146971407Y-82058982D01*
X146964585Y-82063016D01*
X146964579Y-82063019D01*
X146953968Y-82069294D01*
X146936218Y-82077990D01*
X146924756Y-82082528D01*
X146924751Y-82082531D01*
X146917383Y-82085448D01*
X146910968Y-82090109D01*
X146881625Y-82111427D01*
X146871707Y-82117943D01*
X146853019Y-82128995D01*
X146833637Y-82140458D01*
X146819313Y-82154782D01*
X146804281Y-82167621D01*
X146787893Y-82179528D01*
X146759712Y-82213593D01*
X146751722Y-82222373D01*
X144387747Y-84586348D01*
X144379461Y-84593888D01*
X144372982Y-84598000D01*
X144367557Y-84603777D01*
X144326357Y-84647651D01*
X144323602Y-84650493D01*
X144303865Y-84670230D01*
X144301385Y-84673427D01*
X144293682Y-84682447D01*
X144263414Y-84714679D01*
X144259595Y-84721625D01*
X144259593Y-84721628D01*
X144253652Y-84732434D01*
X144242801Y-84748953D01*
X144230386Y-84764959D01*
X144227241Y-84772228D01*
X144227238Y-84772232D01*
X144212826Y-84805537D01*
X144207609Y-84816187D01*
X144186305Y-84854940D01*
X144184334Y-84862615D01*
X144184334Y-84862616D01*
X144181267Y-84874562D01*
X144174863Y-84893266D01*
X144166819Y-84911855D01*
X144165580Y-84919678D01*
X144165577Y-84919688D01*
X144159901Y-84955524D01*
X144157495Y-84967144D01*
X144146500Y-85009970D01*
X144146500Y-85030224D01*
X144144949Y-85049934D01*
X144141780Y-85069943D01*
X144142526Y-85077835D01*
X144145941Y-85113961D01*
X144146500Y-85125819D01*
X144146500Y-86894056D01*
X144126498Y-86962177D01*
X144072842Y-87008670D01*
X144060377Y-87013579D01*
X144009427Y-87030578D01*
X144009425Y-87030579D01*
X144002474Y-87032898D01*
X143853311Y-87125203D01*
X143729383Y-87249347D01*
X143725543Y-87255577D01*
X143725542Y-87255578D01*
X143709371Y-87281813D01*
X143637339Y-87398671D01*
X143635034Y-87405619D01*
X143635034Y-87405620D01*
X143615726Y-87463833D01*
X143582115Y-87565165D01*
X143571500Y-87668769D01*
X143571501Y-88256230D01*
X143582384Y-88361129D01*
X143584563Y-88367660D01*
X143584564Y-88367665D01*
X143610803Y-88446312D01*
X143637898Y-88527526D01*
X143730203Y-88676689D01*
X143854347Y-88800617D01*
X143857270Y-88802419D01*
X143897408Y-88859029D01*
X143900642Y-88929952D01*
X143865018Y-88991364D01*
X143858622Y-88996916D01*
X143853311Y-89000203D01*
X143729383Y-89124347D01*
X143637339Y-89273671D01*
X143635034Y-89280619D01*
X143635034Y-89280620D01*
X143594537Y-89402715D01*
X143582115Y-89440165D01*
X143571500Y-89543769D01*
X143571501Y-90131230D01*
X143582384Y-90236129D01*
X143584563Y-90242660D01*
X143584564Y-90242665D01*
X143630344Y-90379883D01*
X143637898Y-90402526D01*
X143730203Y-90551689D01*
X143854347Y-90675617D01*
X143892553Y-90699168D01*
X143940046Y-90751938D01*
X143951470Y-90822010D01*
X143923197Y-90887134D01*
X143892740Y-90913571D01*
X143855652Y-90936522D01*
X143730695Y-91061697D01*
X143637885Y-91212262D01*
X143582203Y-91380139D01*
X143571500Y-91484600D01*
X143571500Y-92110400D01*
X143582474Y-92216166D01*
X143638450Y-92383946D01*
X143731522Y-92534348D01*
X143736704Y-92539521D01*
X143818109Y-92620784D01*
X143852188Y-92683066D01*
X143847185Y-92753886D01*
X143818264Y-92798975D01*
X143781722Y-92835581D01*
X143730695Y-92886697D01*
X143726855Y-92892927D01*
X143726854Y-92892928D01*
X143667169Y-92989755D01*
X143613661Y-93036062D01*
X143613908Y-93036480D01*
X143611600Y-93037845D01*
X143611599Y-93037846D01*
X143607087Y-93040514D01*
X143607085Y-93040515D01*
X143596466Y-93046795D01*
X143578713Y-93055492D01*
X143575670Y-93056697D01*
X143559883Y-93062948D01*
X143553468Y-93067609D01*
X143524112Y-93088937D01*
X143514195Y-93095451D01*
X143476138Y-93117958D01*
X143461817Y-93132279D01*
X143446784Y-93145119D01*
X143430393Y-93157028D01*
X143425342Y-93163134D01*
X143402202Y-93191105D01*
X143394212Y-93199884D01*
X141847747Y-94746348D01*
X141839461Y-94753888D01*
X141832982Y-94758000D01*
X141827557Y-94763777D01*
X141786357Y-94807651D01*
X141783602Y-94810493D01*
X141763865Y-94830230D01*
X141761385Y-94833427D01*
X141753682Y-94842447D01*
X141723414Y-94874679D01*
X141719595Y-94881625D01*
X141719593Y-94881628D01*
X141713652Y-94892434D01*
X141702801Y-94908953D01*
X141690386Y-94924959D01*
X141687241Y-94932228D01*
X141687238Y-94932232D01*
X141672826Y-94965537D01*
X141667609Y-94976187D01*
X141646305Y-95014940D01*
X141641631Y-95033146D01*
X141641267Y-95034562D01*
X141634863Y-95053266D01*
X141626819Y-95071855D01*
X141625580Y-95079678D01*
X141625577Y-95079688D01*
X141619901Y-95115524D01*
X141617495Y-95127144D01*
X141606500Y-95169970D01*
X141606500Y-95190224D01*
X141604949Y-95209934D01*
X141601780Y-95229943D01*
X141602526Y-95237835D01*
X141605941Y-95273961D01*
X141606500Y-95285819D01*
X141606500Y-98745406D01*
X141586498Y-98813527D01*
X141569595Y-98834501D01*
X137738143Y-102665952D01*
X137675831Y-102699978D01*
X137649048Y-102702857D01*
X107971302Y-102702857D01*
X107903181Y-102682855D01*
X107882207Y-102665952D01*
X107480437Y-102264182D01*
X107446411Y-102201870D01*
X107443532Y-102175087D01*
X107443532Y-101948134D01*
X108521500Y-101948134D01*
X108528255Y-102010316D01*
X108579385Y-102146705D01*
X108666739Y-102263261D01*
X108783295Y-102350615D01*
X108919684Y-102401745D01*
X108981866Y-102408500D01*
X110478134Y-102408500D01*
X110540316Y-102401745D01*
X110676705Y-102350615D01*
X110793261Y-102263261D01*
X110880615Y-102146705D01*
X110931745Y-102010316D01*
X110938500Y-101948134D01*
X110938500Y-100251866D01*
X110931745Y-100189684D01*
X110880615Y-100053295D01*
X110793261Y-99936739D01*
X110676705Y-99849385D01*
X110540316Y-99798255D01*
X110478134Y-99791500D01*
X108981866Y-99791500D01*
X108919684Y-99798255D01*
X108783295Y-99849385D01*
X108725940Y-99892370D01*
X108659434Y-99917217D01*
X108646561Y-99914424D01*
X108632131Y-99980761D01*
X108622373Y-99995936D01*
X108579385Y-100053295D01*
X108528255Y-100189684D01*
X108521500Y-100251866D01*
X108521500Y-101948134D01*
X107443532Y-101948134D01*
X107443532Y-100872387D01*
X107463534Y-100804266D01*
X107480437Y-100783292D01*
X108432449Y-99831280D01*
X108494760Y-99797255D01*
X108528408Y-99799662D01*
X108524692Y-99782624D01*
X108549466Y-99716090D01*
X108561271Y-99702459D01*
X109275875Y-98987855D01*
X109338185Y-98953831D01*
X109369583Y-98951037D01*
X109385850Y-98951634D01*
X109396918Y-98952040D01*
X109396922Y-98952040D01*
X109402081Y-98952229D01*
X109407201Y-98951573D01*
X109407203Y-98951573D01*
X109485834Y-98941500D01*
X109642450Y-98921437D01*
X109647401Y-98919952D01*
X109647404Y-98919951D01*
X109869612Y-98853285D01*
X109869611Y-98853285D01*
X109874562Y-98851800D01*
X109985206Y-98797596D01*
X110087533Y-98747467D01*
X110087538Y-98747464D01*
X110092184Y-98745188D01*
X110096394Y-98742185D01*
X110096399Y-98742182D01*
X110285259Y-98607469D01*
X110285264Y-98607465D01*
X110289471Y-98604464D01*
X110461126Y-98433408D01*
X110501445Y-98377299D01*
X110557439Y-98333651D01*
X110628142Y-98327205D01*
X110691106Y-98360007D01*
X110699001Y-98368324D01*
X110840372Y-98531527D01*
X111026823Y-98686322D01*
X111236053Y-98808586D01*
X111240873Y-98810426D01*
X111240878Y-98810429D01*
X111349220Y-98851800D01*
X111462442Y-98895035D01*
X111467510Y-98896066D01*
X111467513Y-98896067D01*
X111584780Y-98919925D01*
X111699910Y-98943349D01*
X111705085Y-98943539D01*
X111705087Y-98943539D01*
X111936917Y-98952040D01*
X111936921Y-98952040D01*
X111942081Y-98952229D01*
X111947201Y-98951573D01*
X111947203Y-98951573D01*
X112025834Y-98941500D01*
X112182450Y-98921437D01*
X112187401Y-98919952D01*
X112187404Y-98919951D01*
X112409612Y-98853285D01*
X112409611Y-98853285D01*
X112414562Y-98851800D01*
X112525206Y-98797596D01*
X112627533Y-98747467D01*
X112627538Y-98747464D01*
X112632184Y-98745188D01*
X112636394Y-98742185D01*
X112636399Y-98742182D01*
X112825259Y-98607469D01*
X112825264Y-98607465D01*
X112829471Y-98604464D01*
X113001126Y-98433408D01*
X113041445Y-98377299D01*
X113097439Y-98333651D01*
X113168142Y-98327205D01*
X113231106Y-98360007D01*
X113239001Y-98368324D01*
X113380372Y-98531527D01*
X113566823Y-98686322D01*
X113776053Y-98808586D01*
X113780873Y-98810426D01*
X113780878Y-98810429D01*
X113889220Y-98851800D01*
X114002442Y-98895035D01*
X114007510Y-98896066D01*
X114007513Y-98896067D01*
X114124780Y-98919925D01*
X114239910Y-98943349D01*
X114245085Y-98943539D01*
X114245087Y-98943539D01*
X114476917Y-98952040D01*
X114476921Y-98952040D01*
X114482081Y-98952229D01*
X114487201Y-98951573D01*
X114487203Y-98951573D01*
X114565834Y-98941500D01*
X114722450Y-98921437D01*
X114727401Y-98919952D01*
X114727404Y-98919951D01*
X114949612Y-98853285D01*
X114949611Y-98853285D01*
X114954562Y-98851800D01*
X115065206Y-98797596D01*
X115167533Y-98747467D01*
X115167538Y-98747464D01*
X115172184Y-98745188D01*
X115176394Y-98742185D01*
X115176399Y-98742182D01*
X115365259Y-98607469D01*
X115365264Y-98607465D01*
X115369471Y-98604464D01*
X115541126Y-98433408D01*
X115581445Y-98377299D01*
X115637439Y-98333651D01*
X115708142Y-98327205D01*
X115771106Y-98360007D01*
X115779001Y-98368324D01*
X115920372Y-98531527D01*
X116106823Y-98686322D01*
X116316053Y-98808586D01*
X116320873Y-98810426D01*
X116320878Y-98810429D01*
X116429220Y-98851800D01*
X116542442Y-98895035D01*
X116547510Y-98896066D01*
X116547513Y-98896067D01*
X116664780Y-98919925D01*
X116779910Y-98943349D01*
X116785085Y-98943539D01*
X116785087Y-98943539D01*
X117016917Y-98952040D01*
X117016921Y-98952040D01*
X117022081Y-98952229D01*
X117027201Y-98951573D01*
X117027203Y-98951573D01*
X117105834Y-98941500D01*
X117262450Y-98921437D01*
X117267401Y-98919952D01*
X117267404Y-98919951D01*
X117489612Y-98853285D01*
X117489611Y-98853285D01*
X117494562Y-98851800D01*
X117605206Y-98797596D01*
X117707533Y-98747467D01*
X117707538Y-98747464D01*
X117712184Y-98745188D01*
X117716394Y-98742185D01*
X117716399Y-98742182D01*
X117905259Y-98607469D01*
X117905264Y-98607465D01*
X117909471Y-98604464D01*
X118081126Y-98433408D01*
X118121445Y-98377299D01*
X118177439Y-98333651D01*
X118248142Y-98327205D01*
X118311106Y-98360007D01*
X118319001Y-98368324D01*
X118460372Y-98531527D01*
X118646823Y-98686322D01*
X118856053Y-98808586D01*
X118860873Y-98810426D01*
X118860878Y-98810429D01*
X118969220Y-98851800D01*
X119082442Y-98895035D01*
X119087510Y-98896066D01*
X119087513Y-98896067D01*
X119204780Y-98919925D01*
X119319910Y-98943349D01*
X119325085Y-98943539D01*
X119325087Y-98943539D01*
X119556917Y-98952040D01*
X119556921Y-98952040D01*
X119562081Y-98952229D01*
X119567201Y-98951573D01*
X119567203Y-98951573D01*
X119645834Y-98941500D01*
X119802450Y-98921437D01*
X119807401Y-98919952D01*
X119807404Y-98919951D01*
X120029612Y-98853285D01*
X120029611Y-98853285D01*
X120034562Y-98851800D01*
X120145206Y-98797596D01*
X120247533Y-98747467D01*
X120247538Y-98747464D01*
X120252184Y-98745188D01*
X120256394Y-98742185D01*
X120256399Y-98742182D01*
X120445259Y-98607469D01*
X120445264Y-98607465D01*
X120449471Y-98604464D01*
X120621126Y-98433408D01*
X120661445Y-98377299D01*
X120717439Y-98333651D01*
X120788142Y-98327205D01*
X120851106Y-98360007D01*
X120859001Y-98368324D01*
X121000372Y-98531527D01*
X121186823Y-98686322D01*
X121396053Y-98808586D01*
X121400873Y-98810426D01*
X121400878Y-98810429D01*
X121509220Y-98851800D01*
X121622442Y-98895035D01*
X121627510Y-98896066D01*
X121627513Y-98896067D01*
X121744780Y-98919925D01*
X121859910Y-98943349D01*
X121865085Y-98943539D01*
X121865087Y-98943539D01*
X122096917Y-98952040D01*
X122096921Y-98952040D01*
X122102081Y-98952229D01*
X122107201Y-98951573D01*
X122107203Y-98951573D01*
X122185834Y-98941500D01*
X122342450Y-98921437D01*
X122347401Y-98919952D01*
X122347404Y-98919951D01*
X122569612Y-98853285D01*
X122569611Y-98853285D01*
X122574562Y-98851800D01*
X122685206Y-98797596D01*
X122787533Y-98747467D01*
X122787538Y-98747464D01*
X122792184Y-98745188D01*
X122796394Y-98742185D01*
X122796399Y-98742182D01*
X122985259Y-98607469D01*
X122985264Y-98607465D01*
X122989471Y-98604464D01*
X123161126Y-98433408D01*
X123201445Y-98377299D01*
X123257439Y-98333651D01*
X123328142Y-98327205D01*
X123391106Y-98360007D01*
X123399001Y-98368324D01*
X123540372Y-98531527D01*
X123726823Y-98686322D01*
X123936053Y-98808586D01*
X123940873Y-98810426D01*
X123940878Y-98810429D01*
X124049220Y-98851800D01*
X124162442Y-98895035D01*
X124167510Y-98896066D01*
X124167513Y-98896067D01*
X124284780Y-98919925D01*
X124399910Y-98943349D01*
X124405085Y-98943539D01*
X124405087Y-98943539D01*
X124636917Y-98952040D01*
X124636921Y-98952040D01*
X124642081Y-98952229D01*
X124647201Y-98951573D01*
X124647203Y-98951573D01*
X124725834Y-98941500D01*
X124882450Y-98921437D01*
X124887401Y-98919952D01*
X124887404Y-98919951D01*
X125109612Y-98853285D01*
X125109611Y-98853285D01*
X125114562Y-98851800D01*
X125225206Y-98797596D01*
X125327533Y-98747467D01*
X125327538Y-98747464D01*
X125332184Y-98745188D01*
X125336394Y-98742185D01*
X125336399Y-98742182D01*
X125525259Y-98607469D01*
X125525264Y-98607465D01*
X125529471Y-98604464D01*
X125701126Y-98433408D01*
X125741445Y-98377299D01*
X125797439Y-98333651D01*
X125868142Y-98327205D01*
X125931106Y-98360007D01*
X125939001Y-98368324D01*
X126080372Y-98531527D01*
X126266823Y-98686322D01*
X126476053Y-98808586D01*
X126480873Y-98810426D01*
X126480878Y-98810429D01*
X126589220Y-98851800D01*
X126702442Y-98895035D01*
X126707510Y-98896066D01*
X126707513Y-98896067D01*
X126824780Y-98919925D01*
X126939910Y-98943349D01*
X126945085Y-98943539D01*
X126945087Y-98943539D01*
X127176917Y-98952040D01*
X127176921Y-98952040D01*
X127182081Y-98952229D01*
X127187201Y-98951573D01*
X127187203Y-98951573D01*
X127265834Y-98941500D01*
X127422450Y-98921437D01*
X127427401Y-98919952D01*
X127427404Y-98919951D01*
X127649612Y-98853285D01*
X127649611Y-98853285D01*
X127654562Y-98851800D01*
X127765206Y-98797596D01*
X127867533Y-98747467D01*
X127867538Y-98747464D01*
X127872184Y-98745188D01*
X127876394Y-98742185D01*
X127876399Y-98742182D01*
X128065259Y-98607469D01*
X128065264Y-98607465D01*
X128069471Y-98604464D01*
X128241126Y-98433408D01*
X128281445Y-98377299D01*
X128337439Y-98333651D01*
X128408142Y-98327205D01*
X128471106Y-98360007D01*
X128479001Y-98368324D01*
X128620372Y-98531527D01*
X128806823Y-98686322D01*
X129016053Y-98808586D01*
X129020873Y-98810426D01*
X129020878Y-98810429D01*
X129129220Y-98851800D01*
X129242442Y-98895035D01*
X129247510Y-98896066D01*
X129247513Y-98896067D01*
X129364780Y-98919925D01*
X129479910Y-98943349D01*
X129485085Y-98943539D01*
X129485087Y-98943539D01*
X129716917Y-98952040D01*
X129716921Y-98952040D01*
X129722081Y-98952229D01*
X129727201Y-98951573D01*
X129727203Y-98951573D01*
X129805834Y-98941500D01*
X129962450Y-98921437D01*
X129967401Y-98919952D01*
X129967404Y-98919951D01*
X130189612Y-98853285D01*
X130189611Y-98853285D01*
X130194562Y-98851800D01*
X130305206Y-98797596D01*
X130407533Y-98747467D01*
X130407538Y-98747464D01*
X130412184Y-98745188D01*
X130416394Y-98742185D01*
X130416399Y-98742182D01*
X130605259Y-98607469D01*
X130605264Y-98607465D01*
X130609471Y-98604464D01*
X130781126Y-98433408D01*
X130821445Y-98377299D01*
X130877439Y-98333651D01*
X130948142Y-98327205D01*
X131011106Y-98360007D01*
X131019001Y-98368324D01*
X131160372Y-98531527D01*
X131346823Y-98686322D01*
X131556053Y-98808586D01*
X131560873Y-98810426D01*
X131560878Y-98810429D01*
X131669220Y-98851800D01*
X131782442Y-98895035D01*
X131787510Y-98896066D01*
X131787513Y-98896067D01*
X131904780Y-98919925D01*
X132019910Y-98943349D01*
X132025085Y-98943539D01*
X132025087Y-98943539D01*
X132256917Y-98952040D01*
X132256921Y-98952040D01*
X132262081Y-98952229D01*
X132267201Y-98951573D01*
X132267203Y-98951573D01*
X132345834Y-98941500D01*
X132502450Y-98921437D01*
X132507401Y-98919952D01*
X132507404Y-98919951D01*
X132729612Y-98853285D01*
X132729611Y-98853285D01*
X132734562Y-98851800D01*
X132845206Y-98797596D01*
X132947533Y-98747467D01*
X132947538Y-98747464D01*
X132952184Y-98745188D01*
X132956394Y-98742185D01*
X132956399Y-98742182D01*
X133145259Y-98607469D01*
X133145264Y-98607465D01*
X133149471Y-98604464D01*
X133321126Y-98433408D01*
X133361445Y-98377299D01*
X133417439Y-98333651D01*
X133488142Y-98327205D01*
X133551106Y-98360007D01*
X133559001Y-98368324D01*
X133700372Y-98531527D01*
X133886823Y-98686322D01*
X134096053Y-98808586D01*
X134100873Y-98810426D01*
X134100878Y-98810429D01*
X134209220Y-98851800D01*
X134322442Y-98895035D01*
X134327510Y-98896066D01*
X134327513Y-98896067D01*
X134444780Y-98919925D01*
X134559910Y-98943349D01*
X134565085Y-98943539D01*
X134565087Y-98943539D01*
X134796917Y-98952040D01*
X134796921Y-98952040D01*
X134802081Y-98952229D01*
X134807201Y-98951573D01*
X134807203Y-98951573D01*
X134885834Y-98941500D01*
X135042450Y-98921437D01*
X135047401Y-98919952D01*
X135047404Y-98919951D01*
X135269612Y-98853285D01*
X135269611Y-98853285D01*
X135274562Y-98851800D01*
X135385206Y-98797596D01*
X135487533Y-98747467D01*
X135487538Y-98747464D01*
X135492184Y-98745188D01*
X135496394Y-98742185D01*
X135496399Y-98742182D01*
X135685259Y-98607469D01*
X135685264Y-98607465D01*
X135689471Y-98604464D01*
X135861126Y-98433408D01*
X135901445Y-98377299D01*
X135957439Y-98333651D01*
X136028142Y-98327205D01*
X136091106Y-98360007D01*
X136099001Y-98368324D01*
X136240372Y-98531527D01*
X136426823Y-98686322D01*
X136636053Y-98808586D01*
X136640873Y-98810426D01*
X136640878Y-98810429D01*
X136749220Y-98851800D01*
X136862442Y-98895035D01*
X136867510Y-98896066D01*
X136867513Y-98896067D01*
X136984780Y-98919925D01*
X137099910Y-98943349D01*
X137105085Y-98943539D01*
X137105087Y-98943539D01*
X137336917Y-98952040D01*
X137336921Y-98952040D01*
X137342081Y-98952229D01*
X137347201Y-98951573D01*
X137347203Y-98951573D01*
X137425834Y-98941500D01*
X137582450Y-98921437D01*
X137587401Y-98919952D01*
X137587404Y-98919951D01*
X137809612Y-98853285D01*
X137809611Y-98853285D01*
X137814562Y-98851800D01*
X137925206Y-98797596D01*
X138027533Y-98747467D01*
X138027538Y-98747464D01*
X138032184Y-98745188D01*
X138036394Y-98742185D01*
X138036399Y-98742182D01*
X138225259Y-98607469D01*
X138225264Y-98607465D01*
X138229471Y-98604464D01*
X138401126Y-98433408D01*
X138441445Y-98377299D01*
X138497439Y-98333651D01*
X138568142Y-98327205D01*
X138631106Y-98360007D01*
X138639001Y-98368324D01*
X138780372Y-98531527D01*
X138966823Y-98686322D01*
X139176053Y-98808586D01*
X139180873Y-98810426D01*
X139180878Y-98810429D01*
X139289220Y-98851800D01*
X139402442Y-98895035D01*
X139407510Y-98896066D01*
X139407513Y-98896067D01*
X139524780Y-98919925D01*
X139639910Y-98943349D01*
X139645085Y-98943539D01*
X139645087Y-98943539D01*
X139876917Y-98952040D01*
X139876921Y-98952040D01*
X139882081Y-98952229D01*
X139887201Y-98951573D01*
X139887203Y-98951573D01*
X139965834Y-98941500D01*
X140122450Y-98921437D01*
X140127401Y-98919952D01*
X140127404Y-98919951D01*
X140349612Y-98853285D01*
X140349611Y-98853285D01*
X140354562Y-98851800D01*
X140465206Y-98797596D01*
X140567533Y-98747467D01*
X140567538Y-98747464D01*
X140572184Y-98745188D01*
X140576394Y-98742185D01*
X140576399Y-98742182D01*
X140765259Y-98607469D01*
X140765264Y-98607465D01*
X140769471Y-98604464D01*
X140941126Y-98433408D01*
X141082537Y-98236613D01*
X141087311Y-98226955D01*
X141187614Y-98024006D01*
X141189908Y-98019365D01*
X141247564Y-97829598D01*
X141258851Y-97792449D01*
X141258852Y-97792443D01*
X141260355Y-97787497D01*
X141285580Y-97595896D01*
X141291549Y-97550558D01*
X141291549Y-97550554D01*
X141291986Y-97547237D01*
X141293751Y-97475000D01*
X141273895Y-97233482D01*
X141214859Y-96998449D01*
X141118228Y-96776215D01*
X141074058Y-96707939D01*
X140989407Y-96577087D01*
X140989405Y-96577084D01*
X140986599Y-96572747D01*
X140823506Y-96393510D01*
X140633328Y-96243317D01*
X140509042Y-96174707D01*
X140425705Y-96128702D01*
X140425702Y-96128701D01*
X140421174Y-96126201D01*
X140253458Y-96066810D01*
X140197613Y-96047034D01*
X140197610Y-96047033D01*
X140192741Y-96045309D01*
X140187652Y-96044402D01*
X140187650Y-96044402D01*
X140114394Y-96031353D01*
X139954163Y-96002812D01*
X139863635Y-96001706D01*
X139717018Y-95999914D01*
X139717016Y-95999914D01*
X139711848Y-95999851D01*
X139472303Y-96036507D01*
X139241961Y-96111794D01*
X139213144Y-96126795D01*
X139067984Y-96202361D01*
X139027009Y-96223691D01*
X139022876Y-96226794D01*
X139022873Y-96226796D01*
X138837353Y-96366088D01*
X138833218Y-96369193D01*
X138665795Y-96544392D01*
X138650234Y-96567204D01*
X138595324Y-96612205D01*
X138524799Y-96620376D01*
X138461052Y-96589122D01*
X138447987Y-96574893D01*
X138446599Y-96572747D01*
X138441555Y-96567203D01*
X138286981Y-96397329D01*
X138283506Y-96393510D01*
X138093328Y-96243317D01*
X137969042Y-96174707D01*
X137885705Y-96128702D01*
X137885702Y-96128701D01*
X137881174Y-96126201D01*
X137713458Y-96066810D01*
X137657613Y-96047034D01*
X137657610Y-96047033D01*
X137652741Y-96045309D01*
X137647652Y-96044402D01*
X137647650Y-96044402D01*
X137574394Y-96031353D01*
X137414163Y-96002812D01*
X137323635Y-96001706D01*
X137177018Y-95999914D01*
X137177016Y-95999914D01*
X137171848Y-95999851D01*
X136932303Y-96036507D01*
X136701961Y-96111794D01*
X136673144Y-96126795D01*
X136527984Y-96202361D01*
X136487009Y-96223691D01*
X136482876Y-96226794D01*
X136482873Y-96226796D01*
X136297353Y-96366088D01*
X136293218Y-96369193D01*
X136125795Y-96544392D01*
X136110234Y-96567204D01*
X136055324Y-96612205D01*
X135984799Y-96620376D01*
X135921052Y-96589122D01*
X135907987Y-96574893D01*
X135906599Y-96572747D01*
X135901555Y-96567203D01*
X135746981Y-96397329D01*
X135743506Y-96393510D01*
X135553328Y-96243317D01*
X135429042Y-96174707D01*
X135345705Y-96128702D01*
X135345702Y-96128701D01*
X135341174Y-96126201D01*
X135173458Y-96066810D01*
X135117613Y-96047034D01*
X135117610Y-96047033D01*
X135112741Y-96045309D01*
X135107652Y-96044402D01*
X135107650Y-96044402D01*
X135034394Y-96031353D01*
X134874163Y-96002812D01*
X134783635Y-96001706D01*
X134637018Y-95999914D01*
X134637016Y-95999914D01*
X134631848Y-95999851D01*
X134392303Y-96036507D01*
X134161961Y-96111794D01*
X134133144Y-96126795D01*
X133987984Y-96202361D01*
X133947009Y-96223691D01*
X133942876Y-96226794D01*
X133942873Y-96226796D01*
X133757353Y-96366088D01*
X133753218Y-96369193D01*
X133585795Y-96544392D01*
X133570234Y-96567204D01*
X133515324Y-96612205D01*
X133444799Y-96620376D01*
X133381052Y-96589122D01*
X133367987Y-96574893D01*
X133366599Y-96572747D01*
X133361555Y-96567203D01*
X133206981Y-96397329D01*
X133203506Y-96393510D01*
X133013328Y-96243317D01*
X132889042Y-96174707D01*
X132805705Y-96128702D01*
X132805702Y-96128701D01*
X132801174Y-96126201D01*
X132633458Y-96066810D01*
X132577613Y-96047034D01*
X132577610Y-96047033D01*
X132572741Y-96045309D01*
X132567652Y-96044402D01*
X132567650Y-96044402D01*
X132494394Y-96031353D01*
X132334163Y-96002812D01*
X132243635Y-96001706D01*
X132097018Y-95999914D01*
X132097016Y-95999914D01*
X132091848Y-95999851D01*
X131852303Y-96036507D01*
X131621961Y-96111794D01*
X131593144Y-96126795D01*
X131447984Y-96202361D01*
X131407009Y-96223691D01*
X131402876Y-96226794D01*
X131402873Y-96226796D01*
X131217353Y-96366088D01*
X131213218Y-96369193D01*
X131045795Y-96544392D01*
X131030234Y-96567204D01*
X130975324Y-96612205D01*
X130904799Y-96620376D01*
X130841052Y-96589122D01*
X130827987Y-96574893D01*
X130826599Y-96572747D01*
X130821555Y-96567203D01*
X130666981Y-96397329D01*
X130663506Y-96393510D01*
X130473328Y-96243317D01*
X130349042Y-96174707D01*
X130265705Y-96128702D01*
X130265702Y-96128701D01*
X130261174Y-96126201D01*
X130093458Y-96066810D01*
X130037613Y-96047034D01*
X130037610Y-96047033D01*
X130032741Y-96045309D01*
X130027652Y-96044402D01*
X130027650Y-96044402D01*
X129954394Y-96031353D01*
X129794163Y-96002812D01*
X129703635Y-96001706D01*
X129557018Y-95999914D01*
X129557016Y-95999914D01*
X129551848Y-95999851D01*
X129312303Y-96036507D01*
X129081961Y-96111794D01*
X129053144Y-96126795D01*
X128907984Y-96202361D01*
X128867009Y-96223691D01*
X128862876Y-96226794D01*
X128862873Y-96226796D01*
X128677353Y-96366088D01*
X128673218Y-96369193D01*
X128505795Y-96544392D01*
X128490234Y-96567204D01*
X128435324Y-96612205D01*
X128364799Y-96620376D01*
X128301052Y-96589122D01*
X128287987Y-96574893D01*
X128286599Y-96572747D01*
X128281555Y-96567203D01*
X128126981Y-96397329D01*
X128123506Y-96393510D01*
X127933328Y-96243317D01*
X127809042Y-96174707D01*
X127725705Y-96128702D01*
X127725702Y-96128701D01*
X127721174Y-96126201D01*
X127553458Y-96066810D01*
X127497613Y-96047034D01*
X127497610Y-96047033D01*
X127492741Y-96045309D01*
X127487652Y-96044402D01*
X127487650Y-96044402D01*
X127414394Y-96031353D01*
X127254163Y-96002812D01*
X127163635Y-96001706D01*
X127017018Y-95999914D01*
X127017016Y-95999914D01*
X127011848Y-95999851D01*
X126772303Y-96036507D01*
X126541961Y-96111794D01*
X126513144Y-96126795D01*
X126367984Y-96202361D01*
X126327009Y-96223691D01*
X126322876Y-96226794D01*
X126322873Y-96226796D01*
X126137353Y-96366088D01*
X126133218Y-96369193D01*
X125965795Y-96544392D01*
X125950234Y-96567204D01*
X125895324Y-96612205D01*
X125824799Y-96620376D01*
X125761052Y-96589122D01*
X125747987Y-96574893D01*
X125746599Y-96572747D01*
X125741555Y-96567203D01*
X125586981Y-96397329D01*
X125583506Y-96393510D01*
X125393328Y-96243317D01*
X125269042Y-96174707D01*
X125185705Y-96128702D01*
X125185702Y-96128701D01*
X125181174Y-96126201D01*
X125013458Y-96066810D01*
X124957613Y-96047034D01*
X124957610Y-96047033D01*
X124952741Y-96045309D01*
X124947652Y-96044402D01*
X124947650Y-96044402D01*
X124874394Y-96031353D01*
X124714163Y-96002812D01*
X124623635Y-96001706D01*
X124477018Y-95999914D01*
X124477016Y-95999914D01*
X124471848Y-95999851D01*
X124232303Y-96036507D01*
X124001961Y-96111794D01*
X123973144Y-96126795D01*
X123827984Y-96202361D01*
X123787009Y-96223691D01*
X123782876Y-96226794D01*
X123782873Y-96226796D01*
X123597353Y-96366088D01*
X123593218Y-96369193D01*
X123425795Y-96544392D01*
X123410234Y-96567204D01*
X123355324Y-96612205D01*
X123284799Y-96620376D01*
X123221052Y-96589122D01*
X123207987Y-96574893D01*
X123206599Y-96572747D01*
X123201555Y-96567203D01*
X123046981Y-96397329D01*
X123043506Y-96393510D01*
X122853328Y-96243317D01*
X122729042Y-96174707D01*
X122645705Y-96128702D01*
X122645702Y-96128701D01*
X122641174Y-96126201D01*
X122473458Y-96066810D01*
X122417613Y-96047034D01*
X122417610Y-96047033D01*
X122412741Y-96045309D01*
X122407652Y-96044402D01*
X122407650Y-96044402D01*
X122334394Y-96031353D01*
X122174163Y-96002812D01*
X122083635Y-96001706D01*
X121937018Y-95999914D01*
X121937016Y-95999914D01*
X121931848Y-95999851D01*
X121692303Y-96036507D01*
X121461961Y-96111794D01*
X121433144Y-96126795D01*
X121287984Y-96202361D01*
X121247009Y-96223691D01*
X121242876Y-96226794D01*
X121242873Y-96226796D01*
X121057353Y-96366088D01*
X121053218Y-96369193D01*
X120885795Y-96544392D01*
X120870234Y-96567204D01*
X120815324Y-96612205D01*
X120744799Y-96620376D01*
X120681052Y-96589122D01*
X120667987Y-96574893D01*
X120666599Y-96572747D01*
X120661555Y-96567203D01*
X120506981Y-96397329D01*
X120503506Y-96393510D01*
X120313328Y-96243317D01*
X120189042Y-96174707D01*
X120105705Y-96128702D01*
X120105702Y-96128701D01*
X120101174Y-96126201D01*
X119933458Y-96066810D01*
X119877613Y-96047034D01*
X119877610Y-96047033D01*
X119872741Y-96045309D01*
X119867652Y-96044402D01*
X119867650Y-96044402D01*
X119794394Y-96031353D01*
X119634163Y-96002812D01*
X119543635Y-96001706D01*
X119397018Y-95999914D01*
X119397016Y-95999914D01*
X119391848Y-95999851D01*
X119152303Y-96036507D01*
X118921961Y-96111794D01*
X118893144Y-96126795D01*
X118747984Y-96202361D01*
X118707009Y-96223691D01*
X118702876Y-96226794D01*
X118702873Y-96226796D01*
X118517353Y-96366088D01*
X118513218Y-96369193D01*
X118345795Y-96544392D01*
X118330234Y-96567204D01*
X118275324Y-96612205D01*
X118204799Y-96620376D01*
X118141052Y-96589122D01*
X118127987Y-96574893D01*
X118126599Y-96572747D01*
X118121555Y-96567203D01*
X117966981Y-96397329D01*
X117963506Y-96393510D01*
X117773328Y-96243317D01*
X117653603Y-96177225D01*
X117603636Y-96126795D01*
X117588500Y-96066919D01*
X117588500Y-94531267D01*
X117589027Y-94520084D01*
X117590702Y-94512591D01*
X117588562Y-94444500D01*
X117588500Y-94440543D01*
X117588500Y-94412644D01*
X117587996Y-94408653D01*
X117587063Y-94396811D01*
X117585923Y-94360536D01*
X117585674Y-94352611D01*
X117583462Y-94344997D01*
X117583461Y-94344992D01*
X117580023Y-94333159D01*
X117576012Y-94313795D01*
X117574467Y-94301564D01*
X117573474Y-94293703D01*
X117570557Y-94286336D01*
X117570556Y-94286331D01*
X117557198Y-94252592D01*
X117553354Y-94241365D01*
X117545394Y-94213968D01*
X117541018Y-94198907D01*
X117530707Y-94181472D01*
X117522012Y-94163724D01*
X117514552Y-94144883D01*
X117516264Y-94144205D01*
X117503500Y-94094492D01*
X117503500Y-93479600D01*
X117503163Y-93476350D01*
X117493238Y-93380692D01*
X117493237Y-93380688D01*
X117492526Y-93373834D01*
X117472186Y-93312866D01*
X117438868Y-93213002D01*
X117436550Y-93206054D01*
X117343478Y-93055652D01*
X117218303Y-92930695D01*
X117155334Y-92891880D01*
X117073968Y-92841725D01*
X117073966Y-92841724D01*
X117067738Y-92837885D01*
X116951154Y-92799216D01*
X116906389Y-92784368D01*
X116906387Y-92784368D01*
X116899861Y-92782203D01*
X116893025Y-92781503D01*
X116893022Y-92781502D01*
X116849969Y-92777091D01*
X116795400Y-92771500D01*
X116169600Y-92771500D01*
X116166354Y-92771837D01*
X116166350Y-92771837D01*
X116070692Y-92781762D01*
X116070688Y-92781763D01*
X116063834Y-92782474D01*
X116057298Y-92784655D01*
X116057296Y-92784655D01*
X116013652Y-92799216D01*
X115896054Y-92838450D01*
X115745652Y-92931522D01*
X115740479Y-92936704D01*
X115658862Y-93018463D01*
X115596579Y-93052542D01*
X115525759Y-93047539D01*
X115480671Y-93018618D01*
X115398171Y-92936261D01*
X115386760Y-92927249D01*
X115248757Y-92842184D01*
X115235576Y-92836037D01*
X115081290Y-92784862D01*
X115067914Y-92781995D01*
X114973562Y-92772328D01*
X114967145Y-92772000D01*
X114929615Y-92772000D01*
X114914376Y-92776475D01*
X114913171Y-92777865D01*
X114911500Y-92785548D01*
X114911500Y-95169884D01*
X114915975Y-95185123D01*
X114917365Y-95186328D01*
X114925048Y-95187999D01*
X114967095Y-95187999D01*
X114973614Y-95187662D01*
X115069206Y-95177743D01*
X115082600Y-95174851D01*
X115236784Y-95123412D01*
X115249962Y-95117239D01*
X115387807Y-95031937D01*
X115399208Y-95022901D01*
X115480430Y-94941538D01*
X115542713Y-94907459D01*
X115613533Y-94912462D01*
X115658620Y-94941383D01*
X115741512Y-95024130D01*
X115741517Y-95024134D01*
X115746697Y-95029305D01*
X115752927Y-95033145D01*
X115752928Y-95033146D01*
X115890288Y-95117816D01*
X115897262Y-95122115D01*
X115977005Y-95148564D01*
X116058611Y-95175632D01*
X116058613Y-95175632D01*
X116065139Y-95177797D01*
X116071975Y-95178497D01*
X116071978Y-95178498D01*
X116115031Y-95182909D01*
X116169600Y-95188500D01*
X116195500Y-95188500D01*
X116263621Y-95208502D01*
X116310114Y-95262158D01*
X116321500Y-95314500D01*
X116321500Y-96066810D01*
X116301498Y-96134931D01*
X116253680Y-96178573D01*
X116207984Y-96202361D01*
X116167009Y-96223691D01*
X116162876Y-96226794D01*
X116162873Y-96226796D01*
X115977353Y-96366088D01*
X115973218Y-96369193D01*
X115805795Y-96544392D01*
X115790234Y-96567204D01*
X115735324Y-96612205D01*
X115664799Y-96620376D01*
X115601052Y-96589122D01*
X115587987Y-96574893D01*
X115586599Y-96572747D01*
X115581555Y-96567203D01*
X115426981Y-96397329D01*
X115423506Y-96393510D01*
X115233328Y-96243317D01*
X115109042Y-96174707D01*
X115025705Y-96128702D01*
X115025702Y-96128701D01*
X115021174Y-96126201D01*
X114853458Y-96066810D01*
X114797613Y-96047034D01*
X114797610Y-96047033D01*
X114792741Y-96045309D01*
X114787652Y-96044402D01*
X114787650Y-96044402D01*
X114714394Y-96031353D01*
X114554163Y-96002812D01*
X114463635Y-96001706D01*
X114317018Y-95999914D01*
X114317016Y-95999914D01*
X114311848Y-95999851D01*
X114072303Y-96036507D01*
X113841961Y-96111794D01*
X113813144Y-96126795D01*
X113667984Y-96202361D01*
X113627009Y-96223691D01*
X113622876Y-96226794D01*
X113622873Y-96226796D01*
X113437353Y-96366088D01*
X113433218Y-96369193D01*
X113265795Y-96544392D01*
X113250234Y-96567204D01*
X113195324Y-96612205D01*
X113124799Y-96620376D01*
X113061052Y-96589122D01*
X113047987Y-96574893D01*
X113046599Y-96572747D01*
X113041555Y-96567203D01*
X112886981Y-96397329D01*
X112883506Y-96393510D01*
X112693328Y-96243317D01*
X112569042Y-96174707D01*
X112485705Y-96128702D01*
X112485702Y-96128701D01*
X112481174Y-96126201D01*
X112313458Y-96066810D01*
X112257613Y-96047034D01*
X112257610Y-96047033D01*
X112252741Y-96045309D01*
X112247652Y-96044402D01*
X112247650Y-96044402D01*
X112174394Y-96031353D01*
X112014163Y-96002812D01*
X111923635Y-96001706D01*
X111777018Y-95999914D01*
X111777016Y-95999914D01*
X111771848Y-95999851D01*
X111532303Y-96036507D01*
X111301961Y-96111794D01*
X111273144Y-96126795D01*
X111127984Y-96202361D01*
X111087009Y-96223691D01*
X111082876Y-96226794D01*
X111082873Y-96226796D01*
X110897353Y-96366088D01*
X110893218Y-96369193D01*
X110725795Y-96544392D01*
X110710234Y-96567204D01*
X110655324Y-96612205D01*
X110584799Y-96620376D01*
X110521052Y-96589122D01*
X110507987Y-96574893D01*
X110506599Y-96572747D01*
X110501555Y-96567203D01*
X110346981Y-96397329D01*
X110343506Y-96393510D01*
X110153328Y-96243317D01*
X110029042Y-96174707D01*
X109945705Y-96128702D01*
X109945702Y-96128701D01*
X109941174Y-96126201D01*
X109773458Y-96066810D01*
X109717613Y-96047034D01*
X109717610Y-96047033D01*
X109712741Y-96045309D01*
X109707652Y-96044402D01*
X109707650Y-96044402D01*
X109634394Y-96031353D01*
X109474163Y-96002812D01*
X109383635Y-96001706D01*
X109237018Y-95999914D01*
X109237016Y-95999914D01*
X109231848Y-95999851D01*
X108992303Y-96036507D01*
X108761961Y-96111794D01*
X108733144Y-96126795D01*
X108587984Y-96202361D01*
X108547009Y-96223691D01*
X108542876Y-96226794D01*
X108542873Y-96226796D01*
X108357353Y-96366088D01*
X108353218Y-96369193D01*
X108185795Y-96544392D01*
X108170234Y-96567204D01*
X108115324Y-96612205D01*
X108044799Y-96620376D01*
X107981052Y-96589122D01*
X107967987Y-96574893D01*
X107966599Y-96572747D01*
X107961555Y-96567203D01*
X107806981Y-96397329D01*
X107803506Y-96393510D01*
X107613328Y-96243317D01*
X107489042Y-96174707D01*
X107405705Y-96128702D01*
X107405702Y-96128701D01*
X107401174Y-96126201D01*
X107233458Y-96066810D01*
X107177613Y-96047034D01*
X107177610Y-96047033D01*
X107172741Y-96045309D01*
X107167652Y-96044402D01*
X107167650Y-96044402D01*
X107094394Y-96031353D01*
X106934163Y-96002812D01*
X106843635Y-96001706D01*
X106697018Y-95999914D01*
X106697016Y-95999914D01*
X106691848Y-95999851D01*
X106452303Y-96036507D01*
X106221961Y-96111794D01*
X106193144Y-96126795D01*
X106047984Y-96202361D01*
X106007009Y-96223691D01*
X106002876Y-96226794D01*
X106002873Y-96226796D01*
X105817353Y-96366088D01*
X105813218Y-96369193D01*
X105645795Y-96544392D01*
X105630234Y-96567204D01*
X105575324Y-96612205D01*
X105504799Y-96620376D01*
X105441052Y-96589122D01*
X105427987Y-96574893D01*
X105426599Y-96572747D01*
X105421555Y-96567203D01*
X105266981Y-96397329D01*
X105263506Y-96393510D01*
X105073328Y-96243317D01*
X104949042Y-96174707D01*
X104865705Y-96128702D01*
X104865702Y-96128701D01*
X104861174Y-96126201D01*
X104693458Y-96066810D01*
X104637613Y-96047034D01*
X104637610Y-96047033D01*
X104632741Y-96045309D01*
X104627652Y-96044402D01*
X104627650Y-96044402D01*
X104554394Y-96031353D01*
X104394163Y-96002812D01*
X104303635Y-96001706D01*
X104157018Y-95999914D01*
X104157016Y-95999914D01*
X104151848Y-95999851D01*
X103912303Y-96036507D01*
X103681961Y-96111794D01*
X103653144Y-96126795D01*
X103507984Y-96202361D01*
X103467009Y-96223691D01*
X103462876Y-96226794D01*
X103462873Y-96226796D01*
X103277353Y-96366088D01*
X103273218Y-96369193D01*
X103105795Y-96544392D01*
X103102884Y-96548660D01*
X103102880Y-96548665D01*
X103086229Y-96573075D01*
X102969234Y-96744583D01*
X102867203Y-96964390D01*
X102865821Y-96969372D01*
X102865821Y-96969373D01*
X102845120Y-97044020D01*
X102802442Y-97197910D01*
X102801893Y-97203047D01*
X102780605Y-97402240D01*
X102776690Y-97438871D01*
X94495379Y-97438871D01*
X94495379Y-94477095D01*
X113637001Y-94477095D01*
X113637338Y-94483614D01*
X113647257Y-94579206D01*
X113650149Y-94592600D01*
X113701588Y-94746784D01*
X113707761Y-94759962D01*
X113793063Y-94897807D01*
X113802099Y-94909208D01*
X113916829Y-95023739D01*
X113928240Y-95032751D01*
X114066243Y-95117816D01*
X114079424Y-95123963D01*
X114233710Y-95175138D01*
X114247086Y-95178005D01*
X114341438Y-95187672D01*
X114347854Y-95188000D01*
X114385385Y-95188000D01*
X114400624Y-95183525D01*
X114401829Y-95182135D01*
X114403500Y-95174452D01*
X114403500Y-94252115D01*
X114399025Y-94236876D01*
X114397635Y-94235671D01*
X114389952Y-94234000D01*
X113655116Y-94234000D01*
X113639877Y-94238475D01*
X113638672Y-94239865D01*
X113637001Y-94247548D01*
X113637001Y-94477095D01*
X94495379Y-94477095D01*
X94495379Y-93707885D01*
X113637000Y-93707885D01*
X113641475Y-93723124D01*
X113642865Y-93724329D01*
X113650548Y-93726000D01*
X114385385Y-93726000D01*
X114400624Y-93721525D01*
X114401829Y-93720135D01*
X114403500Y-93712452D01*
X114403500Y-92790116D01*
X114399025Y-92774877D01*
X114397635Y-92773672D01*
X114389952Y-92772001D01*
X114347905Y-92772001D01*
X114341386Y-92772338D01*
X114245794Y-92782257D01*
X114232400Y-92785149D01*
X114078216Y-92836588D01*
X114065038Y-92842761D01*
X113927193Y-92928063D01*
X113915792Y-92937099D01*
X113801261Y-93051829D01*
X113792249Y-93063240D01*
X113707184Y-93201243D01*
X113701037Y-93214424D01*
X113649862Y-93368710D01*
X113646995Y-93382086D01*
X113637328Y-93476438D01*
X113637000Y-93482855D01*
X113637000Y-93707885D01*
X94495379Y-93707885D01*
X94495379Y-87610400D01*
X106716500Y-87610400D01*
X106716837Y-87613646D01*
X106716837Y-87613650D01*
X106726706Y-87708763D01*
X106727474Y-87716166D01*
X106783450Y-87883946D01*
X106876522Y-88034348D01*
X107001697Y-88159305D01*
X107007927Y-88163145D01*
X107007928Y-88163146D01*
X107145090Y-88247694D01*
X107152262Y-88252115D01*
X107174476Y-88259483D01*
X107313611Y-88305632D01*
X107313613Y-88305632D01*
X107320139Y-88307797D01*
X107326975Y-88308497D01*
X107326978Y-88308498D01*
X107370031Y-88312909D01*
X107424600Y-88318500D01*
X108475400Y-88318500D01*
X108478646Y-88318163D01*
X108478650Y-88318163D01*
X108574308Y-88308238D01*
X108574312Y-88308237D01*
X108581166Y-88307526D01*
X108587702Y-88305345D01*
X108587704Y-88305345D01*
X108734918Y-88256230D01*
X108748946Y-88251550D01*
X108899348Y-88158478D01*
X109024305Y-88033303D01*
X109042749Y-88003382D01*
X109095522Y-87955890D01*
X109150008Y-87943500D01*
X112666672Y-87943500D01*
X112734793Y-87963502D01*
X112781286Y-88017158D01*
X112791390Y-88087432D01*
X112760308Y-88153810D01*
X112665160Y-88259483D01*
X112645854Y-88280924D01*
X112550367Y-88446312D01*
X112491352Y-88627940D01*
X112490662Y-88634501D01*
X112490662Y-88634503D01*
X112484339Y-88694667D01*
X112471390Y-88817868D01*
X112472080Y-88824433D01*
X112490416Y-88998887D01*
X112491352Y-89007796D01*
X112550367Y-89189424D01*
X112645854Y-89354812D01*
X112650272Y-89359719D01*
X112650273Y-89359720D01*
X112721541Y-89438871D01*
X112773641Y-89496734D01*
X112928142Y-89608986D01*
X112934170Y-89611670D01*
X112934172Y-89611671D01*
X113030741Y-89654666D01*
X113102606Y-89686662D01*
X113196007Y-89706515D01*
X113282950Y-89724996D01*
X113282955Y-89724996D01*
X113289407Y-89726368D01*
X113345300Y-89726368D01*
X113413421Y-89746370D01*
X113434395Y-89763273D01*
X114259887Y-90588765D01*
X114267431Y-90597055D01*
X114271544Y-90603536D01*
X114277321Y-90608961D01*
X114321211Y-90650176D01*
X114324053Y-90652931D01*
X114343775Y-90672653D01*
X114346899Y-90675076D01*
X114346903Y-90675080D01*
X114346968Y-90675130D01*
X114355989Y-90682835D01*
X114388223Y-90713104D01*
X114395171Y-90716923D01*
X114395173Y-90716925D01*
X114405976Y-90722864D01*
X114422503Y-90733720D01*
X114432242Y-90741275D01*
X114432244Y-90741276D01*
X114438504Y-90746132D01*
X114479084Y-90763692D01*
X114489732Y-90768909D01*
X114528484Y-90790213D01*
X114536160Y-90792184D01*
X114536163Y-90792185D01*
X114548106Y-90795251D01*
X114566810Y-90801655D01*
X114576484Y-90805841D01*
X114585399Y-90809699D01*
X114593222Y-90810938D01*
X114593232Y-90810941D01*
X114629068Y-90816617D01*
X114640688Y-90819023D01*
X114675833Y-90828046D01*
X114683514Y-90830018D01*
X114703768Y-90830018D01*
X114723478Y-90831569D01*
X114743487Y-90834738D01*
X114751379Y-90833992D01*
X114787505Y-90830577D01*
X114799363Y-90830018D01*
X118698318Y-90830018D01*
X118766439Y-90850020D01*
X118785665Y-90866361D01*
X118785938Y-90866058D01*
X118790850Y-90870481D01*
X118795265Y-90875384D01*
X118811437Y-90887134D01*
X118878276Y-90935695D01*
X118949766Y-90987636D01*
X118955794Y-90990320D01*
X118955796Y-90990321D01*
X119118199Y-91062627D01*
X119124230Y-91065312D01*
X119217630Y-91085165D01*
X119304574Y-91103646D01*
X119304579Y-91103646D01*
X119311031Y-91105018D01*
X119502005Y-91105018D01*
X119508457Y-91103646D01*
X119508462Y-91103646D01*
X119595406Y-91085165D01*
X119688806Y-91065312D01*
X119694837Y-91062627D01*
X119857240Y-90990321D01*
X119857242Y-90990320D01*
X119863270Y-90987636D01*
X120017771Y-90875384D01*
X120040609Y-90850020D01*
X120141139Y-90738370D01*
X120141140Y-90738369D01*
X120145558Y-90733462D01*
X120220571Y-90603536D01*
X120237741Y-90573797D01*
X120237742Y-90573796D01*
X120241045Y-90568074D01*
X120300060Y-90386446D01*
X120320022Y-90196518D01*
X120300060Y-90006590D01*
X120241045Y-89824962D01*
X120145558Y-89659574D01*
X120100009Y-89608986D01*
X120022193Y-89522563D01*
X120022192Y-89522562D01*
X120017771Y-89517652D01*
X119863270Y-89405400D01*
X119857242Y-89402716D01*
X119857240Y-89402715D01*
X119694837Y-89330409D01*
X119694836Y-89330409D01*
X119688806Y-89327724D01*
X119595405Y-89307871D01*
X119508462Y-89289390D01*
X119508457Y-89289390D01*
X119502005Y-89288018D01*
X119311031Y-89288018D01*
X119304579Y-89289390D01*
X119304574Y-89289390D01*
X119217631Y-89307871D01*
X119124230Y-89327724D01*
X119118200Y-89330409D01*
X119118199Y-89330409D01*
X118955796Y-89402715D01*
X118955794Y-89402716D01*
X118949766Y-89405400D01*
X118795265Y-89517652D01*
X118790850Y-89522555D01*
X118785938Y-89526978D01*
X118784813Y-89525729D01*
X118731504Y-89558569D01*
X118698318Y-89563018D01*
X115078138Y-89563018D01*
X115010017Y-89543016D01*
X114989043Y-89526113D01*
X114332016Y-88869086D01*
X114297990Y-88806774D01*
X114295801Y-88793161D01*
X114279126Y-88634503D01*
X114279126Y-88634501D01*
X114278436Y-88627940D01*
X114219421Y-88446312D01*
X114123934Y-88280924D01*
X114104629Y-88259483D01*
X114000569Y-88143913D01*
X114000568Y-88143912D01*
X113996147Y-88139002D01*
X113852104Y-88034348D01*
X113846988Y-88030631D01*
X113846987Y-88030630D01*
X113841646Y-88026750D01*
X113835615Y-88024065D01*
X113835610Y-88024062D01*
X113792905Y-88005049D01*
X113738808Y-87959070D01*
X113718158Y-87891143D01*
X113737509Y-87822835D01*
X113755057Y-87800847D01*
X113755683Y-87800221D01*
X113770717Y-87787380D01*
X113780694Y-87780131D01*
X113787107Y-87775472D01*
X113815298Y-87741395D01*
X113823288Y-87732616D01*
X118335499Y-83220405D01*
X118397811Y-83186379D01*
X118424594Y-83183500D01*
X118671800Y-83183500D01*
X118739921Y-83203502D01*
X118759147Y-83219843D01*
X118759420Y-83219540D01*
X118764332Y-83223963D01*
X118768747Y-83228866D01*
X118923248Y-83341118D01*
X118929276Y-83343802D01*
X118929278Y-83343803D01*
X118948044Y-83352158D01*
X119097712Y-83418794D01*
X119191112Y-83438647D01*
X119278056Y-83457128D01*
X119278061Y-83457128D01*
X119284513Y-83458500D01*
X119475487Y-83458500D01*
X119481939Y-83457128D01*
X119481944Y-83457128D01*
X119569386Y-83438541D01*
X119636172Y-83424345D01*
X119706962Y-83429747D01*
X119751463Y-83458497D01*
X121527132Y-85234166D01*
X121561158Y-85296478D01*
X121563346Y-85310087D01*
X121580712Y-85475312D01*
X121639727Y-85656940D01*
X121643030Y-85662662D01*
X121643031Y-85662663D01*
X121669207Y-85708000D01*
X121735214Y-85822328D01*
X121739632Y-85827235D01*
X121739633Y-85827236D01*
X121821706Y-85918387D01*
X121863001Y-85964250D01*
X122017502Y-86076502D01*
X122023530Y-86079186D01*
X122023532Y-86079187D01*
X122185935Y-86151493D01*
X122191966Y-86154178D01*
X122285366Y-86174031D01*
X122372310Y-86192512D01*
X122372315Y-86192512D01*
X122378767Y-86193884D01*
X122569741Y-86193884D01*
X122576193Y-86192512D01*
X122576198Y-86192512D01*
X122663142Y-86174031D01*
X122756542Y-86154178D01*
X122762573Y-86151493D01*
X122924976Y-86079187D01*
X122924978Y-86079186D01*
X122931006Y-86076502D01*
X123085507Y-85964250D01*
X123089922Y-85959347D01*
X123094834Y-85954924D01*
X123095959Y-85956173D01*
X123149268Y-85923333D01*
X123182454Y-85918884D01*
X130910667Y-85918884D01*
X130921850Y-85919411D01*
X130929343Y-85921086D01*
X130937269Y-85920837D01*
X130937270Y-85920837D01*
X130997420Y-85918946D01*
X131001379Y-85918884D01*
X131029290Y-85918884D01*
X131033225Y-85918387D01*
X131033290Y-85918379D01*
X131045127Y-85917446D01*
X131077385Y-85916432D01*
X131081404Y-85916306D01*
X131089323Y-85916057D01*
X131108777Y-85910405D01*
X131128134Y-85906397D01*
X131140364Y-85904852D01*
X131140365Y-85904852D01*
X131148231Y-85903858D01*
X131155602Y-85900939D01*
X131155604Y-85900939D01*
X131189346Y-85887580D01*
X131200576Y-85883735D01*
X131235417Y-85873613D01*
X131235418Y-85873613D01*
X131243027Y-85871402D01*
X131249846Y-85867369D01*
X131249851Y-85867367D01*
X131260462Y-85861091D01*
X131278210Y-85852396D01*
X131297051Y-85844936D01*
X131332821Y-85818948D01*
X131342741Y-85812432D01*
X131373969Y-85793964D01*
X131373972Y-85793962D01*
X131380796Y-85789926D01*
X131395117Y-85775605D01*
X131410151Y-85762764D01*
X131420128Y-85755515D01*
X131426541Y-85750856D01*
X131454732Y-85716779D01*
X131462722Y-85708000D01*
X135477641Y-81693081D01*
X135539953Y-81659055D01*
X135566736Y-81656176D01*
X135622629Y-81656176D01*
X135629081Y-81654804D01*
X135629086Y-81654804D01*
X135718556Y-81635786D01*
X135809430Y-81616470D01*
X135815461Y-81613785D01*
X135977864Y-81541479D01*
X135977866Y-81541478D01*
X135983894Y-81538794D01*
X136010694Y-81519323D01*
X136133056Y-81430421D01*
X136138395Y-81426542D01*
X136142810Y-81421639D01*
X136147722Y-81417216D01*
X136148847Y-81418465D01*
X136202156Y-81385625D01*
X136235342Y-81381176D01*
X139593696Y-81381176D01*
X139661817Y-81401178D01*
X139687331Y-81422865D01*
X139702379Y-81439578D01*
X139702388Y-81439586D01*
X139706800Y-81444486D01*
X139726156Y-81458549D01*
X139855504Y-81552526D01*
X139861301Y-81556738D01*
X139867329Y-81559422D01*
X139867331Y-81559423D01*
X139989431Y-81613785D01*
X140035765Y-81634414D01*
X140129166Y-81654267D01*
X140216109Y-81672748D01*
X140216114Y-81672748D01*
X140222566Y-81674120D01*
X140413540Y-81674120D01*
X140419992Y-81672748D01*
X140419997Y-81672748D01*
X140506940Y-81654267D01*
X140600341Y-81634414D01*
X140646675Y-81613785D01*
X140768775Y-81559423D01*
X140768777Y-81559422D01*
X140774805Y-81556738D01*
X140780603Y-81552526D01*
X140909950Y-81458549D01*
X140929306Y-81444486D01*
X140937627Y-81435245D01*
X141052674Y-81307472D01*
X141052675Y-81307471D01*
X141057093Y-81302564D01*
X141152580Y-81137176D01*
X141211595Y-80955548D01*
X141231557Y-80765620D01*
X141211595Y-80575692D01*
X141152580Y-80394064D01*
X141057093Y-80228676D01*
X141036522Y-80205829D01*
X140933728Y-80091665D01*
X140933727Y-80091664D01*
X140929306Y-80086754D01*
X140786357Y-79982895D01*
X140780147Y-79978383D01*
X140780146Y-79978382D01*
X140774805Y-79974502D01*
X140768777Y-79971818D01*
X140768775Y-79971817D01*
X140606372Y-79899511D01*
X140606371Y-79899511D01*
X140600341Y-79896826D01*
X140478337Y-79870893D01*
X140419997Y-79858492D01*
X140419992Y-79858492D01*
X140413540Y-79857120D01*
X140222566Y-79857120D01*
X140216114Y-79858492D01*
X140216109Y-79858492D01*
X140157769Y-79870893D01*
X140035765Y-79896826D01*
X140029735Y-79899511D01*
X140029734Y-79899511D01*
X139867331Y-79971817D01*
X139867329Y-79971818D01*
X139861301Y-79974502D01*
X139855960Y-79978382D01*
X139855959Y-79978383D01*
X139785006Y-80029934D01*
X139706800Y-80086754D01*
X139705825Y-80085412D01*
X139649303Y-80112531D01*
X139629009Y-80114176D01*
X136235342Y-80114176D01*
X136167221Y-80094174D01*
X136147995Y-80077833D01*
X136147722Y-80078136D01*
X136142810Y-80073713D01*
X136138395Y-80068810D01*
X136048080Y-80003192D01*
X135989236Y-79960439D01*
X135989235Y-79960438D01*
X135983894Y-79956558D01*
X135977868Y-79953875D01*
X135977861Y-79953871D01*
X135858553Y-79900753D01*
X135804457Y-79854773D01*
X135783807Y-79786846D01*
X135803159Y-79718538D01*
X135810919Y-79707554D01*
X135814134Y-79703483D01*
X135819305Y-79698303D01*
X135841357Y-79662529D01*
X135908275Y-79553968D01*
X135908276Y-79553966D01*
X135912115Y-79547738D01*
X135967797Y-79379861D01*
X135978500Y-79275400D01*
X135978500Y-77974600D01*
X135978163Y-77971350D01*
X135968238Y-77875692D01*
X135968237Y-77875688D01*
X135967526Y-77868834D01*
X135953253Y-77826051D01*
X135913868Y-77708002D01*
X135911550Y-77701054D01*
X135818478Y-77550652D01*
X135693303Y-77425695D01*
X135678166Y-77416364D01*
X135577226Y-77354144D01*
X135542738Y-77332885D01*
X135535785Y-77330579D01*
X135534904Y-77330168D01*
X135481618Y-77283252D01*
X135462156Y-77214975D01*
X135482696Y-77147015D01*
X135500529Y-77126844D01*
X135499860Y-77126173D01*
X135654435Y-76972137D01*
X135658096Y-76968489D01*
X135665495Y-76958193D01*
X135785435Y-76791277D01*
X135788453Y-76787077D01*
X135809320Y-76744857D01*
X135885136Y-76591453D01*
X135885137Y-76591451D01*
X135887430Y-76586811D01*
X135952370Y-76373069D01*
X135981529Y-76151590D01*
X135982063Y-76129733D01*
X160547822Y-76129733D01*
X160547975Y-76134121D01*
X160547975Y-76134127D01*
X160552885Y-76274715D01*
X160557625Y-76410458D01*
X160558387Y-76414781D01*
X160558388Y-76414788D01*
X160582164Y-76549624D01*
X160606402Y-76687087D01*
X160693203Y-76954235D01*
X160816340Y-77206702D01*
X160818795Y-77210341D01*
X160818798Y-77210347D01*
X160884354Y-77307537D01*
X160973415Y-77439576D01*
X161161371Y-77648322D01*
X161376550Y-77828879D01*
X161614764Y-77977731D01*
X161871375Y-78091982D01*
X162141390Y-78169407D01*
X162145740Y-78170018D01*
X162145743Y-78170019D01*
X162248690Y-78184487D01*
X162419552Y-78208500D01*
X162630146Y-78208500D01*
X162632332Y-78208347D01*
X162632336Y-78208347D01*
X162835827Y-78194118D01*
X162835832Y-78194117D01*
X162840212Y-78193811D01*
X163114970Y-78135409D01*
X163119099Y-78133906D01*
X163119103Y-78133905D01*
X163374781Y-78040846D01*
X163374785Y-78040844D01*
X163378926Y-78039337D01*
X163626942Y-77907464D01*
X163731896Y-77831211D01*
X163850629Y-77744947D01*
X163850632Y-77744944D01*
X163854192Y-77742358D01*
X164056252Y-77547231D01*
X164223717Y-77332885D01*
X164226481Y-77329347D01*
X164226482Y-77329346D01*
X164229188Y-77325882D01*
X164231384Y-77322078D01*
X164231389Y-77322071D01*
X164367435Y-77086431D01*
X164369636Y-77082619D01*
X164474862Y-76822176D01*
X164484770Y-76782438D01*
X164541753Y-76553893D01*
X164541754Y-76553888D01*
X164542817Y-76549624D01*
X164548304Y-76497425D01*
X164571719Y-76274636D01*
X164571719Y-76274633D01*
X164572178Y-76270267D01*
X164565826Y-76088365D01*
X164562529Y-75993939D01*
X164562528Y-75993933D01*
X164562375Y-75989542D01*
X164538608Y-75854749D01*
X164514360Y-75717236D01*
X164513598Y-75712913D01*
X164426797Y-75445765D01*
X164422909Y-75437792D01*
X164362320Y-75313569D01*
X164303660Y-75193298D01*
X164301205Y-75189659D01*
X164301202Y-75189653D01*
X164215456Y-75062530D01*
X164146585Y-74960424D01*
X163958629Y-74751678D01*
X163743450Y-74571121D01*
X163505236Y-74422269D01*
X163248625Y-74308018D01*
X162978610Y-74230593D01*
X162974260Y-74229982D01*
X162974257Y-74229981D01*
X162871310Y-74215513D01*
X162700448Y-74191500D01*
X162489854Y-74191500D01*
X162487668Y-74191653D01*
X162487664Y-74191653D01*
X162284173Y-74205882D01*
X162284168Y-74205883D01*
X162279788Y-74206189D01*
X162005030Y-74264591D01*
X162000901Y-74266094D01*
X162000897Y-74266095D01*
X161745219Y-74359154D01*
X161745215Y-74359156D01*
X161741074Y-74360663D01*
X161493058Y-74492536D01*
X161489499Y-74495122D01*
X161489497Y-74495123D01*
X161384895Y-74571121D01*
X161265808Y-74657642D01*
X161063748Y-74852769D01*
X160979639Y-74960424D01*
X160897440Y-75065635D01*
X160890812Y-75074118D01*
X160888616Y-75077922D01*
X160888611Y-75077929D01*
X160804623Y-75223401D01*
X160750364Y-75317381D01*
X160645138Y-75577824D01*
X160644073Y-75582097D01*
X160644072Y-75582099D01*
X160581090Y-75834707D01*
X160577183Y-75850376D01*
X160576724Y-75854744D01*
X160576723Y-75854749D01*
X160552170Y-76088365D01*
X160547822Y-76129733D01*
X135982063Y-76129733D01*
X135983156Y-76085000D01*
X135964852Y-75862361D01*
X135910431Y-75645702D01*
X135821354Y-75440840D01*
X135700014Y-75253277D01*
X135549670Y-75088051D01*
X135545619Y-75084852D01*
X135545615Y-75084848D01*
X135378414Y-74952800D01*
X135378410Y-74952798D01*
X135374359Y-74949598D01*
X135178789Y-74841638D01*
X135173920Y-74839914D01*
X135173916Y-74839912D01*
X134973087Y-74768795D01*
X134973083Y-74768794D01*
X134968212Y-74767069D01*
X134963119Y-74766162D01*
X134963116Y-74766161D01*
X134753373Y-74728800D01*
X134753367Y-74728799D01*
X134748284Y-74727894D01*
X134674452Y-74726992D01*
X134530081Y-74725228D01*
X134530079Y-74725228D01*
X134524911Y-74725165D01*
X134304091Y-74758955D01*
X134091756Y-74828357D01*
X133893607Y-74931507D01*
X133889474Y-74934610D01*
X133889471Y-74934612D01*
X133855093Y-74960424D01*
X133714965Y-75065635D01*
X133703217Y-75077929D01*
X133596451Y-75189653D01*
X133560629Y-75227138D01*
X133453201Y-75384621D01*
X133398293Y-75429621D01*
X133327768Y-75437792D01*
X133264021Y-75406538D01*
X133243324Y-75382054D01*
X133162822Y-75257617D01*
X133162820Y-75257614D01*
X133160014Y-75253277D01*
X133009670Y-75088051D01*
X133005619Y-75084852D01*
X133005615Y-75084848D01*
X132838414Y-74952800D01*
X132838410Y-74952798D01*
X132834359Y-74949598D01*
X132638789Y-74841638D01*
X132633920Y-74839914D01*
X132633916Y-74839912D01*
X132433087Y-74768795D01*
X132433083Y-74768794D01*
X132428212Y-74767069D01*
X132423119Y-74766162D01*
X132423116Y-74766161D01*
X132213373Y-74728800D01*
X132213367Y-74728799D01*
X132208284Y-74727894D01*
X132134452Y-74726992D01*
X131990081Y-74725228D01*
X131990079Y-74725228D01*
X131984911Y-74725165D01*
X131764091Y-74758955D01*
X131551756Y-74828357D01*
X131353607Y-74931507D01*
X131349474Y-74934610D01*
X131349471Y-74934612D01*
X131315093Y-74960424D01*
X131174965Y-75065635D01*
X131163217Y-75077929D01*
X131056451Y-75189653D01*
X131020629Y-75227138D01*
X130913201Y-75384621D01*
X130858293Y-75429621D01*
X130787768Y-75437792D01*
X130724021Y-75406538D01*
X130703324Y-75382054D01*
X130622822Y-75257617D01*
X130622820Y-75257614D01*
X130620014Y-75253277D01*
X130469670Y-75088051D01*
X130465619Y-75084852D01*
X130465615Y-75084848D01*
X130298414Y-74952800D01*
X130298410Y-74952798D01*
X130294359Y-74949598D01*
X130098789Y-74841638D01*
X130093920Y-74839914D01*
X130093916Y-74839912D01*
X129893087Y-74768795D01*
X129893083Y-74768794D01*
X129888212Y-74767069D01*
X129883119Y-74766162D01*
X129883116Y-74766161D01*
X129673373Y-74728800D01*
X129673367Y-74728799D01*
X129668284Y-74727894D01*
X129594452Y-74726992D01*
X129450081Y-74725228D01*
X129450079Y-74725228D01*
X129444911Y-74725165D01*
X129224091Y-74758955D01*
X129011756Y-74828357D01*
X128813607Y-74931507D01*
X128809474Y-74934610D01*
X128809471Y-74934612D01*
X128775093Y-74960424D01*
X128634965Y-75065635D01*
X128623217Y-75077929D01*
X128516451Y-75189653D01*
X128480629Y-75227138D01*
X128373201Y-75384621D01*
X128318293Y-75429621D01*
X128247768Y-75437792D01*
X128184021Y-75406538D01*
X128163324Y-75382054D01*
X128082822Y-75257617D01*
X128082820Y-75257614D01*
X128080014Y-75253277D01*
X127929670Y-75088051D01*
X127925619Y-75084852D01*
X127925615Y-75084848D01*
X127758414Y-74952800D01*
X127758410Y-74952798D01*
X127754359Y-74949598D01*
X127558789Y-74841638D01*
X127553920Y-74839914D01*
X127553916Y-74839912D01*
X127353087Y-74768795D01*
X127353083Y-74768794D01*
X127348212Y-74767069D01*
X127343119Y-74766162D01*
X127343116Y-74766161D01*
X127133373Y-74728800D01*
X127133367Y-74728799D01*
X127128284Y-74727894D01*
X127054452Y-74726992D01*
X126910081Y-74725228D01*
X126910079Y-74725228D01*
X126904911Y-74725165D01*
X126684091Y-74758955D01*
X126471756Y-74828357D01*
X126273607Y-74931507D01*
X126269474Y-74934610D01*
X126269471Y-74934612D01*
X126235093Y-74960424D01*
X126094965Y-75065635D01*
X126083217Y-75077929D01*
X125976451Y-75189653D01*
X125940629Y-75227138D01*
X125833201Y-75384621D01*
X125778293Y-75429621D01*
X125707768Y-75437792D01*
X125644021Y-75406538D01*
X125623324Y-75382054D01*
X125542822Y-75257617D01*
X125542820Y-75257614D01*
X125540014Y-75253277D01*
X125389670Y-75088051D01*
X125385619Y-75084852D01*
X125385615Y-75084848D01*
X125218414Y-74952800D01*
X125218410Y-74952798D01*
X125214359Y-74949598D01*
X125018789Y-74841638D01*
X125013920Y-74839914D01*
X125013916Y-74839912D01*
X124813087Y-74768795D01*
X124813083Y-74768794D01*
X124808212Y-74767069D01*
X124803119Y-74766162D01*
X124803116Y-74766161D01*
X124593373Y-74728800D01*
X124593367Y-74728799D01*
X124588284Y-74727894D01*
X124514452Y-74726992D01*
X124370081Y-74725228D01*
X124370079Y-74725228D01*
X124364911Y-74725165D01*
X124144091Y-74758955D01*
X123931756Y-74828357D01*
X123733607Y-74931507D01*
X123729474Y-74934610D01*
X123729471Y-74934612D01*
X123695093Y-74960424D01*
X123554965Y-75065635D01*
X123543217Y-75077929D01*
X123436451Y-75189653D01*
X123400629Y-75227138D01*
X123293201Y-75384621D01*
X123238293Y-75429621D01*
X123167768Y-75437792D01*
X123104021Y-75406538D01*
X123083324Y-75382054D01*
X123002822Y-75257617D01*
X123002820Y-75257614D01*
X123000014Y-75253277D01*
X122849670Y-75088051D01*
X122845619Y-75084852D01*
X122845615Y-75084848D01*
X122678414Y-74952800D01*
X122678410Y-74952798D01*
X122674359Y-74949598D01*
X122478789Y-74841638D01*
X122473920Y-74839914D01*
X122473916Y-74839912D01*
X122273087Y-74768795D01*
X122273083Y-74768794D01*
X122268212Y-74767069D01*
X122263119Y-74766162D01*
X122263116Y-74766161D01*
X122053373Y-74728800D01*
X122053367Y-74728799D01*
X122048284Y-74727894D01*
X121974452Y-74726992D01*
X121830081Y-74725228D01*
X121830079Y-74725228D01*
X121824911Y-74725165D01*
X121604091Y-74758955D01*
X121391756Y-74828357D01*
X121193607Y-74931507D01*
X121189474Y-74934610D01*
X121189471Y-74934612D01*
X121155093Y-74960424D01*
X121014965Y-75065635D01*
X121003217Y-75077929D01*
X120896451Y-75189653D01*
X120860629Y-75227138D01*
X120753201Y-75384621D01*
X120698293Y-75429621D01*
X120627768Y-75437792D01*
X120564021Y-75406538D01*
X120543324Y-75382054D01*
X120462822Y-75257617D01*
X120462820Y-75257614D01*
X120460014Y-75253277D01*
X120309670Y-75088051D01*
X120305619Y-75084852D01*
X120305615Y-75084848D01*
X120138414Y-74952800D01*
X120138410Y-74952798D01*
X120134359Y-74949598D01*
X119938789Y-74841638D01*
X119933920Y-74839914D01*
X119933916Y-74839912D01*
X119733087Y-74768795D01*
X119733083Y-74768794D01*
X119728212Y-74767069D01*
X119723119Y-74766162D01*
X119723116Y-74766161D01*
X119513373Y-74728800D01*
X119513367Y-74728799D01*
X119508284Y-74727894D01*
X119434452Y-74726992D01*
X119290081Y-74725228D01*
X119290079Y-74725228D01*
X119284911Y-74725165D01*
X119064091Y-74758955D01*
X118851756Y-74828357D01*
X118653607Y-74931507D01*
X118649474Y-74934610D01*
X118649471Y-74934612D01*
X118615093Y-74960424D01*
X118474965Y-75065635D01*
X118463217Y-75077929D01*
X118356451Y-75189653D01*
X118320629Y-75227138D01*
X118213201Y-75384621D01*
X118158293Y-75429621D01*
X118087768Y-75437792D01*
X118024021Y-75406538D01*
X118003324Y-75382054D01*
X117922822Y-75257617D01*
X117922820Y-75257614D01*
X117920014Y-75253277D01*
X117769670Y-75088051D01*
X117765619Y-75084852D01*
X117765615Y-75084848D01*
X117598414Y-74952800D01*
X117598410Y-74952798D01*
X117594359Y-74949598D01*
X117398789Y-74841638D01*
X117393920Y-74839914D01*
X117393916Y-74839912D01*
X117193087Y-74768795D01*
X117193083Y-74768794D01*
X117188212Y-74767069D01*
X117183119Y-74766162D01*
X117183116Y-74766161D01*
X116973373Y-74728800D01*
X116973367Y-74728799D01*
X116968284Y-74727894D01*
X116894452Y-74726992D01*
X116750081Y-74725228D01*
X116750079Y-74725228D01*
X116744911Y-74725165D01*
X116524091Y-74758955D01*
X116311756Y-74828357D01*
X116113607Y-74931507D01*
X116109474Y-74934610D01*
X116109471Y-74934612D01*
X116075093Y-74960424D01*
X115934965Y-75065635D01*
X115923217Y-75077929D01*
X115816451Y-75189653D01*
X115780629Y-75227138D01*
X115673201Y-75384621D01*
X115618293Y-75429621D01*
X115547768Y-75437792D01*
X115484021Y-75406538D01*
X115463324Y-75382054D01*
X115382822Y-75257617D01*
X115382820Y-75257614D01*
X115380014Y-75253277D01*
X115229670Y-75088051D01*
X115225619Y-75084852D01*
X115225615Y-75084848D01*
X115058414Y-74952800D01*
X115058410Y-74952798D01*
X115054359Y-74949598D01*
X114858789Y-74841638D01*
X114853920Y-74839914D01*
X114853916Y-74839912D01*
X114653087Y-74768795D01*
X114653083Y-74768794D01*
X114648212Y-74767069D01*
X114643119Y-74766162D01*
X114643116Y-74766161D01*
X114433373Y-74728800D01*
X114433367Y-74728799D01*
X114428284Y-74727894D01*
X114354452Y-74726992D01*
X114210081Y-74725228D01*
X114210079Y-74725228D01*
X114204911Y-74725165D01*
X113984091Y-74758955D01*
X113771756Y-74828357D01*
X113573607Y-74931507D01*
X113569474Y-74934610D01*
X113569471Y-74934612D01*
X113535093Y-74960424D01*
X113394965Y-75065635D01*
X113383217Y-75077929D01*
X113276451Y-75189653D01*
X113240629Y-75227138D01*
X113133201Y-75384621D01*
X113078293Y-75429621D01*
X113007768Y-75437792D01*
X112944021Y-75406538D01*
X112923324Y-75382054D01*
X112842822Y-75257617D01*
X112842820Y-75257614D01*
X112840014Y-75253277D01*
X112689670Y-75088051D01*
X112685619Y-75084852D01*
X112685615Y-75084848D01*
X112518414Y-74952800D01*
X112518410Y-74952798D01*
X112514359Y-74949598D01*
X112318789Y-74841638D01*
X112313920Y-74839914D01*
X112313916Y-74839912D01*
X112113087Y-74768795D01*
X112113083Y-74768794D01*
X112108212Y-74767069D01*
X112103119Y-74766162D01*
X112103116Y-74766161D01*
X111893373Y-74728800D01*
X111893367Y-74728799D01*
X111888284Y-74727894D01*
X111814452Y-74726992D01*
X111670081Y-74725228D01*
X111670079Y-74725228D01*
X111664911Y-74725165D01*
X111444091Y-74758955D01*
X111231756Y-74828357D01*
X111033607Y-74931507D01*
X111029474Y-74934610D01*
X111029471Y-74934612D01*
X110995093Y-74960424D01*
X110854965Y-75065635D01*
X110843217Y-75077929D01*
X110736451Y-75189653D01*
X110700629Y-75227138D01*
X110574743Y-75411680D01*
X110480688Y-75614305D01*
X110420989Y-75829570D01*
X110397251Y-76051695D01*
X110397548Y-76056848D01*
X110397548Y-76056851D01*
X110403011Y-76151590D01*
X110410110Y-76274715D01*
X110411247Y-76279761D01*
X110411248Y-76279767D01*
X110431119Y-76367939D01*
X110459222Y-76492639D01*
X110497461Y-76586811D01*
X110538179Y-76687087D01*
X110543266Y-76699616D01*
X110594019Y-76782438D01*
X110657291Y-76885688D01*
X110659987Y-76890088D01*
X110806250Y-77058938D01*
X110978126Y-77201632D01*
X110993040Y-77210347D01*
X111051445Y-77244476D01*
X111100169Y-77296114D01*
X111113240Y-77365897D01*
X111086509Y-77431669D01*
X111046055Y-77465027D01*
X111033607Y-77471507D01*
X111029474Y-77474610D01*
X111029471Y-77474612D01*
X110859100Y-77602530D01*
X110854965Y-77605635D01*
X110700629Y-77767138D01*
X110574743Y-77951680D01*
X110480688Y-78154305D01*
X110420989Y-78369570D01*
X110397251Y-78591695D01*
X110410110Y-78814715D01*
X110411247Y-78819761D01*
X110411248Y-78819767D01*
X110435304Y-78926508D01*
X110459222Y-79032639D01*
X110543266Y-79239616D01*
X110594942Y-79323944D01*
X110657291Y-79425688D01*
X110659987Y-79430088D01*
X110806250Y-79598938D01*
X110978126Y-79741632D01*
X111171000Y-79854338D01*
X111175825Y-79856180D01*
X111175826Y-79856181D01*
X111191015Y-79861981D01*
X111379692Y-79934030D01*
X111384760Y-79935061D01*
X111384763Y-79935062D01*
X111477213Y-79953871D01*
X111598597Y-79978567D01*
X111603772Y-79978757D01*
X111603774Y-79978757D01*
X111816673Y-79986564D01*
X111816677Y-79986564D01*
X111821837Y-79986753D01*
X111826957Y-79986097D01*
X111826959Y-79986097D01*
X112038288Y-79959025D01*
X112038289Y-79959025D01*
X112043416Y-79958368D01*
X112115079Y-79936868D01*
X112252429Y-79895661D01*
X112252434Y-79895659D01*
X112257384Y-79894174D01*
X112457994Y-79795896D01*
X112639860Y-79666173D01*
X112798096Y-79508489D01*
X112857594Y-79425689D01*
X112928453Y-79327077D01*
X112929776Y-79328028D01*
X112976645Y-79284857D01*
X113046580Y-79272625D01*
X113112026Y-79300144D01*
X113139875Y-79331994D01*
X113199987Y-79430088D01*
X113346250Y-79598938D01*
X113518126Y-79741632D01*
X113711000Y-79854338D01*
X113715825Y-79856180D01*
X113715826Y-79856181D01*
X113731015Y-79861981D01*
X113919692Y-79934030D01*
X113924760Y-79935061D01*
X113924763Y-79935062D01*
X114017213Y-79953871D01*
X114138597Y-79978567D01*
X114143772Y-79978757D01*
X114143774Y-79978757D01*
X114356673Y-79986564D01*
X114356677Y-79986564D01*
X114361837Y-79986753D01*
X114366957Y-79986097D01*
X114366959Y-79986097D01*
X114578288Y-79959025D01*
X114578289Y-79959025D01*
X114583416Y-79958368D01*
X114655079Y-79936868D01*
X114792429Y-79895661D01*
X114792434Y-79895659D01*
X114797384Y-79894174D01*
X114844907Y-79870893D01*
X114914879Y-79858887D01*
X114980236Y-79886618D01*
X115009030Y-79921272D01*
X115010448Y-79924854D01*
X115015108Y-79931268D01*
X115036436Y-79960624D01*
X115042952Y-79970544D01*
X115065458Y-80008599D01*
X115079779Y-80022920D01*
X115092619Y-80037953D01*
X115104528Y-80054344D01*
X115132921Y-80077833D01*
X115138605Y-80082535D01*
X115147384Y-80090525D01*
X116294474Y-81237615D01*
X116302018Y-81245905D01*
X116306131Y-81252386D01*
X116353477Y-81296846D01*
X116355798Y-81299026D01*
X116358640Y-81301781D01*
X116378362Y-81321503D01*
X116381486Y-81323926D01*
X116381490Y-81323930D01*
X116381555Y-81323980D01*
X116390576Y-81331685D01*
X116422810Y-81361954D01*
X116429758Y-81365773D01*
X116429760Y-81365775D01*
X116440563Y-81371714D01*
X116457090Y-81382570D01*
X116466829Y-81390125D01*
X116466831Y-81390126D01*
X116473091Y-81394982D01*
X116513671Y-81412542D01*
X116524319Y-81417759D01*
X116556125Y-81435245D01*
X116556129Y-81435247D01*
X116563071Y-81439063D01*
X116570749Y-81441034D01*
X116573653Y-81442184D01*
X116629628Y-81485857D01*
X116653106Y-81552859D01*
X116636633Y-81621918D01*
X116585439Y-81671108D01*
X116566211Y-81679169D01*
X116564160Y-81679835D01*
X116557712Y-81681206D01*
X116551688Y-81683888D01*
X116389278Y-81756197D01*
X116389276Y-81756198D01*
X116383248Y-81758882D01*
X116228747Y-81871134D01*
X116100960Y-82013056D01*
X116005473Y-82178444D01*
X115946458Y-82360072D01*
X115926496Y-82550000D01*
X115946458Y-82739928D01*
X116005473Y-82921556D01*
X116100960Y-83086944D01*
X116105378Y-83091851D01*
X116105379Y-83091852D01*
X116205909Y-83203502D01*
X116228747Y-83228866D01*
X116286909Y-83271123D01*
X116330262Y-83327344D01*
X116336338Y-83398080D01*
X116301942Y-83462153D01*
X113124500Y-86639595D01*
X113062188Y-86673621D01*
X113035405Y-86676500D01*
X109149899Y-86676500D01*
X109081778Y-86656498D01*
X109042755Y-86616803D01*
X109023478Y-86585652D01*
X109012844Y-86575036D01*
X108903486Y-86465869D01*
X108898303Y-86460695D01*
X108893765Y-86457898D01*
X108853176Y-86400647D01*
X108849946Y-86329724D01*
X108885572Y-86268313D01*
X108894068Y-86260938D01*
X108904207Y-86252902D01*
X109018739Y-86138171D01*
X109027751Y-86126760D01*
X109112816Y-85988757D01*
X109118963Y-85975576D01*
X109170138Y-85821290D01*
X109173005Y-85807914D01*
X109182672Y-85713562D01*
X109183000Y-85707146D01*
X109183000Y-85682115D01*
X109178525Y-85666876D01*
X109177135Y-85665671D01*
X109169452Y-85664000D01*
X106735116Y-85664000D01*
X106719877Y-85668475D01*
X106718672Y-85669865D01*
X106717001Y-85677548D01*
X106717001Y-85707095D01*
X106717338Y-85713614D01*
X106727257Y-85809206D01*
X106730149Y-85822600D01*
X106781588Y-85976784D01*
X106787761Y-85989962D01*
X106873063Y-86127807D01*
X106882099Y-86139208D01*
X106996828Y-86253738D01*
X107005762Y-86260794D01*
X107046823Y-86318712D01*
X107050053Y-86389635D01*
X107014426Y-86451046D01*
X107006593Y-86457846D01*
X107000652Y-86461522D01*
X106875695Y-86586697D01*
X106782885Y-86737262D01*
X106780581Y-86744209D01*
X106730896Y-86894006D01*
X106727203Y-86905139D01*
X106716500Y-87009600D01*
X106716500Y-87610400D01*
X94495379Y-87610400D01*
X94495379Y-85137885D01*
X106717000Y-85137885D01*
X106721475Y-85153124D01*
X106722865Y-85154329D01*
X106730548Y-85156000D01*
X107677885Y-85156000D01*
X107693124Y-85151525D01*
X107694329Y-85150135D01*
X107696000Y-85142452D01*
X107696000Y-85137885D01*
X108204000Y-85137885D01*
X108208475Y-85153124D01*
X108209865Y-85154329D01*
X108217548Y-85156000D01*
X109164884Y-85156000D01*
X109180123Y-85151525D01*
X109181328Y-85150135D01*
X109182999Y-85142452D01*
X109182999Y-85112905D01*
X109182662Y-85106386D01*
X109172743Y-85010794D01*
X109169851Y-84997400D01*
X109118412Y-84843216D01*
X109112239Y-84830038D01*
X109026937Y-84692193D01*
X109017901Y-84680792D01*
X108903171Y-84566261D01*
X108891760Y-84557249D01*
X108753757Y-84472184D01*
X108740576Y-84466037D01*
X108586290Y-84414862D01*
X108572914Y-84411995D01*
X108478562Y-84402328D01*
X108472145Y-84402000D01*
X108222115Y-84402000D01*
X108206876Y-84406475D01*
X108205671Y-84407865D01*
X108204000Y-84415548D01*
X108204000Y-85137885D01*
X107696000Y-85137885D01*
X107696000Y-84420116D01*
X107691525Y-84404877D01*
X107690135Y-84403672D01*
X107682452Y-84402001D01*
X107427905Y-84402001D01*
X107421386Y-84402338D01*
X107325794Y-84412257D01*
X107312400Y-84415149D01*
X107158216Y-84466588D01*
X107145038Y-84472761D01*
X107007193Y-84558063D01*
X106995792Y-84567099D01*
X106881261Y-84681829D01*
X106872249Y-84693240D01*
X106787184Y-84831243D01*
X106781037Y-84844424D01*
X106729862Y-84998710D01*
X106726995Y-85012086D01*
X106717328Y-85106438D01*
X106717000Y-85112855D01*
X106717000Y-85137885D01*
X94495379Y-85137885D01*
X94495379Y-76129733D01*
X96487822Y-76129733D01*
X96487975Y-76134121D01*
X96487975Y-76134127D01*
X96492885Y-76274715D01*
X96497625Y-76410458D01*
X96498387Y-76414781D01*
X96498388Y-76414788D01*
X96522164Y-76549624D01*
X96546402Y-76687087D01*
X96633203Y-76954235D01*
X96756340Y-77206702D01*
X96758795Y-77210341D01*
X96758798Y-77210347D01*
X96824354Y-77307537D01*
X96913415Y-77439576D01*
X97101371Y-77648322D01*
X97316550Y-77828879D01*
X97554764Y-77977731D01*
X97811375Y-78091982D01*
X98081390Y-78169407D01*
X98085740Y-78170018D01*
X98085743Y-78170019D01*
X98188690Y-78184487D01*
X98359552Y-78208500D01*
X98570146Y-78208500D01*
X98572332Y-78208347D01*
X98572336Y-78208347D01*
X98775827Y-78194118D01*
X98775832Y-78194117D01*
X98780212Y-78193811D01*
X99054970Y-78135409D01*
X99059099Y-78133906D01*
X99059103Y-78133905D01*
X99314781Y-78040846D01*
X99314785Y-78040844D01*
X99318926Y-78039337D01*
X99566942Y-77907464D01*
X99671896Y-77831211D01*
X99790629Y-77744947D01*
X99790632Y-77744944D01*
X99794192Y-77742358D01*
X99996252Y-77547231D01*
X100163717Y-77332885D01*
X100166481Y-77329347D01*
X100166482Y-77329346D01*
X100169188Y-77325882D01*
X100171384Y-77322078D01*
X100171389Y-77322071D01*
X100307435Y-77086431D01*
X100309636Y-77082619D01*
X100414862Y-76822176D01*
X100424770Y-76782438D01*
X100481753Y-76553893D01*
X100481754Y-76553888D01*
X100482817Y-76549624D01*
X100488304Y-76497425D01*
X100511719Y-76274636D01*
X100511719Y-76274633D01*
X100512178Y-76270267D01*
X100505826Y-76088365D01*
X100502529Y-75993939D01*
X100502528Y-75993933D01*
X100502375Y-75989542D01*
X100478608Y-75854749D01*
X100454360Y-75717236D01*
X100453598Y-75712913D01*
X100366797Y-75445765D01*
X100362909Y-75437792D01*
X100302320Y-75313569D01*
X100243660Y-75193298D01*
X100241205Y-75189659D01*
X100241202Y-75189653D01*
X100155456Y-75062530D01*
X100086585Y-74960424D01*
X99898629Y-74751678D01*
X99683450Y-74571121D01*
X99445236Y-74422269D01*
X99188625Y-74308018D01*
X98918610Y-74230593D01*
X98914260Y-74229982D01*
X98914257Y-74229981D01*
X98811310Y-74215513D01*
X98640448Y-74191500D01*
X98429854Y-74191500D01*
X98427668Y-74191653D01*
X98427664Y-74191653D01*
X98224173Y-74205882D01*
X98224168Y-74205883D01*
X98219788Y-74206189D01*
X97945030Y-74264591D01*
X97940901Y-74266094D01*
X97940897Y-74266095D01*
X97685219Y-74359154D01*
X97685215Y-74359156D01*
X97681074Y-74360663D01*
X97433058Y-74492536D01*
X97429499Y-74495122D01*
X97429497Y-74495123D01*
X97324895Y-74571121D01*
X97205808Y-74657642D01*
X97003748Y-74852769D01*
X96919639Y-74960424D01*
X96837440Y-75065635D01*
X96830812Y-75074118D01*
X96828616Y-75077922D01*
X96828611Y-75077929D01*
X96744623Y-75223401D01*
X96690364Y-75317381D01*
X96585138Y-75577824D01*
X96584073Y-75582097D01*
X96584072Y-75582099D01*
X96521090Y-75834707D01*
X96517183Y-75850376D01*
X96516724Y-75854744D01*
X96516723Y-75854749D01*
X96492170Y-76088365D01*
X96487822Y-76129733D01*
X94495379Y-76129733D01*
X94495379Y-73039158D01*
X94515381Y-72971037D01*
X94569037Y-72924544D01*
X94621379Y-72913158D01*
X165743379Y-72913158D01*
X165811500Y-72933160D01*
G37*
%TD.AperFunction*%
%TA.AperFunction,Conductor*%
G36*
X113763527Y-110853502D02*
G01*
X113784501Y-110870405D01*
X115073641Y-112159545D01*
X115084600Y-112179615D01*
X115090497Y-112181225D01*
X115113502Y-112199406D01*
X123904595Y-120990499D01*
X123938621Y-121052811D01*
X123941500Y-121079594D01*
X123941500Y-121466810D01*
X123921498Y-121534931D01*
X123873680Y-121578573D01*
X123787009Y-121623691D01*
X123782876Y-121626794D01*
X123782873Y-121626796D01*
X123597353Y-121766088D01*
X123593218Y-121769193D01*
X123425795Y-121944392D01*
X123410234Y-121967204D01*
X123355324Y-122012205D01*
X123284799Y-122020376D01*
X123221052Y-121989122D01*
X123207987Y-121974893D01*
X123206599Y-121972747D01*
X123201555Y-121967203D01*
X123046981Y-121797329D01*
X123043506Y-121793510D01*
X122853328Y-121643317D01*
X122733609Y-121577228D01*
X122645705Y-121528702D01*
X122645702Y-121528701D01*
X122641174Y-121526201D01*
X122473458Y-121466810D01*
X122417613Y-121447034D01*
X122417610Y-121447033D01*
X122412741Y-121445309D01*
X122407652Y-121444402D01*
X122407650Y-121444402D01*
X122334394Y-121431353D01*
X122174163Y-121402812D01*
X122083635Y-121401706D01*
X121937018Y-121399914D01*
X121937016Y-121399914D01*
X121931848Y-121399851D01*
X121692303Y-121436507D01*
X121461961Y-121511794D01*
X121433144Y-121526795D01*
X121336264Y-121577228D01*
X121247009Y-121623691D01*
X121242876Y-121626794D01*
X121242873Y-121626796D01*
X121057353Y-121766088D01*
X121053218Y-121769193D01*
X120885795Y-121944392D01*
X120870234Y-121967204D01*
X120815324Y-122012205D01*
X120744799Y-122020376D01*
X120681052Y-121989122D01*
X120667987Y-121974893D01*
X120666599Y-121972747D01*
X120661555Y-121967203D01*
X120506981Y-121797329D01*
X120503506Y-121793510D01*
X120313328Y-121643317D01*
X120193609Y-121577228D01*
X120105705Y-121528702D01*
X120105702Y-121528701D01*
X120101174Y-121526201D01*
X119933458Y-121466810D01*
X119877613Y-121447034D01*
X119877610Y-121447033D01*
X119872741Y-121445309D01*
X119867652Y-121444402D01*
X119867650Y-121444402D01*
X119794394Y-121431353D01*
X119634163Y-121402812D01*
X119543635Y-121401706D01*
X119397018Y-121399914D01*
X119397016Y-121399914D01*
X119391848Y-121399851D01*
X119152303Y-121436507D01*
X118921961Y-121511794D01*
X118893144Y-121526795D01*
X118796264Y-121577228D01*
X118707009Y-121623691D01*
X118702876Y-121626794D01*
X118702873Y-121626796D01*
X118517353Y-121766088D01*
X118513218Y-121769193D01*
X118345795Y-121944392D01*
X118330234Y-121967204D01*
X118275324Y-122012205D01*
X118204799Y-122020376D01*
X118141052Y-121989122D01*
X118127987Y-121974893D01*
X118126599Y-121972747D01*
X118121555Y-121967203D01*
X117966981Y-121797329D01*
X117963506Y-121793510D01*
X117773328Y-121643317D01*
X117653609Y-121577228D01*
X117565705Y-121528702D01*
X117565702Y-121528701D01*
X117561174Y-121526201D01*
X117393458Y-121466810D01*
X117337613Y-121447034D01*
X117337610Y-121447033D01*
X117332741Y-121445309D01*
X117327652Y-121444402D01*
X117327650Y-121444402D01*
X117254394Y-121431353D01*
X117094163Y-121402812D01*
X117003635Y-121401706D01*
X116857018Y-121399914D01*
X116857016Y-121399914D01*
X116851848Y-121399851D01*
X116612303Y-121436507D01*
X116381961Y-121511794D01*
X116353144Y-121526795D01*
X116256264Y-121577228D01*
X116167009Y-121623691D01*
X116162876Y-121626794D01*
X116162873Y-121626796D01*
X115977353Y-121766088D01*
X115973218Y-121769193D01*
X115805795Y-121944392D01*
X115790234Y-121967204D01*
X115735324Y-122012205D01*
X115664799Y-122020376D01*
X115601052Y-121989122D01*
X115587987Y-121974893D01*
X115586599Y-121972747D01*
X115581555Y-121967203D01*
X115426981Y-121797329D01*
X115423506Y-121793510D01*
X115233328Y-121643317D01*
X115113609Y-121577228D01*
X115025705Y-121528702D01*
X115025702Y-121528701D01*
X115021174Y-121526201D01*
X114853458Y-121466810D01*
X114797613Y-121447034D01*
X114797610Y-121447033D01*
X114792741Y-121445309D01*
X114787652Y-121444402D01*
X114787650Y-121444402D01*
X114714394Y-121431353D01*
X114554163Y-121402812D01*
X114463635Y-121401706D01*
X114317018Y-121399914D01*
X114317016Y-121399914D01*
X114311848Y-121399851D01*
X114072303Y-121436507D01*
X113841961Y-121511794D01*
X113813144Y-121526795D01*
X113716264Y-121577228D01*
X113627009Y-121623691D01*
X113622876Y-121626794D01*
X113622873Y-121626796D01*
X113437353Y-121766088D01*
X113433218Y-121769193D01*
X113265795Y-121944392D01*
X113250234Y-121967204D01*
X113195324Y-122012205D01*
X113124799Y-122020376D01*
X113061052Y-121989122D01*
X113047987Y-121974893D01*
X113046599Y-121972747D01*
X113041555Y-121967203D01*
X112886981Y-121797329D01*
X112883506Y-121793510D01*
X112693328Y-121643317D01*
X112573603Y-121577225D01*
X112523636Y-121526795D01*
X112508500Y-121466919D01*
X112508500Y-120677547D01*
X112528502Y-120609426D01*
X112582158Y-120562933D01*
X112594623Y-120558024D01*
X112696993Y-120523870D01*
X112696995Y-120523869D01*
X112703946Y-120521550D01*
X112854348Y-120428478D01*
X112871090Y-120411707D01*
X112941138Y-120341537D01*
X113003421Y-120307458D01*
X113074241Y-120312461D01*
X113119329Y-120341382D01*
X113201829Y-120423739D01*
X113213240Y-120432751D01*
X113351243Y-120517816D01*
X113364424Y-120523963D01*
X113518710Y-120575138D01*
X113532086Y-120578005D01*
X113626438Y-120587672D01*
X113632854Y-120588000D01*
X113670385Y-120588000D01*
X113685624Y-120583525D01*
X113686829Y-120582135D01*
X113688500Y-120574452D01*
X113688500Y-120569884D01*
X114196500Y-120569884D01*
X114200975Y-120585123D01*
X114202365Y-120586328D01*
X114210048Y-120587999D01*
X114252095Y-120587999D01*
X114258614Y-120587662D01*
X114354206Y-120577743D01*
X114367600Y-120574851D01*
X114521784Y-120523412D01*
X114534962Y-120517239D01*
X114672807Y-120431937D01*
X114684208Y-120422901D01*
X114798739Y-120308171D01*
X114807751Y-120296760D01*
X114892816Y-120158757D01*
X114898963Y-120145576D01*
X114950138Y-119991290D01*
X114953005Y-119977914D01*
X114962672Y-119883562D01*
X114963000Y-119877146D01*
X114963000Y-119652115D01*
X114958525Y-119636876D01*
X114957135Y-119635671D01*
X114949452Y-119634000D01*
X114214615Y-119634000D01*
X114199376Y-119638475D01*
X114198171Y-119639865D01*
X114196500Y-119647548D01*
X114196500Y-120569884D01*
X113688500Y-120569884D01*
X113688500Y-119107885D01*
X114196500Y-119107885D01*
X114200975Y-119123124D01*
X114202365Y-119124329D01*
X114210048Y-119126000D01*
X114944884Y-119126000D01*
X114960123Y-119121525D01*
X114961328Y-119120135D01*
X114962999Y-119112452D01*
X114962999Y-118882905D01*
X114962662Y-118876386D01*
X114952743Y-118780794D01*
X114949851Y-118767400D01*
X114898412Y-118613216D01*
X114892239Y-118600038D01*
X114806937Y-118462193D01*
X114797901Y-118450792D01*
X114683171Y-118336261D01*
X114671760Y-118327249D01*
X114533757Y-118242184D01*
X114520576Y-118236037D01*
X114366290Y-118184862D01*
X114352914Y-118181995D01*
X114258562Y-118172328D01*
X114252145Y-118172000D01*
X114214615Y-118172000D01*
X114199376Y-118176475D01*
X114198171Y-118177865D01*
X114196500Y-118185548D01*
X114196500Y-119107885D01*
X113688500Y-119107885D01*
X113688500Y-118190116D01*
X113684025Y-118174877D01*
X113682635Y-118173672D01*
X113674952Y-118172001D01*
X113632905Y-118172001D01*
X113626386Y-118172338D01*
X113530794Y-118182257D01*
X113517400Y-118185149D01*
X113363216Y-118236588D01*
X113350038Y-118242761D01*
X113212193Y-118328063D01*
X113200792Y-118337099D01*
X113119570Y-118418462D01*
X113057287Y-118452541D01*
X112986467Y-118447538D01*
X112941380Y-118418617D01*
X112858488Y-118335870D01*
X112858483Y-118335866D01*
X112853303Y-118330695D01*
X112847069Y-118326852D01*
X112810883Y-118304546D01*
X112763390Y-118251774D01*
X112751000Y-118197287D01*
X112751000Y-116306268D01*
X112751527Y-116295085D01*
X112753202Y-116287592D01*
X112751062Y-116219501D01*
X112751000Y-116215544D01*
X112751000Y-116187644D01*
X112750496Y-116183653D01*
X112749563Y-116171811D01*
X112748984Y-116153370D01*
X112748174Y-116127611D01*
X112742521Y-116108152D01*
X112738512Y-116088793D01*
X112738346Y-116087483D01*
X112735974Y-116068703D01*
X112733058Y-116061337D01*
X112733056Y-116061331D01*
X112719700Y-116027598D01*
X112715855Y-116016368D01*
X112705730Y-115981517D01*
X112705730Y-115981516D01*
X112703519Y-115973907D01*
X112693205Y-115956466D01*
X112684508Y-115938713D01*
X112679972Y-115927258D01*
X112677052Y-115919883D01*
X112651063Y-115884112D01*
X112644547Y-115874192D01*
X112626078Y-115842963D01*
X112622042Y-115836138D01*
X112607721Y-115821817D01*
X112594880Y-115806783D01*
X112587631Y-115796806D01*
X112582972Y-115790393D01*
X112576868Y-115785343D01*
X112576863Y-115785338D01*
X112548902Y-115762207D01*
X112540121Y-115754217D01*
X111635404Y-114849499D01*
X111601379Y-114787187D01*
X111598500Y-114760404D01*
X111598500Y-114201866D01*
X111595568Y-114174875D01*
X111592598Y-114147534D01*
X111592598Y-114147532D01*
X111591745Y-114139684D01*
X111586088Y-114124594D01*
X111574705Y-114094229D01*
X111569522Y-114023422D01*
X111574705Y-114005771D01*
X111588973Y-113967711D01*
X111588973Y-113967709D01*
X111591745Y-113960316D01*
X111597218Y-113909940D01*
X111598131Y-113901531D01*
X111598500Y-113898134D01*
X111598500Y-113159500D01*
X111618502Y-113091379D01*
X111672158Y-113044886D01*
X111724500Y-113033500D01*
X113273413Y-113033500D01*
X113341534Y-113053502D01*
X113388027Y-113107158D01*
X113398722Y-113146328D01*
X113406458Y-113219928D01*
X113465473Y-113401556D01*
X113560960Y-113566944D01*
X113565378Y-113571851D01*
X113565379Y-113571852D01*
X113635147Y-113649337D01*
X113688747Y-113708866D01*
X113772449Y-113769679D01*
X113833037Y-113813699D01*
X113843248Y-113821118D01*
X113849276Y-113823802D01*
X113849278Y-113823803D01*
X114011681Y-113896109D01*
X114017712Y-113898794D01*
X114106262Y-113917616D01*
X114198056Y-113937128D01*
X114198061Y-113937128D01*
X114204513Y-113938500D01*
X114395487Y-113938500D01*
X114401939Y-113937128D01*
X114401944Y-113937128D01*
X114493738Y-113917616D01*
X114582288Y-113898794D01*
X114588319Y-113896109D01*
X114750722Y-113823803D01*
X114750724Y-113823802D01*
X114756752Y-113821118D01*
X114766964Y-113813699D01*
X114827551Y-113769679D01*
X114911253Y-113708866D01*
X114964853Y-113649337D01*
X115034621Y-113571852D01*
X115034622Y-113571851D01*
X115039040Y-113566944D01*
X115134527Y-113401556D01*
X115193542Y-113219928D01*
X115205395Y-113107158D01*
X115212814Y-113036565D01*
X115213504Y-113030000D01*
X115193542Y-112840072D01*
X115134527Y-112658444D01*
X115039040Y-112493056D01*
X114930771Y-112372811D01*
X114924263Y-112359250D01*
X114924161Y-112359228D01*
X114910485Y-112350576D01*
X114762094Y-112242763D01*
X114762093Y-112242762D01*
X114756752Y-112238882D01*
X114750724Y-112236198D01*
X114750722Y-112236197D01*
X114588319Y-112163891D01*
X114588318Y-112163891D01*
X114582288Y-112161206D01*
X114488888Y-112141353D01*
X114401944Y-112122872D01*
X114401939Y-112122872D01*
X114395487Y-112121500D01*
X114339595Y-112121500D01*
X114271474Y-112101498D01*
X114250500Y-112084595D01*
X114173652Y-112007747D01*
X114166112Y-111999461D01*
X114162000Y-111992982D01*
X114112348Y-111946356D01*
X114109507Y-111943602D01*
X114089770Y-111923865D01*
X114086573Y-111921385D01*
X114077551Y-111913680D01*
X114051100Y-111888841D01*
X114045321Y-111883414D01*
X114038375Y-111879595D01*
X114038372Y-111879593D01*
X114027566Y-111873652D01*
X114011047Y-111862801D01*
X114010583Y-111862441D01*
X113995041Y-111850386D01*
X113987772Y-111847241D01*
X113987768Y-111847238D01*
X113954463Y-111832826D01*
X113943813Y-111827609D01*
X113905060Y-111806305D01*
X113885437Y-111801267D01*
X113866734Y-111794863D01*
X113855420Y-111789967D01*
X113855419Y-111789967D01*
X113848145Y-111786819D01*
X113840322Y-111785580D01*
X113840312Y-111785577D01*
X113804476Y-111779901D01*
X113792856Y-111777495D01*
X113757711Y-111768472D01*
X113757710Y-111768472D01*
X113750030Y-111766500D01*
X113729776Y-111766500D01*
X113710065Y-111764949D01*
X113697886Y-111763020D01*
X113690057Y-111761780D01*
X113682165Y-111762526D01*
X113646039Y-111765941D01*
X113634181Y-111766500D01*
X111724500Y-111766500D01*
X111656379Y-111746498D01*
X111609886Y-111692842D01*
X111598500Y-111640500D01*
X111598500Y-110959500D01*
X111618502Y-110891379D01*
X111672158Y-110844886D01*
X111724500Y-110833500D01*
X113695406Y-110833500D01*
X113763527Y-110853502D01*
G37*
%TD.AperFunction*%
%TD*%
M02*
