%TF.GenerationSoftware,KiCad,Pcbnew,(6.0.1)*%
%TF.CreationDate,2022-05-14T12:38:18+08:00*%
%TF.ProjectId,SDISK2_ESP,53444953-4b32-45f4-9553-502e6b696361,rev?*%
%TF.SameCoordinates,Original*%
%TF.FileFunction,Legend,Bot*%
%TF.FilePolarity,Positive*%
%FSLAX46Y46*%
G04 Gerber Fmt 4.6, Leading zero omitted, Abs format (unit mm)*
G04 Created by KiCad (PCBNEW (6.0.1)) date 2022-05-14 12:38:18*
%MOMM*%
%LPD*%
G01*
G04 APERTURE LIST*
%ADD10C,0.250000*%
%ADD11C,0.300000*%
%ADD12C,0.150000*%
%ADD13C,0.120000*%
G04 APERTURE END LIST*
D10*
X111793333Y-128406666D02*
X112193333Y-128273333D01*
X112860000Y-128273333D01*
X113126666Y-128406666D01*
X113260000Y-128540000D01*
X113393333Y-128806666D01*
X113393333Y-129073333D01*
X113260000Y-129340000D01*
X113126666Y-129473333D01*
X112860000Y-129606666D01*
X112326666Y-129740000D01*
X112060000Y-129873333D01*
X111926666Y-130006666D01*
X111793333Y-130273333D01*
X111793333Y-130540000D01*
X111926666Y-130806666D01*
X112060000Y-130940000D01*
X112326666Y-131073333D01*
X112993333Y-131073333D01*
X113393333Y-130940000D01*
X114593333Y-128273333D02*
X114593333Y-131073333D01*
X115260000Y-131073333D01*
X115660000Y-130940000D01*
X115926666Y-130673333D01*
X116060000Y-130406666D01*
X116193333Y-129873333D01*
X116193333Y-129473333D01*
X116060000Y-128940000D01*
X115926666Y-128673333D01*
X115660000Y-128406666D01*
X115260000Y-128273333D01*
X114593333Y-128273333D01*
X117393333Y-128273333D02*
X117393333Y-131073333D01*
X118593333Y-128406666D02*
X118993333Y-128273333D01*
X119660000Y-128273333D01*
X119926666Y-128406666D01*
X120060000Y-128540000D01*
X120193333Y-128806666D01*
X120193333Y-129073333D01*
X120060000Y-129340000D01*
X119926666Y-129473333D01*
X119660000Y-129606666D01*
X119126666Y-129740000D01*
X118860000Y-129873333D01*
X118726666Y-130006666D01*
X118593333Y-130273333D01*
X118593333Y-130540000D01*
X118726666Y-130806666D01*
X118860000Y-130940000D01*
X119126666Y-131073333D01*
X119793333Y-131073333D01*
X120193333Y-130940000D01*
X121393333Y-128273333D02*
X121393333Y-131073333D01*
X122993333Y-128273333D02*
X121793333Y-129873333D01*
X122993333Y-131073333D02*
X121393333Y-129473333D01*
X124060000Y-130806666D02*
X124193333Y-130940000D01*
X124460000Y-131073333D01*
X125126666Y-131073333D01*
X125393333Y-130940000D01*
X125526666Y-130806666D01*
X125660000Y-130540000D01*
X125660000Y-130273333D01*
X125526666Y-129873333D01*
X123926666Y-128273333D01*
X125660000Y-128273333D01*
X126860000Y-129340000D02*
X128993333Y-129340000D01*
X130326666Y-129740000D02*
X131260000Y-129740000D01*
X131660000Y-128273333D02*
X130326666Y-128273333D01*
X130326666Y-131073333D01*
X131660000Y-131073333D01*
X132726666Y-128406666D02*
X133126666Y-128273333D01*
X133793333Y-128273333D01*
X134060000Y-128406666D01*
X134193333Y-128540000D01*
X134326666Y-128806666D01*
X134326666Y-129073333D01*
X134193333Y-129340000D01*
X134060000Y-129473333D01*
X133793333Y-129606666D01*
X133260000Y-129740000D01*
X132993333Y-129873333D01*
X132860000Y-130006666D01*
X132726666Y-130273333D01*
X132726666Y-130540000D01*
X132860000Y-130806666D01*
X132993333Y-130940000D01*
X133260000Y-131073333D01*
X133926666Y-131073333D01*
X134326666Y-130940000D01*
X135526666Y-128273333D02*
X135526666Y-131073333D01*
X136593333Y-131073333D01*
X136860000Y-130940000D01*
X136993333Y-130806666D01*
X137126666Y-130540000D01*
X137126666Y-130140000D01*
X136993333Y-129873333D01*
X136860000Y-129740000D01*
X136593333Y-129606666D01*
X135526666Y-129606666D01*
D11*
X152701428Y-91614761D02*
X152701428Y-93233809D01*
X152606190Y-93424285D01*
X152510952Y-93519523D01*
X152320476Y-93614761D01*
X151939523Y-93614761D01*
X151749047Y-93519523D01*
X151653809Y-93424285D01*
X151558571Y-93233809D01*
X151558571Y-91614761D01*
X150606190Y-93614761D02*
X150606190Y-91614761D01*
X149844285Y-91614761D01*
X149653809Y-91710000D01*
X149558571Y-91805238D01*
X149463333Y-91995714D01*
X149463333Y-92281428D01*
X149558571Y-92471904D01*
X149653809Y-92567142D01*
X149844285Y-92662380D01*
X150606190Y-92662380D01*
X157431904Y-112664761D02*
X157431904Y-110664761D01*
X156955714Y-110664761D01*
X156670000Y-110760000D01*
X156479523Y-110950476D01*
X156384285Y-111140952D01*
X156289047Y-111521904D01*
X156289047Y-111807619D01*
X156384285Y-112188571D01*
X156479523Y-112379047D01*
X156670000Y-112569523D01*
X156955714Y-112664761D01*
X157431904Y-112664761D01*
X155050952Y-110664761D02*
X154670000Y-110664761D01*
X154479523Y-110760000D01*
X154289047Y-110950476D01*
X154193809Y-111331428D01*
X154193809Y-111998095D01*
X154289047Y-112379047D01*
X154479523Y-112569523D01*
X154670000Y-112664761D01*
X155050952Y-112664761D01*
X155241428Y-112569523D01*
X155431904Y-112379047D01*
X155527142Y-111998095D01*
X155527142Y-111331428D01*
X155431904Y-110950476D01*
X155241428Y-110760000D01*
X155050952Y-110664761D01*
X153527142Y-110664761D02*
X153050952Y-112664761D01*
X152670000Y-111236190D01*
X152289047Y-112664761D01*
X151812857Y-110664761D01*
X151050952Y-112664761D02*
X151050952Y-110664761D01*
X149908095Y-112664761D01*
X149908095Y-110664761D01*
D12*
X132087619Y-94337676D02*
X132087619Y-95194819D01*
X132135238Y-95290057D01*
X132230476Y-95337676D01*
X132278095Y-95337676D01*
X132087619Y-94004342D02*
X132135238Y-94051962D01*
X132087619Y-94099581D01*
X132040000Y-94051962D01*
X132087619Y-94004342D01*
X132087619Y-94099581D01*
X131468571Y-95004342D02*
X131563809Y-94956723D01*
X131611428Y-94861485D01*
X131611428Y-94004342D01*
X130659047Y-94956723D02*
X130754285Y-95004342D01*
X130944761Y-95004342D01*
X131040000Y-94956723D01*
X131087619Y-94909104D01*
X131135238Y-94813866D01*
X131135238Y-94528152D01*
X131087619Y-94432914D01*
X131040000Y-94385295D01*
X130944761Y-94337676D01*
X130754285Y-94337676D01*
X130659047Y-94385295D01*
X130230476Y-94337676D02*
X130230476Y-95194819D01*
X130278095Y-95290057D01*
X130373333Y-95337676D01*
X130420952Y-95337676D01*
X130230476Y-94004342D02*
X130278095Y-94051962D01*
X130230476Y-94099581D01*
X130182857Y-94051962D01*
X130230476Y-94004342D01*
X130230476Y-94099581D01*
X129611428Y-95004342D02*
X129706666Y-94956723D01*
X129754285Y-94861485D01*
X129754285Y-94004342D01*
X128801904Y-94956723D02*
X128897142Y-95004342D01*
X129087619Y-95004342D01*
X129182857Y-94956723D01*
X129230476Y-94909104D01*
X129278095Y-94813866D01*
X129278095Y-94528152D01*
X129230476Y-94432914D01*
X129182857Y-94385295D01*
X129087619Y-94337676D01*
X128897142Y-94337676D01*
X128801904Y-94385295D01*
X128373333Y-94337676D02*
X128373333Y-95194819D01*
X128420952Y-95290057D01*
X128516190Y-95337676D01*
X128563809Y-95337676D01*
X128373333Y-94004342D02*
X128420952Y-94051962D01*
X128373333Y-94099581D01*
X128325714Y-94051962D01*
X128373333Y-94004342D01*
X128373333Y-94099581D01*
X127754285Y-95004342D02*
X127849523Y-94956723D01*
X127897142Y-94861485D01*
X127897142Y-94004342D01*
X126944761Y-94956723D02*
X127040000Y-95004342D01*
X127230476Y-95004342D01*
X127325714Y-94956723D01*
X127373333Y-94909104D01*
X127420952Y-94813866D01*
X127420952Y-94528152D01*
X127373333Y-94432914D01*
X127325714Y-94385295D01*
X127230476Y-94337676D01*
X127040000Y-94337676D01*
X126944761Y-94385295D01*
X111109499Y-126189794D02*
X111823784Y-126189794D01*
X110966641Y-125761222D02*
X111466641Y-127261222D01*
X111966641Y-125761222D01*
X112466641Y-126761222D02*
X112466641Y-125261222D01*
X112466641Y-126689794D02*
X112609499Y-126761222D01*
X112895213Y-126761222D01*
X113038070Y-126689794D01*
X113109499Y-126618365D01*
X113180927Y-126475508D01*
X113180927Y-126046936D01*
X113109499Y-125904079D01*
X113038070Y-125832651D01*
X112895213Y-125761222D01*
X112609499Y-125761222D01*
X112466641Y-125832651D01*
X113823784Y-126761222D02*
X113823784Y-125261222D01*
X113823784Y-126689794D02*
X113966641Y-126761222D01*
X114252356Y-126761222D01*
X114395213Y-126689794D01*
X114466641Y-126618365D01*
X114538070Y-126475508D01*
X114538070Y-126046936D01*
X114466641Y-125904079D01*
X114395213Y-125832651D01*
X114252356Y-125761222D01*
X113966641Y-125761222D01*
X113823784Y-125832651D01*
X115395213Y-125761222D02*
X115252356Y-125832651D01*
X115180927Y-125975508D01*
X115180927Y-127261222D01*
X116538070Y-125832651D02*
X116395213Y-125761222D01*
X116109499Y-125761222D01*
X115966641Y-125832651D01*
X115895213Y-125975508D01*
X115895213Y-126546936D01*
X115966641Y-126689794D01*
X116109499Y-126761222D01*
X116395213Y-126761222D01*
X116538070Y-126689794D01*
X116609499Y-126546936D01*
X116609499Y-126404079D01*
X115895213Y-126261222D01*
X118395213Y-125761222D02*
X118395213Y-127261222D01*
X118752356Y-127261222D01*
X118966641Y-127189794D01*
X119109499Y-127046936D01*
X119180927Y-126904079D01*
X119252356Y-126618365D01*
X119252356Y-126404079D01*
X119180927Y-126118365D01*
X119109499Y-125975508D01*
X118966641Y-125832651D01*
X118752356Y-125761222D01*
X118395213Y-125761222D01*
X119895213Y-125761222D02*
X119895213Y-127261222D01*
X120538070Y-125832651D02*
X120752356Y-125761222D01*
X121109499Y-125761222D01*
X121252356Y-125832651D01*
X121323784Y-125904079D01*
X121395213Y-126046936D01*
X121395213Y-126189794D01*
X121323784Y-126332651D01*
X121252356Y-126404079D01*
X121109499Y-126475508D01*
X120823784Y-126546936D01*
X120680927Y-126618365D01*
X120609499Y-126689794D01*
X120538070Y-126832651D01*
X120538070Y-126975508D01*
X120609499Y-127118365D01*
X120680927Y-127189794D01*
X120823784Y-127261222D01*
X121180927Y-127261222D01*
X121395213Y-127189794D01*
X122038070Y-125761222D02*
X122038070Y-127261222D01*
X122895213Y-125761222D02*
X122252356Y-126618365D01*
X122895213Y-127261222D02*
X122038070Y-126404079D01*
X124538070Y-125261222D02*
X124895213Y-125261222D01*
X124895213Y-127404079D01*
X124538070Y-127404079D01*
X126109499Y-125261222D02*
X125752356Y-125261222D01*
X125752356Y-127404079D01*
X126109499Y-127404079D01*
X128395213Y-125832651D02*
X128252356Y-125761222D01*
X127966641Y-125761222D01*
X127823784Y-125832651D01*
X127752356Y-125975508D01*
X127752356Y-126546936D01*
X127823784Y-126689794D01*
X127966641Y-126761222D01*
X128252356Y-126761222D01*
X128395213Y-126689794D01*
X128466641Y-126546936D01*
X128466641Y-126404079D01*
X127752356Y-126261222D01*
X129109499Y-125761222D02*
X129109499Y-126761222D01*
X129109499Y-126618365D02*
X129180927Y-126689794D01*
X129323784Y-126761222D01*
X129538070Y-126761222D01*
X129680927Y-126689794D01*
X129752356Y-126546936D01*
X129752356Y-125761222D01*
X129752356Y-126546936D02*
X129823784Y-126689794D01*
X129966641Y-126761222D01*
X130180927Y-126761222D01*
X130323784Y-126689794D01*
X130395213Y-126546936D01*
X130395213Y-125761222D01*
X131752356Y-126761222D02*
X131752356Y-125761222D01*
X131109499Y-126761222D02*
X131109499Y-125975508D01*
X131180927Y-125832651D01*
X131323784Y-125761222D01*
X131538070Y-125761222D01*
X131680927Y-125832651D01*
X131752356Y-125904079D01*
X132680927Y-125761222D02*
X132538070Y-125832651D01*
X132466641Y-125975508D01*
X132466641Y-127261222D01*
X133895213Y-125761222D02*
X133895213Y-126546936D01*
X133823784Y-126689794D01*
X133680927Y-126761222D01*
X133395213Y-126761222D01*
X133252356Y-126689794D01*
X133895213Y-125832651D02*
X133752356Y-125761222D01*
X133395213Y-125761222D01*
X133252356Y-125832651D01*
X133180927Y-125975508D01*
X133180927Y-126118365D01*
X133252356Y-126261222D01*
X133395213Y-126332651D01*
X133752356Y-126332651D01*
X133895213Y-126404079D01*
X134395213Y-126761222D02*
X134966641Y-126761222D01*
X134609499Y-127261222D02*
X134609499Y-125975508D01*
X134680927Y-125832651D01*
X134823784Y-125761222D01*
X134966641Y-125761222D01*
X135680927Y-125761222D02*
X135538070Y-125832651D01*
X135466641Y-125904079D01*
X135395213Y-126046936D01*
X135395213Y-126475508D01*
X135466641Y-126618365D01*
X135538070Y-126689794D01*
X135680927Y-126761222D01*
X135895213Y-126761222D01*
X136038070Y-126689794D01*
X136109499Y-126618365D01*
X136180927Y-126475508D01*
X136180927Y-126046936D01*
X136109499Y-125904079D01*
X136038070Y-125832651D01*
X135895213Y-125761222D01*
X135680927Y-125761222D01*
X136823784Y-125761222D02*
X136823784Y-126761222D01*
X136823784Y-126475508D02*
X136895213Y-126618365D01*
X136966641Y-126689794D01*
X137109499Y-126761222D01*
X137252356Y-126761222D01*
D11*
X157812857Y-128127142D02*
X157146190Y-128127142D01*
X156860476Y-129174761D02*
X157812857Y-129174761D01*
X157812857Y-127174761D01*
X156860476Y-127174761D01*
X156003333Y-129174761D02*
X156003333Y-127174761D01*
X154860476Y-129174761D01*
X154860476Y-127174761D01*
X154193809Y-127174761D02*
X153050952Y-127174761D01*
X153622380Y-129174761D02*
X153622380Y-127174761D01*
X152384285Y-128127142D02*
X151717619Y-128127142D01*
X151431904Y-129174761D02*
X152384285Y-129174761D01*
X152384285Y-127174761D01*
X151431904Y-127174761D01*
X149431904Y-129174761D02*
X150098571Y-128222380D01*
X150574761Y-129174761D02*
X150574761Y-127174761D01*
X149812857Y-127174761D01*
X149622380Y-127270000D01*
X149527142Y-127365238D01*
X149431904Y-127555714D01*
X149431904Y-127841428D01*
X149527142Y-128031904D01*
X149622380Y-128127142D01*
X149812857Y-128222380D01*
X150574761Y-128222380D01*
D12*
%TO.C,R2*%
X116139398Y-119792505D02*
X116472732Y-119316315D01*
X116710827Y-119792505D02*
X116710827Y-118792505D01*
X116329874Y-118792505D01*
X116234636Y-118840125D01*
X116187017Y-118887744D01*
X116139398Y-118982982D01*
X116139398Y-119125839D01*
X116187017Y-119221077D01*
X116234636Y-119268696D01*
X116329874Y-119316315D01*
X116710827Y-119316315D01*
X115758446Y-118887744D02*
X115710827Y-118840125D01*
X115615589Y-118792505D01*
X115377493Y-118792505D01*
X115282255Y-118840125D01*
X115234636Y-118887744D01*
X115187017Y-118982982D01*
X115187017Y-119078220D01*
X115234636Y-119221077D01*
X115806065Y-119792505D01*
X115187017Y-119792505D01*
%TO.C,D1*%
X143323955Y-88083689D02*
X142323955Y-88083689D01*
X142323955Y-88321785D01*
X142371575Y-88464642D01*
X142466813Y-88559880D01*
X142562051Y-88607499D01*
X142752527Y-88655118D01*
X142895384Y-88655118D01*
X143085860Y-88607499D01*
X143181098Y-88559880D01*
X143276336Y-88464642D01*
X143323955Y-88321785D01*
X143323955Y-88083689D01*
X143323955Y-89607499D02*
X143323955Y-89036070D01*
X143323955Y-89321785D02*
X142323955Y-89321785D01*
X142466813Y-89226546D01*
X142562051Y-89131308D01*
X142609670Y-89036070D01*
%TO.C,J1*%
X140172380Y-72076666D02*
X140886666Y-72076666D01*
X141029523Y-72029047D01*
X141124761Y-71933809D01*
X141172380Y-71790952D01*
X141172380Y-71695714D01*
X141172380Y-73076666D02*
X141172380Y-72505238D01*
X141172380Y-72790952D02*
X140172380Y-72790952D01*
X140315238Y-72695714D01*
X140410476Y-72600476D01*
X140458095Y-72505238D01*
%TO.C,R3*%
X115727717Y-92667962D02*
X116061051Y-92191772D01*
X116299146Y-92667962D02*
X116299146Y-91667962D01*
X115918193Y-91667962D01*
X115822955Y-91715582D01*
X115775336Y-91763201D01*
X115727717Y-91858439D01*
X115727717Y-92001296D01*
X115775336Y-92096534D01*
X115822955Y-92144153D01*
X115918193Y-92191772D01*
X116299146Y-92191772D01*
X115394384Y-91667962D02*
X114775336Y-91667962D01*
X115108670Y-92048915D01*
X114965812Y-92048915D01*
X114870574Y-92096534D01*
X114822955Y-92144153D01*
X114775336Y-92239391D01*
X114775336Y-92477486D01*
X114822955Y-92572724D01*
X114870574Y-92620343D01*
X114965812Y-92667962D01*
X115251527Y-92667962D01*
X115346765Y-92620343D01*
X115394384Y-92572724D01*
%TO.C,C1*%
X108130811Y-89098594D02*
X108178430Y-89050975D01*
X108226049Y-88908118D01*
X108226049Y-88812880D01*
X108178430Y-88670022D01*
X108083192Y-88574784D01*
X107987954Y-88527165D01*
X107797478Y-88479546D01*
X107654621Y-88479546D01*
X107464145Y-88527165D01*
X107368907Y-88574784D01*
X107273669Y-88670022D01*
X107226049Y-88812880D01*
X107226049Y-88908118D01*
X107273669Y-89050975D01*
X107321288Y-89098594D01*
X108226049Y-90050975D02*
X108226049Y-89479546D01*
X108226049Y-89765261D02*
X107226049Y-89765261D01*
X107368907Y-89670022D01*
X107464145Y-89574784D01*
X107511764Y-89479546D01*
%TO.C,OLED*%
X137811981Y-86444522D02*
X137811981Y-86634998D01*
X137859601Y-86730236D01*
X137954839Y-86825474D01*
X138145315Y-86873093D01*
X138478648Y-86873093D01*
X138669124Y-86825474D01*
X138764362Y-86730236D01*
X138811981Y-86634998D01*
X138811981Y-86444522D01*
X138764362Y-86349283D01*
X138669124Y-86254045D01*
X138478648Y-86206426D01*
X138145315Y-86206426D01*
X137954839Y-86254045D01*
X137859601Y-86349283D01*
X137811981Y-86444522D01*
X138811981Y-87777855D02*
X138811981Y-87301664D01*
X137811981Y-87301664D01*
X138288172Y-88111188D02*
X138288172Y-88444522D01*
X138811981Y-88587379D02*
X138811981Y-88111188D01*
X137811981Y-88111188D01*
X137811981Y-88587379D01*
X138811981Y-89015950D02*
X137811981Y-89015950D01*
X137811981Y-89254045D01*
X137859601Y-89396903D01*
X137954839Y-89492141D01*
X138050077Y-89539760D01*
X138240553Y-89587379D01*
X138383410Y-89587379D01*
X138573886Y-89539760D01*
X138669124Y-89492141D01*
X138764362Y-89396903D01*
X138811981Y-89254045D01*
X138811981Y-89015950D01*
X143424953Y-94804149D02*
X143472572Y-94947006D01*
X143472572Y-95185101D01*
X143424953Y-95280339D01*
X143377334Y-95327958D01*
X143282096Y-95375577D01*
X143186858Y-95375577D01*
X143091620Y-95327958D01*
X143044001Y-95280339D01*
X142996382Y-95185101D01*
X142948763Y-94994625D01*
X142901144Y-94899387D01*
X142853525Y-94851768D01*
X142758287Y-94804149D01*
X142663049Y-94804149D01*
X142567811Y-94851768D01*
X142520192Y-94899387D01*
X142472572Y-94994625D01*
X142472572Y-95232720D01*
X142520192Y-95375577D01*
X143472572Y-95804149D02*
X142472572Y-95804149D01*
X142472572Y-96042244D01*
X142520192Y-96185101D01*
X142615430Y-96280339D01*
X142710668Y-96327958D01*
X142901144Y-96375577D01*
X143044001Y-96375577D01*
X143234477Y-96327958D01*
X143329715Y-96280339D01*
X143424953Y-96185101D01*
X143472572Y-96042244D01*
X143472572Y-95804149D01*
X143186858Y-96756530D02*
X143186858Y-97232720D01*
X143472572Y-96661292D02*
X142472572Y-96994625D01*
X143472572Y-97327958D01*
X142377401Y-101475496D02*
X142329781Y-101380258D01*
X142329781Y-101237401D01*
X142377401Y-101094543D01*
X142472639Y-100999305D01*
X142567877Y-100951686D01*
X142758353Y-100904067D01*
X142901210Y-100904067D01*
X143091686Y-100951686D01*
X143186924Y-100999305D01*
X143282162Y-101094543D01*
X143329781Y-101237401D01*
X143329781Y-101332639D01*
X143282162Y-101475496D01*
X143234543Y-101523115D01*
X142901210Y-101523115D01*
X142901210Y-101332639D01*
X143329781Y-101951686D02*
X142329781Y-101951686D01*
X143329781Y-102523115D01*
X142329781Y-102523115D01*
X143329781Y-102999305D02*
X142329781Y-102999305D01*
X142329781Y-103237401D01*
X142377401Y-103380258D01*
X142472639Y-103475496D01*
X142567877Y-103523115D01*
X142758353Y-103570734D01*
X142901210Y-103570734D01*
X143091686Y-103523115D01*
X143186924Y-103475496D01*
X143282162Y-103380258D01*
X143329781Y-103237401D01*
X143329781Y-102999305D01*
X143319364Y-98101219D02*
X143366983Y-98244076D01*
X143366983Y-98482172D01*
X143319364Y-98577410D01*
X143271745Y-98625029D01*
X143176507Y-98672648D01*
X143081269Y-98672648D01*
X142986031Y-98625029D01*
X142938412Y-98577410D01*
X142890793Y-98482172D01*
X142843174Y-98291696D01*
X142795555Y-98196457D01*
X142747936Y-98148838D01*
X142652698Y-98101219D01*
X142557460Y-98101219D01*
X142462222Y-98148838D01*
X142414603Y-98196457D01*
X142366983Y-98291696D01*
X142366983Y-98529791D01*
X142414603Y-98672648D01*
X143271745Y-99672648D02*
X143319364Y-99625029D01*
X143366983Y-99482172D01*
X143366983Y-99386934D01*
X143319364Y-99244076D01*
X143224126Y-99148838D01*
X143128888Y-99101219D01*
X142938412Y-99053600D01*
X142795555Y-99053600D01*
X142605079Y-99101219D01*
X142509841Y-99148838D01*
X142414603Y-99244076D01*
X142366983Y-99386934D01*
X142366983Y-99482172D01*
X142414603Y-99625029D01*
X142462222Y-99672648D01*
X143366983Y-100577410D02*
X143366983Y-100101219D01*
X142366983Y-100101219D01*
X142446175Y-104161720D02*
X143446175Y-104495054D01*
X142446175Y-104828387D01*
X143350937Y-105733149D02*
X143398556Y-105685530D01*
X143446175Y-105542673D01*
X143446175Y-105447434D01*
X143398556Y-105304577D01*
X143303318Y-105209339D01*
X143208080Y-105161720D01*
X143017604Y-105114101D01*
X142874747Y-105114101D01*
X142684271Y-105161720D01*
X142589033Y-105209339D01*
X142493795Y-105304577D01*
X142446175Y-105447434D01*
X142446175Y-105542673D01*
X142493795Y-105685530D01*
X142541414Y-105733149D01*
X143350937Y-106733149D02*
X143398556Y-106685530D01*
X143446175Y-106542673D01*
X143446175Y-106447434D01*
X143398556Y-106304577D01*
X143303318Y-106209339D01*
X143208080Y-106161720D01*
X143017604Y-106114101D01*
X142874747Y-106114101D01*
X142684271Y-106161720D01*
X142589033Y-106209339D01*
X142493795Y-106304577D01*
X142446175Y-106447434D01*
X142446175Y-106542673D01*
X142493795Y-106685530D01*
X142541414Y-106733149D01*
%TO.C,R1*%
X143425633Y-92542360D02*
X142949443Y-92209027D01*
X143425633Y-91970931D02*
X142425633Y-91970931D01*
X142425633Y-92351884D01*
X142473253Y-92447122D01*
X142520872Y-92494741D01*
X142616110Y-92542360D01*
X142758967Y-92542360D01*
X142854205Y-92494741D01*
X142901824Y-92447122D01*
X142949443Y-92351884D01*
X142949443Y-91970931D01*
X143425633Y-93494741D02*
X143425633Y-92923312D01*
X143425633Y-93209027D02*
X142425633Y-93209027D01*
X142568491Y-93113788D01*
X142663729Y-93018550D01*
X142711348Y-92923312D01*
%TO.C,J2*%
X97267128Y-107616636D02*
X97981414Y-107616636D01*
X98124271Y-107569017D01*
X98219509Y-107473779D01*
X98267128Y-107330922D01*
X98267128Y-107235684D01*
X97362367Y-108045208D02*
X97314748Y-108092827D01*
X97267128Y-108188065D01*
X97267128Y-108426160D01*
X97314748Y-108521398D01*
X97362367Y-108569017D01*
X97457605Y-108616636D01*
X97552843Y-108616636D01*
X97695700Y-108569017D01*
X98267128Y-107997589D01*
X98267128Y-108616636D01*
D13*
%TO.C,R2*%
X113257064Y-118645000D02*
X112802936Y-118645000D01*
X113257064Y-120115000D02*
X112802936Y-120115000D01*
%TO.C,U3*%
X150445984Y-102965000D02*
X150445984Y-108105000D01*
X153105984Y-102965000D02*
X150445984Y-102965000D01*
X153105984Y-100365000D02*
X151775984Y-100365000D01*
X153105984Y-108105000D02*
X150445984Y-108105000D01*
X153105984Y-101695000D02*
X153105984Y-100365000D01*
X153105984Y-102965000D02*
X153105984Y-108105000D01*
X150325000Y-98735000D02*
X164825000Y-98735000D01*
X164825000Y-98735000D02*
X164825000Y-109735000D01*
X164825000Y-109735000D02*
X150325000Y-109735000D01*
X150325000Y-109735000D02*
X150325000Y-98735000D01*
X164325000Y-104235000D02*
G75*
G03*
X164325000Y-104235000I-5000000J0D01*
G01*
%TO.C,D1*%
X145740000Y-87215000D02*
X145740000Y-89900000D01*
X143820000Y-89900000D02*
X143820000Y-87215000D01*
X143820000Y-87215000D02*
X145740000Y-87215000D01*
%TO.C,J1*%
X139830000Y-65235000D02*
X106550000Y-65235000D01*
X106550000Y-65235000D02*
X106550000Y-74355000D01*
X106550000Y-74355000D02*
X139830000Y-74355000D01*
X139830000Y-74355000D02*
X139830000Y-65235000D01*
X135120000Y-80975000D02*
X134120000Y-80975000D01*
X125240000Y-74355000D02*
X125240000Y-65235000D01*
X121140000Y-74355000D02*
X121140000Y-65235000D01*
X134120000Y-80975000D02*
X134620000Y-79975000D01*
X134620000Y-79975000D02*
X135120000Y-80975000D01*
%TO.C,R3*%
X115342936Y-94715000D02*
X115797064Y-94715000D01*
X115342936Y-93245000D02*
X115797064Y-93245000D01*
%TO.C,C1*%
X107215000Y-86098748D02*
X107215000Y-86621252D01*
X108685000Y-86098748D02*
X108685000Y-86621252D01*
%TO.C,OLED*%
X144035591Y-104045000D02*
X144035591Y-105375000D01*
X144035591Y-102775000D02*
X144035591Y-95095000D01*
X144035591Y-102775000D02*
X146695591Y-102775000D01*
X144035591Y-95095000D02*
X146695591Y-95095000D01*
X146695591Y-102775000D02*
X146695591Y-95095000D01*
X144035591Y-105375000D02*
X145365591Y-105375000D01*
X147320000Y-117935000D02*
X113820000Y-117935000D01*
X113820000Y-117935000D02*
X113820000Y-82535000D01*
X113820000Y-82535000D02*
X147320000Y-82535000D01*
X147320000Y-82535000D02*
X147320000Y-117935000D01*
X139647856Y-114945000D02*
X118436632Y-114945000D01*
X118436632Y-114945000D02*
X118436632Y-85525000D01*
X118436632Y-85525000D02*
X139647856Y-85525000D01*
X139647856Y-85525000D02*
X139647856Y-114945000D01*
X117170000Y-115435000D02*
G75*
G03*
X117170000Y-115435000I-850000J0D01*
G01*
X117170000Y-85035000D02*
G75*
G03*
X117170000Y-85035000I-850000J0D01*
G01*
X145670000Y-85035000D02*
G75*
G03*
X145670000Y-85035000I-850000J0D01*
G01*
X145670000Y-115435000D02*
G75*
G03*
X145670000Y-115435000I-850000J0D01*
G01*
%TO.C,U1*%
X153105984Y-83915000D02*
X153105984Y-89055000D01*
X153105984Y-89055000D02*
X150445984Y-89055000D01*
X150445984Y-83915000D02*
X150445984Y-89055000D01*
X153105984Y-82645000D02*
X153105984Y-81315000D01*
X153105984Y-83915000D02*
X150445984Y-83915000D01*
X153105984Y-81315000D02*
X151775984Y-81315000D01*
X150325000Y-79685000D02*
X164825000Y-79685000D01*
X164825000Y-79685000D02*
X164825000Y-90685000D01*
X164825000Y-90685000D02*
X150325000Y-90685000D01*
X150325000Y-90685000D02*
X150325000Y-79685000D01*
X164325000Y-85185000D02*
G75*
G03*
X164325000Y-85185000I-5000000J0D01*
G01*
%TO.C,R1*%
X145515000Y-92937064D02*
X145515000Y-92482936D01*
X144045000Y-92937064D02*
X144045000Y-92482936D01*
%TO.C,J2*%
X94453888Y-111875371D02*
X94303888Y-111875371D01*
X94453888Y-111875371D02*
X94453888Y-105505371D01*
X94103888Y-113945371D02*
X94303888Y-114145371D01*
X94303888Y-102485371D02*
X94303888Y-102225371D01*
X94103888Y-113945371D02*
X94103888Y-112085371D01*
X94303888Y-101013650D02*
X94303888Y-102225371D01*
X94103888Y-112085371D02*
X94303888Y-111875371D01*
X94363888Y-114975371D02*
X94362349Y-114226644D01*
X94362349Y-114226644D02*
X94303888Y-114145371D01*
X98730000Y-115025371D02*
X94423888Y-115025371D01*
X94103888Y-102685371D02*
X94303888Y-102485371D01*
X110374032Y-105148354D02*
X110373888Y-102126955D01*
X109422490Y-114950000D02*
X101208079Y-114950000D01*
X98730000Y-101013650D02*
X94303888Y-101013650D01*
X94103888Y-102685371D02*
X94103888Y-104995371D01*
X108768092Y-101078635D02*
X101345846Y-101078635D01*
X94103888Y-104995371D02*
X94453888Y-105505371D01*
%TO.C,U4*%
X153105984Y-119475000D02*
X150445984Y-119475000D01*
X153105984Y-118205000D02*
X153105984Y-116875000D01*
X153105984Y-116875000D02*
X151775984Y-116875000D01*
X153105984Y-124615000D02*
X150445984Y-124615000D01*
X150445984Y-119475000D02*
X150445984Y-124615000D01*
X153105984Y-119475000D02*
X153105984Y-124615000D01*
X150325000Y-115245000D02*
X164825000Y-115245000D01*
X164825000Y-115245000D02*
X164825000Y-126245000D01*
X164825000Y-126245000D02*
X150325000Y-126245000D01*
X150325000Y-126245000D02*
X150325000Y-115245000D01*
X164325000Y-120745000D02*
G75*
G03*
X164325000Y-120745000I-5000000J0D01*
G01*
%TD*%
M02*
