M48
; DRILL file {KiCad (6.0.1)} date Sat May 14 12:38:21 2022
; FORMAT={-:-/ absolute / inch / decimal}
; #@! TF.CreationDate,2022-05-14T12:38:21+08:00
; #@! TF.GenerationSoftware,Kicad,Pcbnew,(6.0.1)
; #@! TF.FileFunction,Plated,1,2,PTH
FMAT,2
INCH
; #@! TA.AperFunction,Plated,PTH,ViaDrill
T1C0.0157
; #@! TA.AperFunction,Plated,PTH,ComponentDrill
T2C0.0394
; #@! TA.AperFunction,Plated,PTH,ComponentDrill
T3C0.0472
%
G90
G05
T1
X4.2519Y-4.2124
X4.2853Y-3.5504
X4.4186Y-4.2938
X4.4286Y-3.3772
X4.4385Y-4.3811
X4.464Y-3.4968
X4.5Y-4.45
X4.6Y-3.25
X4.7Y-3.25
X4.701Y-3.551
X4.8218Y-3.3577
X4.9756Y-3.1829
X5.3357Y-3.179
X5.3555Y-3.6295
X5.45Y-4.6531
X5.5243Y-3.1797
X5.6Y-4.65
T2
X4.1045Y-3.8376
X4.1045Y-4.8376
X4.2045Y-3.8376
X4.2045Y-4.8376
X4.3045Y-3.8376
X4.3045Y-4.8376
X4.4Y-2.9955
X4.4Y-3.0955
X4.4045Y-3.8376
X4.4045Y-4.8376
X4.5Y-2.9955
X4.5Y-3.0955
X4.5045Y-3.8376
X4.5045Y-4.8376
X4.6Y-2.9955
X4.6Y-3.0955
X4.6045Y-3.8376
X4.6045Y-4.8376
X4.7Y-2.9955
X4.7Y-3.0955
X4.7045Y-3.8376
X4.7045Y-4.8376
X4.8Y-2.9955
X4.8Y-3.0955
X4.8045Y-3.8376
X4.8045Y-4.8376
X4.9Y-2.9955
X4.9Y-3.0955
X4.9045Y-3.8376
X4.9045Y-4.8376
X5.0Y-2.9955
X5.0Y-3.0955
X5.0045Y-3.8376
X5.0045Y-4.8376
X5.1Y-2.9955
X5.1Y-3.0955
X5.1045Y-3.8376
X5.1045Y-4.8376
X5.2Y-2.9955
X5.2Y-3.0955
X5.2045Y-3.8376
X5.2045Y-4.8376
X5.3Y-2.9955
X5.3Y-3.0955
X5.3045Y-3.8376
X5.3045Y-4.8376
X5.4045Y-3.8376
X5.4045Y-4.8376
X5.5045Y-3.8376
X5.5045Y-4.8376
X5.7231Y-3.7963
X5.7231Y-3.8963
X5.7231Y-3.9963
X5.7231Y-4.0963
X5.9754Y-3.2537
X5.9754Y-3.3537
X5.9754Y-3.4537
X5.9754Y-4.0037
X5.9754Y-4.1037
X5.9754Y-4.2037
X5.9754Y-4.6537
X5.9754Y-4.7537
X5.9754Y-4.8537
T3
X3.9106Y-4.1299
X3.9106Y-4.4441
T0
M30
