%TF.GenerationSoftware,KiCad,Pcbnew,(6.0.1)*%
%TF.CreationDate,2022-05-14T12:38:18+08:00*%
%TF.ProjectId,SDISK2_ESP,53444953-4b32-45f4-9553-502e6b696361,rev?*%
%TF.SameCoordinates,Original*%
%TF.FileFunction,Soldermask,Top*%
%TF.FilePolarity,Negative*%
%FSLAX46Y46*%
G04 Gerber Fmt 4.6, Leading zero omitted, Abs format (unit mm)*
G04 Created by KiCad (PCBNEW (6.0.1)) date 2022-05-14 12:38:18*
%MOMM*%
%LPD*%
G01*
G04 APERTURE LIST*
G04 Aperture macros list*
%AMRoundRect*
0 Rectangle with rounded corners*
0 $1 Rounding radius*
0 $2 $3 $4 $5 $6 $7 $8 $9 X,Y pos of 4 corners*
0 Add a 4 corners polygon primitive as box body*
4,1,4,$2,$3,$4,$5,$6,$7,$8,$9,$2,$3,0*
0 Add four circle primitives for the rounded corners*
1,1,$1+$1,$2,$3*
1,1,$1+$1,$4,$5*
1,1,$1+$1,$6,$7*
1,1,$1+$1,$8,$9*
0 Add four rect primitives between the rounded corners*
20,1,$1+$1,$2,$3,$4,$5,0*
20,1,$1+$1,$4,$5,$6,$7,0*
20,1,$1+$1,$6,$7,$8,$9,0*
20,1,$1+$1,$8,$9,$2,$3,0*%
G04 Aperture macros list end*
%ADD10C,3.000000*%
%ADD11RoundRect,0.150000X-0.150000X0.875000X-0.150000X-0.875000X0.150000X-0.875000X0.150000X0.875000X0*%
%ADD12RoundRect,0.250000X0.475000X-0.250000X0.475000X0.250000X-0.475000X0.250000X-0.475000X-0.250000X0*%
%ADD13RoundRect,0.250000X-0.262500X-0.450000X0.262500X-0.450000X0.262500X0.450000X-0.262500X0.450000X0*%
%ADD14C,1.930400*%
%ADD15RoundRect,0.150000X0.825000X0.150000X-0.825000X0.150000X-0.825000X-0.150000X0.825000X-0.150000X0*%
%ADD16RoundRect,0.250000X0.450000X-0.262500X0.450000X0.262500X-0.450000X0.262500X-0.450000X-0.262500X0*%
%ADD17R,1.700000X1.700000*%
%ADD18O,1.700000X1.700000*%
%ADD19RoundRect,0.250000X0.600000X-0.600000X0.600000X0.600000X-0.600000X0.600000X-0.600000X-0.600000X0*%
%ADD20C,1.700000*%
%ADD21C,1.500000*%
G04 APERTURE END LIST*
D10*
%TO.C,H4*%
X162560000Y-76200000D03*
%TD*%
%TO.C,H2*%
X98500000Y-130000000D03*
%TD*%
D11*
%TO.C,U2*%
X133985000Y-82865000D03*
X132715000Y-82865000D03*
X131445000Y-82865000D03*
X130175000Y-82865000D03*
X128905000Y-82865000D03*
X127635000Y-82865000D03*
X126365000Y-82865000D03*
X125095000Y-82865000D03*
X123825000Y-82865000D03*
X122555000Y-82865000D03*
X122555000Y-92165000D03*
X123825000Y-92165000D03*
X125095000Y-92165000D03*
X126365000Y-92165000D03*
X127635000Y-92165000D03*
X128905000Y-92165000D03*
X130175000Y-92165000D03*
X131445000Y-92165000D03*
X132715000Y-92165000D03*
X133985000Y-92165000D03*
%TD*%
D12*
%TO.C,C3*%
X114129891Y-109017292D03*
X114129891Y-107117292D03*
%TD*%
D10*
%TO.C,H1*%
X98500000Y-76200000D03*
%TD*%
D13*
%TO.C,R4*%
X114145113Y-81666781D03*
X115970113Y-81666781D03*
%TD*%
D14*
%TO.C,BOARD1*%
X104255000Y-122875000D03*
X134735000Y-122875000D03*
X111875000Y-122875000D03*
X132195000Y-122875000D03*
X114415000Y-122875000D03*
X122035000Y-122875000D03*
X111875000Y-97475000D03*
X109335000Y-97475000D03*
X114415000Y-97475000D03*
X109335000Y-122875000D03*
X116955000Y-122875000D03*
X119495000Y-122875000D03*
X124575000Y-122875000D03*
X127115000Y-122875000D03*
X129655000Y-122875000D03*
X137275000Y-122875000D03*
X139815000Y-122875000D03*
X122035000Y-97475000D03*
X119495000Y-97475000D03*
X116955000Y-97475000D03*
X127115000Y-97475000D03*
X124575000Y-97475000D03*
X132195000Y-97475000D03*
X129655000Y-97475000D03*
X139815000Y-97475000D03*
X106795000Y-97475000D03*
X106795000Y-122875000D03*
X104255000Y-97475000D03*
X134735000Y-97475000D03*
X137275000Y-97475000D03*
%TD*%
D15*
%TO.C,U5*%
X115505000Y-91440000D03*
X115505000Y-90170000D03*
X115505000Y-88900000D03*
X115505000Y-87630000D03*
X115505000Y-86360000D03*
X115505000Y-85090000D03*
X115505000Y-83820000D03*
X110555000Y-83820000D03*
X110555000Y-85090000D03*
X110555000Y-86360000D03*
X110555000Y-87630000D03*
X110555000Y-88900000D03*
X110555000Y-90170000D03*
X110555000Y-91440000D03*
%TD*%
D16*
%TO.C,R5*%
X119380000Y-87272500D03*
X119380000Y-85447500D03*
%TD*%
D10*
%TO.C,H3*%
X162560000Y-129540000D03*
%TD*%
D12*
%TO.C,C2*%
X137160000Y-89850000D03*
X137160000Y-87950000D03*
%TD*%
D17*
%TO.C,U3*%
X151775984Y-101695000D03*
D18*
X151775984Y-104235000D03*
X151775984Y-106775000D03*
%TD*%
D19*
%TO.C,J1*%
X134620000Y-78625000D03*
D20*
X134620000Y-76085000D03*
X132080000Y-78625000D03*
X132080000Y-76085000D03*
X129540000Y-78625000D03*
X129540000Y-76085000D03*
X127000000Y-78625000D03*
X127000000Y-76085000D03*
X124460000Y-78625000D03*
X124460000Y-76085000D03*
X121920000Y-78625000D03*
X121920000Y-76085000D03*
X119380000Y-78625000D03*
X119380000Y-76085000D03*
X116840000Y-78625000D03*
X116840000Y-76085000D03*
X114300000Y-78625000D03*
X114300000Y-76085000D03*
X111760000Y-78625000D03*
X111760000Y-76085000D03*
%TD*%
D17*
%TO.C,OLED*%
X145365591Y-104045000D03*
D18*
X145365591Y-101505000D03*
X145365591Y-98965000D03*
X145365591Y-96425000D03*
%TD*%
D17*
%TO.C,U1*%
X151775984Y-82645000D03*
D18*
X151775984Y-85185000D03*
X151775984Y-87725000D03*
%TD*%
D21*
%TO.C,J2*%
X99330000Y-104900000D03*
X99330000Y-112880000D03*
%TD*%
D17*
%TO.C,U4*%
X151775984Y-118205000D03*
D18*
X151775984Y-120745000D03*
X151775984Y-123285000D03*
%TD*%
M02*
