%TF.GenerationSoftware,KiCad,Pcbnew,(6.0.1)*%
%TF.CreationDate,2022-05-14T12:38:18+08:00*%
%TF.ProjectId,SDISK2_ESP,53444953-4b32-45f4-9553-502e6b696361,rev?*%
%TF.SameCoordinates,Original*%
%TF.FileFunction,Paste,Top*%
%TF.FilePolarity,Positive*%
%FSLAX46Y46*%
G04 Gerber Fmt 4.6, Leading zero omitted, Abs format (unit mm)*
G04 Created by KiCad (PCBNEW (6.0.1)) date 2022-05-14 12:38:18*
%MOMM*%
%LPD*%
G01*
G04 APERTURE LIST*
G04 Aperture macros list*
%AMRoundRect*
0 Rectangle with rounded corners*
0 $1 Rounding radius*
0 $2 $3 $4 $5 $6 $7 $8 $9 X,Y pos of 4 corners*
0 Add a 4 corners polygon primitive as box body*
4,1,4,$2,$3,$4,$5,$6,$7,$8,$9,$2,$3,0*
0 Add four circle primitives for the rounded corners*
1,1,$1+$1,$2,$3*
1,1,$1+$1,$4,$5*
1,1,$1+$1,$6,$7*
1,1,$1+$1,$8,$9*
0 Add four rect primitives between the rounded corners*
20,1,$1+$1,$2,$3,$4,$5,0*
20,1,$1+$1,$4,$5,$6,$7,0*
20,1,$1+$1,$6,$7,$8,$9,0*
20,1,$1+$1,$8,$9,$2,$3,0*%
G04 Aperture macros list end*
%ADD10RoundRect,0.150000X-0.150000X0.875000X-0.150000X-0.875000X0.150000X-0.875000X0.150000X0.875000X0*%
%ADD11RoundRect,0.250000X0.475000X-0.250000X0.475000X0.250000X-0.475000X0.250000X-0.475000X-0.250000X0*%
%ADD12RoundRect,0.250000X-0.262500X-0.450000X0.262500X-0.450000X0.262500X0.450000X-0.262500X0.450000X0*%
%ADD13RoundRect,0.150000X0.825000X0.150000X-0.825000X0.150000X-0.825000X-0.150000X0.825000X-0.150000X0*%
%ADD14RoundRect,0.250000X0.450000X-0.262500X0.450000X0.262500X-0.450000X0.262500X-0.450000X-0.262500X0*%
G04 APERTURE END LIST*
D10*
%TO.C,U2*%
X133985000Y-82865000D03*
X132715000Y-82865000D03*
X131445000Y-82865000D03*
X130175000Y-82865000D03*
X128905000Y-82865000D03*
X127635000Y-82865000D03*
X126365000Y-82865000D03*
X125095000Y-82865000D03*
X123825000Y-82865000D03*
X122555000Y-82865000D03*
X122555000Y-92165000D03*
X123825000Y-92165000D03*
X125095000Y-92165000D03*
X126365000Y-92165000D03*
X127635000Y-92165000D03*
X128905000Y-92165000D03*
X130175000Y-92165000D03*
X131445000Y-92165000D03*
X132715000Y-92165000D03*
X133985000Y-92165000D03*
%TD*%
D11*
%TO.C,C3*%
X114129891Y-109017292D03*
X114129891Y-107117292D03*
%TD*%
D12*
%TO.C,R4*%
X114145113Y-81666781D03*
X115970113Y-81666781D03*
%TD*%
D13*
%TO.C,U5*%
X115505000Y-91440000D03*
X115505000Y-90170000D03*
X115505000Y-88900000D03*
X115505000Y-87630000D03*
X115505000Y-86360000D03*
X115505000Y-85090000D03*
X115505000Y-83820000D03*
X110555000Y-83820000D03*
X110555000Y-85090000D03*
X110555000Y-86360000D03*
X110555000Y-87630000D03*
X110555000Y-88900000D03*
X110555000Y-90170000D03*
X110555000Y-91440000D03*
%TD*%
D14*
%TO.C,R5*%
X119380000Y-87272500D03*
X119380000Y-85447500D03*
%TD*%
D11*
%TO.C,C2*%
X137160000Y-89850000D03*
X137160000Y-87950000D03*
%TD*%
M02*
